<svg width="61" height="61" viewBox="0 0 61 61" fill="none" xmlns="http://www.w3.org/2000/svg">
<circle cx="30.6294" cy="30.8148" r="30" fill="#FFEDB0"/>
<ellipse cx="30.6295" cy="30.3488" rx="25.3846" ry="25.3846" fill="#FFC501"/>
<g filter="url(#filter0_d_168_4)">
<path d="M30.6295 24.3489C32.2208 24.3489 33.7469 24.981 34.8722 26.1062C35.9974 27.2315 36.6295 28.7576 36.6295 30.3489C36.6295 32.5689 35.4195 34.5089 33.6295 35.5489V37.3489C33.6295 37.6141 33.5242 37.8684 33.3366 38.056C33.1491 38.2435 32.8947 38.3489 32.6295 38.3489H28.6295C28.3643 38.3489 28.1099 38.2435 27.9224 38.056C27.7349 37.8684 27.6295 37.6141 27.6295 37.3489V35.5489C25.8395 34.5089 24.6295 32.5689 24.6295 30.3489C24.6295 28.7576 25.2617 27.2315 26.3869 26.1062C27.5121 24.981 29.0382 24.3489 30.6295 24.3489ZM32.6295 39.3489V40.3489C32.6295 40.6141 32.5242 40.8684 32.3366 41.056C32.1491 41.2435 31.8947 41.3489 31.6295 41.3489H29.6295C29.3643 41.3489 29.1099 41.2435 28.9224 41.056C28.7349 40.8684 28.6295 40.6141 28.6295 40.3489V39.3489H32.6295ZM38.6295 29.3489H41.6295V31.3489H38.6295V29.3489ZM19.6295 29.3489H22.6295V31.3489H19.6295V29.3489ZM31.6295 19.3489V22.3489H29.6295V19.3489H31.6295ZM23.5495 21.8489L25.6795 23.9889L24.2595 25.3989L22.1295 23.2789L23.5495 21.8489ZM35.5795 23.9789L37.6995 21.8489L39.1295 23.2789L36.9995 25.3989L35.5795 23.9789Z" fill="#FFEDB0"/>
</g>
<defs>
<filter id="filter0_d_168_4" x="17.6295" y="17.3489" width="30" height="30" filterUnits="userSpaceOnUse" color-interpolation-filters="sRGB">
<feFlood flood-opacity="0" result="BackgroundImageFix"/>
<feColorMatrix in="SourceAlpha" type="matrix" values="0 0 0 0 0 0 0 0 0 0 0 0 0 0 0 0 0 0 127 0" result="hardAlpha"/>
<feOffset dx="2" dy="2"/>
<feGaussianBlur stdDeviation="2"/>
<feComposite in2="hardAlpha" operator="out"/>
<feColorMatrix type="matrix" values="0 0 0 0 0 0 0 0 0 0 0 0 0 0 0 0 0 0 0.25 0"/>
<feBlend mode="normal" in2="BackgroundImageFix" result="effect1_dropShadow_168_4"/>
<feBlend mode="normal" in="SourceGraphic" in2="effect1_dropShadow_168_4" result="shape"/>
</filter>
</defs>
</svg>
