<svg width="455" height="432" viewBox="0 0 455 432" fill="none" xmlns="http://www.w3.org/2000/svg">
<path d="M227.494 431.173C352.893 431.173 454.548 384.028 454.548 325.87C454.548 267.713 352.893 220.568 227.494 220.568C102.096 220.568 0.440216 267.713 0.440216 325.87C0.440216 384.028 102.096 431.173 227.494 431.173Z" fill="#F5F5F5"/>
<path d="M321.98 392.265L152.493 312.371C151.002 311.67 149.764 310.66 148.903 309.444C148.042 308.228 147.589 306.848 147.589 305.443C147.589 304.038 148.042 302.658 148.903 301.442C149.764 300.225 151.002 299.216 152.493 298.514L169.213 289.907C172.099 288.55 175.371 287.836 178.702 287.836C182.032 287.836 185.304 288.55 188.19 289.907L357.7 369.811C359.191 370.512 360.43 371.522 361.291 372.738C362.152 373.954 362.605 375.334 362.605 376.739C362.605 378.144 362.152 379.524 361.291 380.74C360.43 381.956 359.191 382.966 357.7 383.667L340.981 392.265C338.094 393.63 334.817 394.348 331.48 394.348C328.144 394.348 324.867 393.63 321.98 392.265Z" fill="#E0E0E0"/>
<path d="M64.2757 319.426C84.5889 319.426 101.056 311.706 101.056 302.183C101.056 292.66 84.5889 284.94 64.2757 284.94C43.9625 284.94 27.4954 292.66 27.4954 302.183C27.4954 311.706 43.9625 319.426 64.2757 319.426Z" fill="#E6E6E6"/>
<path d="M382.082 323.377L398.214 330.95C398.214 330.95 389.975 309.812 394.365 288.505C396.025 280.453 399.585 276.455 400.83 274.301C402.074 272.146 411.718 258.835 403.134 252.74C394.55 246.644 374.581 258.901 375.664 291.704C376.156 302.441 378.313 313.083 382.082 323.377Z" fill="#CCE6FF"/>
<path opacity="0.5" d="M382.082 323.377L398.214 330.95C398.214 330.95 389.975 309.812 394.365 288.505C396.025 280.453 399.585 276.455 400.83 274.301C402.074 272.146 411.718 258.835 403.134 252.74C394.55 246.644 374.581 258.901 375.664 291.704C376.156 302.441 378.313 313.083 382.082 323.377Z" fill="black"/>
<path d="M389.583 327.366C389.466 327.368 389.351 327.34 389.254 327.286C389.157 327.232 389.083 327.155 389.042 327.065C388.984 326.924 382.82 313.171 383.016 291.064C383.211 268.957 397.442 256.954 397.58 256.841C397.634 256.797 397.697 256.762 397.768 256.738C397.838 256.714 397.913 256.702 397.989 256.702C398.065 256.702 398.141 256.714 398.211 256.738C398.281 256.762 398.345 256.797 398.398 256.841C398.452 256.885 398.495 256.937 398.524 256.994C398.554 257.051 398.569 257.113 398.569 257.175C398.569 257.237 398.554 257.299 398.524 257.356C398.495 257.413 398.452 257.465 398.398 257.509C398.26 257.622 384.364 269.268 384.168 291.073C383.972 312.879 390.056 326.613 390.125 326.745C390.177 326.862 390.17 326.992 390.105 327.105C390.04 327.217 389.923 327.305 389.779 327.347C389.716 327.363 389.65 327.37 389.583 327.366Z" fill="white"/>
<path d="M388.811 326.613L410.866 336.961C413.164 338.07 415.889 338.431 418.499 337.973C421.109 337.514 423.411 336.27 424.946 334.487C426.406 332.633 427.022 330.419 426.686 328.231C425.626 318.881 420.649 316.727 426.744 312.559C432.84 308.392 434.43 308.1 434.084 304.093C433.738 300.085 430.385 298.336 428.795 296.755C427.205 295.175 422.803 291.864 425.799 286.972C428.795 282.08 432.886 277.349 426.686 275.185C422.988 273.887 416.823 275.618 412.767 279.211C408.711 282.805 405.37 285.392 401.486 286.257C397.603 287.122 389.514 287.264 389.86 292.729C390.206 298.195 391.98 300.067 390.39 302.503C387.394 307.056 374.362 309.643 388.811 326.613Z" fill="#CCE6FF"/>
<path d="M399.712 332.182C399.568 332.179 399.431 332.133 399.325 332.053C399.219 331.974 399.152 331.866 399.136 331.75C399.136 331.43 395.748 299.145 422.942 277.659C423.054 277.583 423.197 277.545 423.342 277.552C423.487 277.559 423.624 277.611 423.724 277.696C423.825 277.782 423.882 277.896 423.884 278.014C423.887 278.133 423.834 278.248 423.737 278.336C396.935 299.512 400.253 331.345 400.288 331.665C400.301 331.788 400.254 331.911 400.157 332.006C400.059 332.101 399.92 332.161 399.769 332.173L399.712 332.182Z" fill="white"/>
<path d="M404.079 304.394C403.934 304.394 403.794 304.35 403.687 304.27C403.58 304.189 403.514 304.079 403.503 303.961C403.261 301.459 402.398 299.024 400.966 296.803C399.534 294.582 397.562 292.623 395.172 291.045C395.11 291.01 395.057 290.964 395.016 290.912C394.975 290.859 394.948 290.801 394.935 290.74C394.922 290.678 394.924 290.616 394.941 290.555C394.958 290.494 394.989 290.437 395.034 290.387C395.076 290.336 395.131 290.293 395.194 290.26C395.257 290.227 395.328 290.204 395.402 290.194C395.476 290.183 395.552 290.185 395.625 290.199C395.699 290.212 395.768 290.238 395.829 290.274C398.376 291.923 400.476 293.986 401.995 296.333C403.515 298.679 404.42 301.258 404.655 303.905C404.668 304.031 404.619 304.155 404.52 304.252C404.421 304.349 404.279 304.41 404.125 304.422L404.079 304.394Z" fill="white"/>
<path d="M402.201 309.935C402.061 309.936 401.926 309.896 401.82 309.822C401.706 309.739 401.636 309.622 401.625 309.497C401.615 309.373 401.664 309.249 401.763 309.154C402.039 308.89 408.849 302.757 424.808 304.384C424.959 304.401 425.096 304.466 425.189 304.564C425.282 304.663 425.323 304.788 425.304 304.911C425.284 305.035 425.205 305.148 425.084 305.225C424.964 305.303 424.811 305.339 424.658 305.325C409.333 303.754 402.685 309.718 402.616 309.775C402.563 309.823 402.499 309.862 402.428 309.889C402.357 309.917 402.279 309.932 402.201 309.935Z" fill="white"/>
<path d="M316.818 382.717L167.761 312.456C157.241 307.498 148.714 294.197 148.714 282.748V22.1719C148.714 10.7234 157.241 5.46487 167.761 10.4224L316.818 80.6839C327.338 85.6415 335.865 98.9431 335.865 110.392V370.968C335.865 382.407 327.338 387.675 316.818 382.717Z" fill="#455A64"/>
<path d="M333.987 72.4904L184.918 2.2289C180.424 0.112309 176.299 -0.132276 173.038 1.1659C172.639 1.32912 172.254 1.51456 171.886 1.72092L155.178 9.65109C158.543 8.00485 162.944 8.12714 167.772 10.4037L316.829 80.6652C327.35 85.6227 335.876 98.9243 335.876 110.373V370.949C335.876 377.007 333.491 381.297 329.689 383.329L346.178 375.493C350.383 373.668 353.091 369.199 353.091 362.793V102.217C353.091 90.7496 344.507 77.448 333.987 72.4904Z" fill="#37474F"/>
<path d="M335.865 110.373V370.949C335.865 377.007 333.48 381.297 329.677 383.329L346.178 375.493C350.383 373.668 353.091 369.199 353.091 362.793V102.217L335.922 110.354L335.865 110.373Z" fill="#263238"/>
<path d="M353.034 122.433L335.865 130.523V136.844L353.034 128.745V122.433Z" fill="#37474F"/>
<path d="M345.509 164.473C343.977 165.197 342.732 164.426 342.732 162.761V149.167C342.748 148.318 343.007 147.483 343.49 146.73C343.972 145.977 344.664 145.326 345.509 144.831C347.042 144.106 348.286 144.831 348.286 146.543V160.136C348.271 160.986 348.011 161.821 347.529 162.574C347.047 163.327 346.355 163.977 345.509 164.473Z" fill="#37474F"/>
<path d="M342.721 162.798V149.168C342.736 148.318 342.996 147.483 343.478 146.73C343.96 145.977 344.652 145.326 345.498 144.831C345.751 144.687 346.045 144.599 346.352 144.575C346.659 144.552 346.968 144.595 347.249 144.699L345.164 143.824C344.878 143.712 344.562 143.664 344.246 143.684C343.931 143.703 343.627 143.791 343.366 143.937C342.52 144.433 341.826 145.083 341.342 145.836C340.858 146.589 340.596 147.424 340.578 148.274V161.858C340.534 162.201 340.598 162.547 340.764 162.865C340.929 163.182 341.19 163.461 341.522 163.673L343.7 164.614C343.354 164.41 343.08 164.134 342.908 163.815C342.736 163.496 342.671 163.145 342.721 162.798Z" fill="#455A64"/>
<path d="M345.509 197.369C343.977 198.094 342.732 197.369 342.732 195.657V182.064C342.749 181.215 343.009 180.38 343.491 179.627C343.973 178.874 344.664 178.223 345.509 177.727C347.042 177.003 348.286 177.727 348.286 179.449V193.033C348.273 193.883 348.014 194.718 347.532 195.472C347.049 196.225 346.357 196.875 345.509 197.369Z" fill="#37474F"/>
<path d="M342.721 195.657V182.064C342.737 181.215 342.997 180.38 343.479 179.627C343.961 178.874 344.653 178.223 345.498 177.728C345.752 177.586 346.046 177.499 346.353 177.476C346.659 177.453 346.968 177.494 347.249 177.596L345.164 176.712C344.88 176.595 344.563 176.543 344.246 176.563C343.929 176.583 343.625 176.673 343.366 176.824C342.518 177.318 341.823 177.968 341.339 178.721C340.854 179.475 340.594 180.31 340.578 181.161V194.783C340.533 195.126 340.597 195.473 340.762 195.79C340.927 196.108 341.189 196.386 341.523 196.598L343.7 197.539C343.34 197.33 343.057 197.044 342.884 196.712C342.711 196.379 342.654 196.014 342.721 195.657Z" fill="#455A64"/>
<path d="M311.61 87.9933L165.134 18.9265C164.522 18.6394 163.83 18.4878 163.124 18.4867C162.419 18.4856 161.726 18.6351 161.113 18.9204C160.5 19.2057 159.99 19.6167 159.632 20.1129C159.274 20.609 159.081 21.1729 159.073 21.7486V282.748C159.073 291.459 166.643 302.155 175.884 306.511L318.765 373.893C319.443 374.212 320.211 374.379 320.993 374.379C321.775 374.378 322.542 374.21 323.219 373.89C323.896 373.571 324.459 373.112 324.85 372.56C325.241 372.007 325.447 371.38 325.448 370.742V107.588C325.506 100.401 319.261 91.5868 311.61 87.9933Z" fill="#CCE6FF"/>
<path opacity="0.9" d="M311.61 87.9933L165.134 18.9265C164.522 18.6394 163.83 18.4878 163.124 18.4867C162.419 18.4856 161.726 18.6351 161.113 18.9204C160.5 19.2057 159.99 19.6167 159.632 20.1129C159.274 20.609 159.081 21.1729 159.073 21.7486V282.748C159.073 291.459 166.643 302.155 175.884 306.511L318.765 373.893C319.443 374.212 320.211 374.379 320.993 374.379C321.775 374.378 322.542 374.21 323.219 373.89C323.896 373.571 324.459 373.112 324.85 372.56C325.241 372.007 325.447 371.38 325.448 370.742V107.588C325.506 100.401 319.261 91.5868 311.61 87.9933Z" fill="white"/>
<path d="M208.943 36.96L211.213 44.7584L259.769 67.6177L268.158 63.9677L208.943 36.96Z" fill="#455A64"/>
<path d="M223.219 44.495C223.219 45.7932 222.067 46.3105 220.73 45.6709C220.013 45.2819 219.417 44.761 218.991 44.15C218.565 43.539 218.32 42.8549 218.276 42.1526C218.276 40.8638 219.428 40.337 220.765 40.9861C221.482 41.373 222.078 41.8922 222.505 42.5017C222.931 43.1112 223.176 43.794 223.219 44.495Z" fill="#263238"/>
<path d="M255.932 61.0044C255.666 61.0026 255.405 60.9477 255.172 60.8444L230.375 49.5559C230.025 49.3881 229.769 49.1151 229.662 48.7953C229.555 48.4756 229.605 48.1343 229.803 47.8445C230 47.5547 230.328 47.3393 230.717 47.2442C231.106 47.1492 231.525 47.1821 231.884 47.3359L256.693 58.6244C256.994 58.7612 257.231 58.976 257.367 59.235C257.503 59.494 257.529 59.7824 257.442 60.055C257.355 60.3275 257.159 60.5687 256.886 60.7406C256.613 60.9124 256.277 61.0052 255.932 61.0044Z" fill="#263238"/>
<path d="M189.792 73.2429C188.283 72.5279 187.188 73.1488 187.188 74.7198C187.188 75.5054 187.426 76.2788 187.88 76.9714C188.334 77.6639 188.991 78.2542 189.792 78.6896C190.221 78.9022 190.713 79.0146 191.215 79.0146C191.717 79.0146 192.209 78.9022 192.638 78.6896L195.046 82.2455C194.199 82.6271 193.239 82.809 192.272 82.7708C191.306 82.7326 190.371 82.4758 189.573 82.0291C187.617 81.0519 185.985 79.696 184.824 78.0814C183.662 76.4669 183.006 74.6435 182.913 72.7725C182.913 69.2825 185.782 68.069 189.734 69.9504C191.966 71.1238 193.795 72.7427 195.046 74.6539L192.638 76.2155C192.044 75.0289 191.059 73.9999 189.792 73.2429Z" fill="#CCE6FF"/>
<path d="M208.908 85.0301C208.908 88.5483 205.993 89.7336 201.995 87.8522C199.982 86.8704 198.298 85.498 197.092 83.8568C195.886 82.2157 195.195 80.3567 195.081 78.4451C195.081 74.9269 197.996 73.7416 201.995 75.623C204.012 76.6003 205.7 77.9717 206.906 79.6138C208.113 81.2558 208.801 83.1171 208.908 85.0301ZM199.356 80.5429C199.376 81.3506 199.631 82.1428 200.1 82.8543C200.569 83.5657 201.238 84.1761 202.052 84.635C203.481 85.3123 204.633 84.635 204.633 83.0358C204.629 82.2463 204.393 81.4692 203.944 80.77C203.494 80.0709 202.846 79.4703 202.052 79.0189C200.6 78.3322 199.356 78.9155 199.356 80.5429Z" fill="#CCE6FF"/>
<path d="M213.552 81.2954L218.53 89.7618V83.666L222.298 85.4439V97.3063L218.841 95.6694L213.886 87.2783V93.3365L210.095 91.5491V79.6586L213.552 81.2954Z" fill="#CCE6FF"/>
<path d="M234.615 91.2199V94.3243L231.02 92.631V101.398L226.86 99.4323V90.6649L223.288 88.981V85.8861L234.615 91.2199Z" fill="#CCE6FF"/>
<path d="M242.727 105.236L238.003 103.007L237.358 104.38L233.094 102.367L238.406 93.0072L242.681 95.0203L247.797 109.3L243.361 107.212L242.727 105.236ZM241.702 101.944L240.411 97.8895L239.086 100.712L241.702 101.944Z" fill="#CCE6FF"/>
<path d="M254.4 103.694C252.89 102.988 251.796 103.6 251.796 105.18C251.798 105.965 252.036 106.738 252.49 107.43C252.944 108.123 253.6 108.713 254.4 109.15C254.832 109.36 255.325 109.471 255.828 109.471C256.332 109.471 256.825 109.36 257.257 109.15L259.666 112.706C258.815 113.083 257.853 113.262 256.886 113.224C255.919 113.186 254.983 112.932 254.181 112.489C252.223 111.511 250.59 110.154 249.429 108.538C248.267 106.921 247.612 105.096 247.521 103.223C247.521 99.7333 250.401 98.5198 254.342 100.401C256.571 101.58 258.402 103.198 259.666 105.105L257.257 106.657C256.65 105.477 255.663 104.452 254.4 103.694Z" fill="#CCE6FF"/>
<path d="M271.027 108.388V111.483L267.432 109.79V118.585L263.272 116.619V107.852L259.7 106.168V103.073L271.027 108.388Z" fill="#CCE6FF"/>
<path d="M283.322 122.95C284.347 123.43 285.131 123.053 285.131 121.878V115.039L289.302 116.995V123.834C289.302 126.986 286.997 127.926 283.31 126.205C281.534 125.399 280.04 124.235 278.973 122.824C277.906 121.412 277.3 119.8 277.214 118.143V111.304L281.386 113.27V120.109C281.402 120.675 281.586 121.23 281.924 121.725C282.261 122.22 282.741 122.64 283.322 122.95Z" fill="#CCE6FF"/>
<path d="M296.019 122.988C295.547 122.771 295.247 122.762 295.247 123.119C295.247 124.606 301.758 126.75 301.758 131.049C301.758 133.683 299.303 133.693 296.469 132.357C293.977 131.111 291.831 129.454 290.166 127.494L291.71 125.273C292.977 126.875 294.603 128.267 296.503 129.375C297.114 129.667 297.506 129.667 297.506 129.243C297.506 127.701 290.984 125.65 290.984 121.482C290.984 119.112 293.104 118.66 296.377 120.165C298.485 121.206 300.34 122.555 301.85 124.145L300.34 126.421C299.094 125.125 297.64 123.97 296.019 122.988Z" fill="#CCE6FF"/>
<path d="M168.832 131.699C173.508 127.011 175.861 121.063 175.428 115.028C174.996 108.993 171.808 103.309 166.495 99.0989C161.181 94.8884 154.128 92.4565 146.726 92.2831C139.325 92.1098 132.112 94.2074 126.512 98.1622C120.911 102.117 117.33 107.642 116.474 113.647C115.618 119.651 117.55 125.7 121.888 130.599C126.226 135.498 132.656 138.892 139.909 140.111C147.162 141.329 154.71 140.285 161.066 137.183L175.492 142.3L168.832 131.699Z" fill="#CCE6FF"/>
<path opacity="0.4" d="M168.832 131.699C173.508 127.011 175.861 121.063 175.428 115.028C174.996 108.993 171.808 103.309 166.495 99.0989C161.181 94.8884 154.128 92.4565 146.726 92.2831C139.325 92.1098 132.112 94.2074 126.512 98.1622C120.911 102.117 117.33 107.642 116.474 113.647C115.618 119.651 117.55 125.7 121.888 130.599C126.226 135.498 132.656 138.892 139.909 140.111C147.162 141.329 154.71 140.285 161.066 137.183L175.492 142.3L168.832 131.699Z" fill="black"/>
<path d="M134.91 115.142C134.91 114.775 134.587 114.568 133.999 114.568C132.636 114.714 131.363 115.204 130.358 115.97L128.722 113.374C130.444 112.316 132.525 111.718 134.679 111.662C137.445 111.662 139.542 112.847 139.542 114.615C139.542 115.876 138.389 117.09 136.915 118.303L134.852 119.968H139.726V122.734H129.252V120.467L133.919 116.525C134.421 116.162 134.768 115.678 134.91 115.142Z" fill="white"/>
<path d="M148.253 111.822L145.073 118.049H146.375V115.951H150.385V118.049H151.906V120.617H150.385V122.734H146.375V120.617H140.671V118.284L144.128 111.822H148.253Z" fill="white"/>
<path d="M164.281 117.306V122.734H159.994V118.312C160.019 118.168 160.006 118.022 159.955 117.882C159.905 117.743 159.818 117.614 159.701 117.504C159.584 117.395 159.44 117.307 159.278 117.247C159.116 117.186 158.94 117.155 158.762 117.155C157.92 117.155 157.39 117.691 157.39 118.519V122.734H153.104V111.201H157.39V115.443C157.726 115.01 158.193 114.656 158.747 114.416C159.3 114.175 159.921 114.056 160.548 114.07C161.061 114.059 161.572 114.137 162.046 114.298C162.521 114.46 162.948 114.701 163.301 115.006C163.653 115.312 163.922 115.674 164.091 116.071C164.26 116.467 164.325 116.888 164.281 117.306Z" fill="white"/>
<path d="M304.051 204.716V321.599C304.053 322.921 303.629 324.221 302.821 325.366C302.013 326.512 300.849 327.463 299.448 328.125C298.046 328.787 296.455 329.136 294.836 329.136C293.217 329.137 291.626 328.789 290.224 328.128L213.114 291.779L199.448 285.345C194.742 283.123 190.833 279.932 188.112 276.091C185.39 272.249 183.951 267.892 183.939 263.454V146.562C183.936 145.24 184.36 143.941 185.169 142.795C185.977 141.649 187.14 140.698 188.542 140.036C189.944 139.374 191.534 139.026 193.153 139.025C194.773 139.025 196.364 139.372 197.766 140.033L288.564 182.826C293.272 185.044 297.182 188.235 299.9 192.077C302.619 195.92 304.05 200.279 304.051 204.716Z" fill="#CCE6FF"/>
<path opacity="0.5" d="M304.051 204.716V321.599C304.053 322.921 303.629 324.221 302.821 325.366C302.013 326.512 300.849 327.463 299.448 328.125C298.046 328.787 296.455 329.136 294.836 329.136C293.217 329.137 291.626 328.789 290.224 328.128L213.114 291.779L199.448 285.345C194.742 283.123 190.833 279.932 188.112 276.091C185.39 272.249 183.951 267.892 183.939 263.454V146.562C183.936 145.24 184.36 143.941 185.169 142.795C185.977 141.649 187.14 140.698 188.542 140.036C189.944 139.374 191.534 139.026 193.153 139.025C194.773 139.025 196.364 139.372 197.766 140.033L288.564 182.826C293.272 185.044 297.182 188.235 299.9 192.077C302.619 195.92 304.05 200.279 304.051 204.716Z" fill="white"/>
<path d="M259.631 273.877C259.631 273.877 274.069 293.425 263.641 315.466L213.079 291.779L259.631 273.877Z" fill="#263238"/>
<path d="M282.656 186.05C283.749 178.805 277.441 172.209 268.567 171.317C259.693 170.425 251.613 175.575 250.52 182.82C249.428 190.064 255.736 196.661 264.61 197.553C273.484 198.445 281.564 193.295 282.656 186.05Z" fill="#263238"/>
<path d="M266.671 147.362C266.671 147.362 271.638 140.777 273.159 141.256C274.68 141.736 272.168 148.011 272.168 148.011C272.168 148.011 279.68 149.29 278.286 150.833C276.892 152.375 267.708 152.009 267.708 152.009L266.671 147.362Z" fill="#263238"/>
<path d="M270.128 164.332C266.671 185.535 244.778 185.535 244.778 185.535L198.918 169.054C198.918 169.054 195.461 166.58 194.401 160.898C193.995 158.571 193.995 156.208 194.401 153.881C194.401 153.881 194.401 153.834 194.401 153.815C195.865 144.897 204.034 135.311 221.825 132.367C225.724 131.724 229.693 131.409 233.67 131.426C235.595 131.42 237.518 131.499 239.432 131.661C253.259 132.771 262.95 138.039 267.57 146.233C268.609 148.082 269.383 150.023 269.875 152.018C270.812 156.081 270.898 160.245 270.128 164.332Z" fill="#263238"/>
<path d="M160.029 205.347C160.029 205.347 143.748 204.886 137.479 217.839C137.479 217.839 144.393 221.649 153.461 217.839C162.53 214.03 160.029 205.347 160.029 205.347Z" fill="#CCE6FF"/>
<path opacity="0.5" d="M160.029 205.347C160.029 205.347 143.748 204.886 137.479 217.839C137.479 217.839 144.393 221.649 153.461 217.839C162.53 214.03 160.029 205.347 160.029 205.347Z" fill="black"/>
<path d="M159.568 211.584C159.568 211.584 154.959 195.234 152.528 195.036C150.097 194.839 149.624 200.022 149.82 202.948L144.059 192.826C143.876 192.511 143.616 192.231 143.296 192.001C142.975 191.772 142.6 191.598 142.194 191.492C141.788 191.385 141.36 191.347 140.935 191.381C140.511 191.415 140.099 191.519 139.726 191.688C133.965 194.275 123.86 202.139 145.165 221.583L159.568 211.584Z" fill="#945959"/>
<path d="M218.564 200.276L215.107 199.91C211.624 199.532 208.08 199.919 204.84 201.03C201.6 202.141 198.78 203.936 196.671 206.231L176.103 228.582L159.972 205.347C159.972 205.347 158.036 221.151 137.422 217.839L159.557 248.253C160.958 250.178 162.907 251.799 165.24 252.977C167.573 254.155 170.22 254.855 172.956 255.019C175.691 255.182 178.435 254.804 180.953 253.916C183.471 253.027 185.689 251.656 187.419 249.918L206.362 230.906L218.564 200.276Z" fill="#CCE6FF"/>
<path d="M262.466 252.439C257.857 261.977 257.35 263.84 260.161 268.609C262.119 272.132 263.662 275.798 264.77 279.559C264.77 279.559 243.407 299.107 212.999 291.788L199.333 285.354C196.491 284.016 193.931 282.314 191.751 280.312L195.911 254.988C196.12 253.655 195.955 252.301 195.427 251.028L191.06 240.576C188.929 235.472 188.612 229.979 190.145 224.733C191.678 219.487 195 214.703 199.725 210.935L214.405 199.223L252.959 203.249L258.721 204.594C262.492 205.485 265.744 207.457 267.878 210.147C270.011 212.838 270.884 216.067 270.336 219.241C268.446 230.341 265.358 246.446 262.466 252.439Z" fill="#CCE6FF"/>
<path opacity="0.5" d="M262.466 252.439C257.857 261.977 257.35 263.84 260.161 268.609C262.119 272.132 263.662 275.798 264.77 279.559C264.77 279.559 243.407 299.107 212.999 291.788L199.333 285.354C196.491 284.016 193.931 282.314 191.751 280.312L195.911 254.988C196.12 253.655 195.955 252.301 195.427 251.028L191.06 240.576C188.929 235.472 188.612 229.979 190.145 224.733C191.678 219.487 195 214.703 199.725 210.935L214.405 199.223L252.959 203.249L258.721 204.594C262.492 205.485 265.744 207.457 267.878 210.147C270.011 212.838 270.884 216.067 270.336 219.241C268.446 230.341 265.358 246.446 262.466 252.439Z" fill="black"/>
<path d="M239.213 223.945L231.493 218.573C230.675 218.002 229.689 217.615 228.632 217.45C227.576 217.285 226.484 217.348 225.466 217.632L216.133 220.257L214.877 215.986C214.681 215.322 214.322 214.697 213.822 214.148C213.322 213.6 212.691 213.14 211.968 212.797C211.244 212.453 210.443 212.233 209.612 212.149C208.781 212.065 207.938 212.119 207.134 212.308L203.089 213.249L209.934 202.543C212.169 199.057 215.611 196.184 219.832 194.284L222.517 193.08L244.698 194.021C244.698 194.021 252.959 196.843 252.959 203.193L239.213 223.888" fill="#CCE6FF"/>
<path d="M244.79 202.045L222.551 216.193V171.143H244.79V202.045Z" fill="#945959"/>
<path d="M222.897 198.329L216.133 220.295L244.698 202.045L222.897 198.329Z" fill="#945959"/>
<path d="M222.551 195.065C227.496 193.566 232.016 191.262 235.837 188.293C239.658 185.324 242.7 181.752 244.778 177.793V171.143H222.54L222.551 195.065Z" fill="#703838"/>
<path d="M227.344 137.757C218.91 137.757 200.981 141.595 198.907 159.619C196.832 177.643 198.837 191.603 210.222 192.958C221.606 194.312 248.062 187.567 251.611 164.238C255.16 140.908 235.56 137.757 227.344 137.757Z" fill="#945959"/>
<path d="M214.07 167.248V177.869L206.442 175.959L214.07 167.248Z" fill="#703838"/>
<path d="M222.551 171.246C224.015 171.246 225.201 170.277 225.201 169.082C225.201 167.888 224.015 166.919 222.551 166.919C221.087 166.919 219.901 167.888 219.901 169.082C219.901 170.277 221.087 171.246 222.551 171.246Z" fill="#263238"/>
<path d="M207.756 167.577C207.754 168.005 207.596 168.422 207.304 168.777C207.011 169.131 206.596 169.407 206.112 169.57C205.628 169.732 205.095 169.773 204.582 169.689C204.068 169.604 203.597 169.397 203.228 169.095C202.858 168.792 202.607 168.406 202.506 167.987C202.404 167.567 202.457 167.133 202.658 166.738C202.859 166.343 203.199 166.006 203.635 165.768C204.07 165.531 204.582 165.404 205.106 165.404C205.455 165.404 205.8 165.461 206.123 165.57C206.445 165.679 206.738 165.839 206.984 166.041C207.23 166.243 207.425 166.483 207.558 166.746C207.69 167.01 207.757 167.292 207.756 167.577Z" fill="#263238"/>
<path d="M201.868 163.062L207.053 160.55C207.053 160.55 205.071 158.866 203.089 159.873C201.107 160.879 201.868 163.062 201.868 163.062Z" fill="#263238"/>
<path d="M210.487 182.177C213.012 182.328 215.525 181.777 217.619 180.616C217.619 180.616 218.115 183.692 214.958 184.275C211.8 184.858 210.487 182.177 210.487 182.177Z" fill="#703838"/>
<path d="M205.958 143.89C205.958 143.89 209.127 168.772 250.574 169.553C250.574 169.553 263.099 144.822 238.349 136.788C213.598 128.754 205.958 143.89 205.958 143.89Z" fill="#263238"/>
<path d="M262.777 165.828L257.684 163.419C255.748 162.479 253.075 162.61 250.113 164.003C244.237 166.768 239.466 173.513 239.466 179.054C239.466 181.829 240.619 183.758 242.601 184.698L247.601 187.05L247.889 187.182L248.062 187.266C249.952 188.019 252.475 187.84 255.252 186.533C261.129 183.71 265.899 177.022 265.899 171.481C265.865 168.678 264.678 166.74 262.777 165.828Z" fill="#CCE6FF"/>
<path d="M262.736 179.997C266.892 174.121 266.892 167.769 262.737 165.811C258.581 163.852 251.844 167.028 247.688 172.904C243.533 178.78 243.533 185.131 247.688 187.09C251.843 189.049 258.581 185.873 262.736 179.997Z" fill="#CCE6FF"/>
<path opacity="0.5" d="M262.736 179.997C266.892 174.121 266.892 167.769 262.737 165.811C258.581 163.852 251.844 167.028 247.688 172.904C243.533 178.78 243.533 185.131 247.688 187.09C251.843 189.049 258.581 185.873 262.736 179.997Z" fill="black"/>
<path d="M264.816 171.048L261.359 169.402C260.046 168.763 258.214 168.847 256.186 169.797C254.067 170.928 252.304 172.449 251.039 174.238C249.774 176.028 249.042 178.035 248.903 180.098C248.903 181.98 249.721 183.325 251.047 183.946L254.503 185.554C254.565 185.591 254.63 185.622 254.699 185.648L254.814 185.705C255.625 185.956 256.498 186.041 257.358 185.952C258.218 185.863 259.038 185.604 259.746 185.197C261.863 184.067 263.625 182.548 264.89 180.76C266.155 178.972 266.888 176.967 267.028 174.905C266.936 172.996 266.13 171.669 264.816 171.048Z" fill="#CCE6FF"/>
<path d="M266.936 174.887C266.796 176.948 266.063 178.953 264.798 180.741C263.533 182.529 261.771 184.049 259.654 185.178C255.621 187.059 252.36 185.535 252.36 181.744C252.497 179.681 253.229 177.674 254.496 175.885C255.764 174.097 257.531 172.578 259.654 171.453C263.675 169.553 266.936 171.086 266.936 174.887Z" fill="#CCE6FF"/>
<path opacity="0.3" d="M266.936 174.887C266.796 176.948 266.063 178.953 264.798 180.741C263.533 182.529 261.771 184.049 259.654 185.178C255.621 187.059 252.36 185.535 252.36 181.744C252.497 179.681 253.229 177.674 254.496 175.885C255.764 174.097 257.531 172.578 259.654 171.453C263.675 169.553 266.936 171.086 266.936 174.887Z" fill="black"/>
<path d="M246.956 132.903C243.653 130.82 239.607 129.674 235.433 129.639H234.408C230.181 129.601 225.962 129.917 221.814 130.579C222.574 130.579 223.335 130.579 224.118 130.579H221.814V132.329H223.957C231.343 132.534 238.342 135.076 243.475 139.417C248.608 143.759 251.472 149.559 251.461 155.593V162.996C251.461 163.289 251.536 163.578 251.682 163.846C251.827 164.113 252.04 164.353 252.306 164.549C252.572 164.745 252.886 164.893 253.227 164.983C253.568 165.074 253.928 165.105 254.284 165.075H254.549L256.854 164.492C256.7 164.531 256.542 164.557 256.382 164.567C257.069 164.491 257.697 164.211 258.148 163.781C258.598 163.351 258.839 162.8 258.824 162.234V155.367C258.801 142.94 252.222 136.261 246.956 132.903Z" fill="#CCE6FF"/>
<path d="M232.449 192.44C231.499 192.44 230.559 192.273 229.695 191.951L222.493 189.232C222.381 189.199 222.278 189.148 222.191 189.081C222.104 189.014 222.035 188.933 221.988 188.843C221.942 188.753 221.919 188.656 221.92 188.558C221.922 188.46 221.948 188.364 221.998 188.275C222.048 188.186 222.119 188.107 222.208 188.042C222.298 187.977 222.402 187.928 222.516 187.897C222.63 187.867 222.75 187.856 222.869 187.866C222.988 187.875 223.104 187.905 223.208 187.953L230.409 190.672C231.328 191.02 232.357 191.126 233.353 190.974C234.348 190.823 235.261 190.421 235.963 189.825L242.877 183.993C243.039 183.86 243.259 183.786 243.488 183.786C243.717 183.786 243.936 183.86 244.098 183.993C244.257 184.126 244.346 184.305 244.346 184.491C244.346 184.677 244.257 184.856 244.098 184.99L237.185 190.822C236.569 191.338 235.833 191.747 235.019 192.025C234.205 192.303 233.331 192.444 232.449 192.44Z" fill="#CCE6FF"/>
<path opacity="0.5" d="M232.449 192.44C231.499 192.44 230.559 192.273 229.695 191.951L222.493 189.232C222.381 189.199 222.278 189.148 222.191 189.081C222.104 189.014 222.035 188.933 221.988 188.843C221.942 188.753 221.919 188.656 221.92 188.558C221.922 188.46 221.948 188.364 221.998 188.275C222.048 188.186 222.119 188.107 222.208 188.042C222.298 187.977 222.402 187.928 222.516 187.897C222.63 187.867 222.75 187.856 222.869 187.866C222.988 187.875 223.104 187.905 223.208 187.953L230.409 190.672C231.328 191.02 232.357 191.126 233.353 190.974C234.348 190.823 235.261 190.421 235.963 189.825L242.877 183.993C243.039 183.86 243.259 183.786 243.488 183.786C243.717 183.786 243.936 183.86 244.098 183.993C244.257 184.126 244.346 184.305 244.346 184.491C244.346 184.677 244.257 184.856 244.098 184.99L237.185 190.822C236.569 191.338 235.833 191.747 235.019 192.025C234.205 192.303 233.331 192.444 232.449 192.44Z" fill="black"/>
<path d="M224.383 187.257C224.383 187.8 224.186 188.331 223.816 188.783C223.446 189.235 222.921 189.587 222.306 189.795C221.691 190.003 221.015 190.057 220.362 189.951C219.71 189.845 219.11 189.583 218.639 189.199C218.169 188.815 217.848 188.326 217.719 187.793C217.589 187.26 217.655 186.708 217.91 186.206C218.165 185.704 218.596 185.275 219.149 184.973C219.703 184.671 220.353 184.51 221.019 184.51C221.911 184.51 222.767 184.799 223.398 185.315C224.029 185.83 224.383 186.528 224.383 187.257Z" fill="#CCE6FF"/>
<path opacity="0.5" d="M224.383 187.257C224.383 187.8 224.186 188.331 223.816 188.783C223.446 189.235 222.921 189.587 222.306 189.795C221.691 190.003 221.015 190.057 220.362 189.951C219.71 189.845 219.11 189.583 218.639 189.199C218.169 188.815 217.848 188.326 217.719 187.793C217.589 187.26 217.655 186.708 217.91 186.206C218.165 185.704 218.596 185.275 219.149 184.973C219.703 184.671 220.353 184.51 221.019 184.51C221.911 184.51 222.767 184.799 223.398 185.315C224.029 185.83 224.383 186.528 224.383 187.257Z" fill="black"/>
<path d="M258.801 155.367V162.234C258.816 162.8 258.575 163.351 258.125 163.781C257.674 164.211 257.046 164.491 256.359 164.567C255.979 164.6 255.595 164.568 255.232 164.471C254.869 164.375 254.535 164.218 254.251 164.009C253.967 163.801 253.74 163.546 253.585 163.261C253.43 162.976 253.351 162.668 253.351 162.357V155.367C253.358 152.031 252.537 148.729 250.94 145.659C249.342 142.588 247.001 139.814 244.055 137.501C241.11 135.189 237.623 133.387 233.802 132.204C229.982 131.021 225.908 130.481 221.825 130.617C225.973 129.954 230.193 129.639 234.419 129.676H235.422C239.596 129.711 243.641 130.858 246.945 132.941C252.222 136.261 258.801 142.94 258.801 155.367Z" fill="#CCE6FF"/>
<path opacity="0.5" d="M258.801 155.367V162.234C258.816 162.8 258.575 163.351 258.125 163.781C257.674 164.211 257.046 164.491 256.359 164.567C255.979 164.6 255.595 164.568 255.232 164.471C254.869 164.375 254.535 164.218 254.251 164.009C253.967 163.801 253.74 163.546 253.585 163.261C253.43 162.976 253.351 162.668 253.351 162.357V155.367C253.358 152.031 252.537 148.729 250.94 145.659C249.342 142.588 247.001 139.814 244.055 137.501C241.11 135.189 237.623 133.387 233.802 132.204C229.982 131.021 225.908 130.481 221.825 130.617C225.973 129.954 230.193 129.639 234.419 129.676H235.422C239.596 129.711 243.641 130.858 246.945 132.941C252.222 136.261 258.801 142.94 258.801 155.367Z" fill="black"/>
<path d="M245.85 284.78C245.85 284.78 240.273 297.32 260.207 302.964C260.207 302.964 266.717 295.156 260.207 288.769C253.697 282.381 245.85 284.78 245.85 284.78Z" fill="#CCE6FF"/>
<path opacity="0.7" d="M245.85 284.78C245.85 284.78 240.273 297.32 260.207 302.964C260.207 302.964 266.717 295.156 260.207 288.769C253.697 282.381 245.85 284.78 245.85 284.78Z" fill="black"/>
<path d="M252.844 285.354C252.844 285.354 233.371 291.177 233.475 293.435C233.578 295.692 241.748 294.15 241.748 294.15L238.764 295.749C235.621 297.423 233.187 299.847 231.792 302.691C231.488 303.319 231.478 304.015 231.763 304.648C232.047 305.282 232.607 305.807 233.336 306.125L240.734 309.323C241.152 309.504 241.61 309.615 242.081 309.649C242.552 309.683 243.026 309.639 243.476 309.521C243.927 309.402 244.343 309.212 244.701 308.96C245.059 308.707 245.352 308.399 245.562 308.053C245.974 307.388 246.544 306.796 247.238 306.312C247.932 305.828 248.737 305.46 249.606 305.231C253.628 304.14 261.129 300.998 264.136 292.4L252.844 285.354Z" fill="#945959"/>
<path d="M258.686 204.575C258.686 204.575 248.316 209.279 253.824 223.559C259.331 237.839 269.667 259.993 269.667 259.993L245.85 284.78C248.394 285.031 250.846 285.717 253.044 286.793C255.241 287.869 257.137 289.312 258.605 291.027C260.012 292.77 260.891 294.762 261.17 296.838C261.448 298.913 261.118 301.013 260.207 302.964L289.774 271.921C292.509 269.052 294.324 265.672 295.056 262.086C295.789 258.501 295.415 254.823 293.968 251.385L281.294 221.17C279.744 217.479 277.17 214.13 273.771 211.387C270.373 208.644 266.243 206.58 261.705 205.356L258.686 204.575Z" fill="#CCE6FF"/>
<path d="M83.6338 120.222L37.8082 98.5857C37.2808 98.2873 36.6707 98.1009 36.0329 98.0434C35.3952 97.986 34.7499 98.0592 34.1555 98.2565C34.0302 98.3037 33.9106 98.3604 33.7983 98.4258L23.8312 103.195H23.9003C22.6444 103.778 21.8493 105.133 21.8493 107.071V148.688C21.8493 152.206 24.465 156.298 27.7028 157.822L73.5284 179.458C74.1099 179.802 74.802 179.998 75.519 180.023C76.2359 180.048 76.9461 179.901 77.5614 179.6C77.5302 179.61 77.5025 179.626 77.4807 179.647L87.3787 174.943C88.6692 174.379 89.4873 173.005 89.4873 171.039V129.356C89.4873 125.838 86.9178 121.746 83.6338 120.222Z" fill="#CCE6FF"/>
<path d="M87.8511 124.164C86.924 122.554 85.463 121.188 83.6338 120.222L37.8082 98.5857C37.2809 98.2873 36.6707 98.1009 36.033 98.0434C35.3952 97.986 34.7499 98.0592 34.1555 98.2565C34.0303 98.3037 33.9107 98.3604 33.7983 98.4258L23.8312 103.195C24.4409 102.941 25.1246 102.828 25.8074 102.87C26.4903 102.911 27.146 103.105 27.7029 103.43L73.5285 125.067C75.4199 126.076 76.919 127.506 77.8495 129.187L87.8511 124.164Z" fill="#CCE6FF"/>
<path d="M79.382 175.799C79.382 177.681 78.6445 178.988 77.4807 179.562L87.3787 174.858C88.6692 174.294 89.4873 172.921 89.4873 170.954V129.356C89.4386 127.546 88.8787 125.769 87.8511 124.164L77.8494 129.187C78.8097 130.745 79.3332 132.457 79.382 134.201V175.799Z" fill="#CCE6FF"/>
<path opacity="0.3" d="M87.8511 124.164C86.924 122.554 85.463 121.188 83.6338 120.222L37.8082 98.5857C37.2809 98.2873 36.6707 98.1009 36.033 98.0434C35.3952 97.986 34.7499 98.0592 34.1555 98.2565C34.0303 98.3037 33.9107 98.3604 33.7983 98.4258L23.8312 103.195C24.4409 102.941 25.1246 102.828 25.8074 102.87C26.4903 102.911 27.146 103.105 27.7029 103.43L73.5285 125.067C75.4199 126.076 76.919 127.506 77.8495 129.187L87.8511 124.164Z" fill="black"/>
<path opacity="0.6" d="M79.382 175.799C79.382 177.681 78.6445 178.988 77.4807 179.562L87.3787 174.858C88.6692 174.294 89.4873 172.921 89.4873 170.954V129.356C89.4386 127.546 88.8787 125.769 87.8511 124.164L77.8494 129.187C78.8097 130.745 79.3332 132.457 79.382 134.201V175.799Z" fill="black"/>
<path d="M65.9465 146.12C65.9465 151.51 63.3309 153.344 59.4132 151.491C58.3324 150.989 57.3874 150.313 56.6349 149.505C55.8824 148.696 55.338 147.772 55.0346 146.788C53.8823 147.945 52.0963 148.02 49.5843 146.835C45.4592 144.887 42.2098 140.25 42.2098 135.744C42.2098 131.238 45.4247 129.685 49.5843 131.642C51.6951 132.658 53.4001 134.151 54.493 135.941V134.163L58.837 136.214V145.96C58.7723 146.473 58.881 146.99 59.1512 147.456C59.4213 147.922 59.8427 148.319 60.3695 148.603C61.8329 149.299 62.7317 148.123 62.7317 144.633C62.7317 138.528 57.9383 132.056 50.8518 128.717C43.7654 125.377 38.9835 127.701 38.9835 133.984C39.0763 137.319 40.2018 140.58 42.2549 143.463C44.308 146.347 47.2219 148.759 50.7251 150.475C52.6272 151.432 54.7871 151.994 57.0165 152.112L58.042 155.357C55.4462 155.186 52.9378 154.512 50.7251 153.391C41.5069 149.036 35.4115 140.268 35.4115 132.329C35.4115 124.389 41.5646 121.511 50.8518 125.894C59.828 130.118 65.9465 138.575 65.9465 146.12ZM54.5621 141.595C54.5845 140.402 54.228 139.225 53.5273 138.178C52.8266 137.131 51.8055 136.25 50.5638 135.621C48.2592 134.521 46.6115 135.292 46.6115 137.851C46.5819 139.046 46.93 140.226 47.6223 141.279C48.3146 142.332 49.3277 143.222 50.5638 143.862C52.8683 144.925 54.5621 144.238 54.5621 141.595Z" fill="#CCE6FF"/>
<g opacity="0.9">
<path d="M65.9465 146.12C65.9465 151.51 63.3309 153.344 59.4132 151.491C58.3324 150.989 57.3874 150.313 56.6349 149.505C55.8824 148.696 55.338 147.772 55.0346 146.788C53.8823 147.945 52.0963 148.02 49.5843 146.835C45.4592 144.887 42.2098 140.25 42.2098 135.744C42.2098 131.238 45.4247 129.685 49.5843 131.642C51.6951 132.658 53.4001 134.151 54.493 135.941V134.163L58.837 136.214V145.96C58.7723 146.473 58.881 146.99 59.1512 147.456C59.4213 147.922 59.8427 148.319 60.3695 148.603C61.8329 149.299 62.7317 148.123 62.7317 144.633C62.7317 138.528 57.9383 132.056 50.8518 128.717C43.7654 125.377 38.9835 127.701 38.9835 133.984C39.0763 137.319 40.2018 140.58 42.2549 143.463C44.308 146.347 47.2219 148.759 50.7251 150.475C52.6272 151.432 54.7871 151.994 57.0165 152.112L58.042 155.357C55.4462 155.186 52.9378 154.512 50.7251 153.391C41.5069 149.036 35.4115 140.268 35.4115 132.329C35.4115 124.389 41.5646 121.511 50.8518 125.894C59.828 130.118 65.9465 138.575 65.9465 146.12ZM54.5621 141.595C54.5845 140.402 54.228 139.225 53.5273 138.178C52.8266 137.131 51.8055 136.25 50.5638 135.621C48.2592 134.521 46.6115 135.292 46.6115 137.851C46.5819 139.046 46.93 140.226 47.6223 141.279C48.3146 142.332 49.3277 143.222 50.5638 143.862C52.8683 144.925 54.5621 144.238 54.5621 141.595Z" fill="white"/>
</g>
<path d="M83.6338 194.331L37.8082 172.695C37.2816 172.395 36.6707 172.208 36.0321 172.152C35.3936 172.096 34.7481 172.173 34.1555 172.375C34.0302 172.422 33.9106 172.479 33.7983 172.544L23.8312 177.314H23.9003C22.6444 177.897 21.8493 179.251 21.8493 181.18V222.778C21.8493 226.306 24.465 230.388 27.7028 231.912L73.5284 253.549C74.1087 253.894 74.8011 254.092 75.5187 254.117C76.2364 254.142 76.947 253.993 77.5614 253.69L77.4807 253.746L87.3787 248.996C88.6692 248.44 89.4873 247.114 89.4873 245.092V203.456C89.4873 199.938 86.9178 195.855 83.6338 194.331Z" fill="#CCE6FF"/>
<path d="M87.8511 198.273C86.9272 196.661 85.4655 195.295 83.6338 194.331L37.8082 172.695C37.2816 172.395 36.6707 172.208 36.0322 172.152C35.3936 172.096 34.7481 172.173 34.1555 172.375C34.0303 172.422 33.9107 172.479 33.7983 172.544L23.8312 177.314C24.4395 177.057 25.1229 176.942 25.8059 176.982C26.489 177.022 27.1454 177.215 27.7029 177.539L73.5285 199.176C75.4229 200.187 76.9225 201.62 77.8495 203.305L87.8511 198.273Z" fill="#CCE6FF"/>
<path d="M79.382 249.899C79.382 251.78 78.6445 253.088 77.4807 253.709L87.3787 248.958C88.6692 248.403 89.4873 247.077 89.4873 245.054V203.456C89.4385 201.648 88.8785 199.874 87.8511 198.273L77.8494 203.296C78.8095 204.85 79.3331 206.56 79.382 208.301V249.899Z" fill="#CCE6FF"/>
<path opacity="0.3" d="M87.8511 198.273C86.9272 196.661 85.4655 195.295 83.6338 194.331L37.8082 172.695C37.2816 172.395 36.6707 172.208 36.0322 172.152C35.3936 172.096 34.7481 172.173 34.1555 172.375C34.0303 172.422 33.9107 172.479 33.7983 172.544L23.8312 177.314C24.4395 177.057 25.1229 176.942 25.8059 176.982C26.489 177.022 27.1454 177.215 27.7029 177.539L73.5285 199.176C75.4229 200.187 76.9225 201.62 77.8495 203.305L87.8511 198.273Z" fill="black"/>
<path opacity="0.6" d="M79.382 249.899C79.382 251.78 78.6445 253.088 77.4807 253.709L87.3787 248.958C88.6692 248.403 89.4873 247.077 89.4873 245.054V203.456C89.4385 201.648 88.8785 199.874 87.8511 198.273L77.8494 203.296C78.8095 204.85 79.3331 206.56 79.382 208.301V249.899Z" fill="black"/>
<path d="M45.4938 212.929L34.4436 198.273V218.131L45.4938 212.929Z" fill="#CCE6FF"/>
<path d="M55.7605 217.153L66.7877 232.74V212.91L55.7605 217.153Z" fill="#CCE6FF"/>
<path d="M36.1144 197.605L47.4642 212.656C47.5122 212.689 47.5549 212.727 47.5909 212.769C47.6009 212.806 47.6009 212.845 47.5909 212.882L50.9671 217.36L53.8247 216.259C53.8692 216.22 53.9195 216.185 53.9745 216.156C54.0871 216.102 54.2132 216.07 54.3432 216.061L65.8659 211.65L36.1144 197.605Z" fill="#CCE6FF"/>
<path d="M54.0897 217.792L51.0017 218.978C50.8827 219.023 50.7526 219.045 50.6214 219.043C50.4624 219.045 50.3056 219.013 50.1663 218.95C50.0269 218.887 49.9098 218.796 49.8264 218.686L46.4502 214.208L35.3654 219.438L65.1976 233.493L54.0897 217.792Z" fill="#CCE6FF"/>
<g opacity="0.9">
<path d="M45.4938 212.929L34.4436 198.273V218.131L45.4938 212.929Z" fill="white"/>
<path d="M55.7605 217.153L66.7877 232.74V212.91L55.7605 217.153Z" fill="white"/>
<path d="M36.1144 197.605L47.4642 212.656C47.5122 212.689 47.5549 212.727 47.5909 212.769C47.6009 212.806 47.6009 212.845 47.5909 212.882L50.9671 217.36L53.8247 216.259C53.8692 216.22 53.9195 216.185 53.9745 216.156C54.0871 216.102 54.2132 216.07 54.3432 216.062L65.8659 211.65L36.1144 197.605Z" fill="white"/>
<path d="M54.0897 217.792L51.0017 218.978C50.8827 219.023 50.7526 219.045 50.6214 219.044C50.4624 219.045 50.3056 219.013 50.1663 218.95C50.0269 218.888 49.9098 218.797 49.8264 218.686L46.4502 214.208L35.3654 219.439L65.1976 233.493L54.0897 217.792Z" fill="white"/>
</g>
<path d="M83.6338 46.1506L37.8082 24.5143C37.2816 24.2143 36.6707 24.0276 36.0321 23.9717C35.3936 23.9158 34.7481 23.9924 34.1555 24.1945C34.0302 24.2417 33.9106 24.2984 33.7983 24.3638L23.8312 29.1332H23.9003C22.6444 29.7071 21.8493 31.0711 21.8493 32.9995V74.5977C21.8493 78.1159 24.465 82.208 27.7028 83.7319L73.5284 105.368C74.1087 105.714 74.8011 105.912 75.5187 105.937C76.2364 105.962 76.947 105.813 77.5614 105.509L77.4807 105.556L87.3787 100.853C88.6692 100.298 89.4873 98.9714 89.4873 96.9489V55.2473C89.4873 51.729 86.9178 47.637 83.6338 46.1506Z" fill="#CCE6FF"/>
<path d="M87.8511 50.064C86.9274 48.45 85.4659 47.0808 83.6338 46.113L37.8082 24.5143C37.2816 24.2143 36.6707 24.0276 36.0322 23.9717C35.3936 23.9158 34.7481 23.9924 34.1555 24.1945C34.0303 24.2417 33.9107 24.2984 33.7983 24.3638L23.8312 29.1332C24.4395 28.8764 25.1229 28.7616 25.8059 28.8014C26.489 28.8413 27.1454 29.0342 27.7029 29.359L73.5285 50.9953C75.4229 52.0062 76.9225 53.4394 77.8495 55.125L87.8511 50.064Z" fill="#CCE6FF"/>
<path d="M79.382 101.652C79.382 103.534 78.6445 104.841 77.4807 105.415L87.3787 100.712C88.6692 100.157 89.4873 98.8303 89.4873 96.8078V55.2473C89.4385 53.4396 88.8785 51.6657 87.8511 50.064L77.8494 55.0873C78.8095 56.6418 79.3331 58.3515 79.382 60.0919V101.652Z" fill="#CCE6FF"/>
<path opacity="0.3" d="M87.8511 50.064C86.9274 48.45 85.4659 47.0808 83.6338 46.113L37.8082 24.5143C37.2816 24.2143 36.6707 24.0276 36.0322 23.9717C35.3936 23.9158 34.7481 23.9924 34.1555 24.1945C34.0303 24.2417 33.9107 24.2984 33.7983 24.3638L23.8312 29.1332C24.4395 28.8764 25.1229 28.7616 25.8059 28.8014C26.489 28.8413 27.1454 29.0342 27.7029 29.359L73.5285 50.9953C75.4229 52.0062 76.9225 53.4394 77.8495 55.125L87.8511 50.064Z" fill="black"/>
<path opacity="0.6" d="M79.382 101.652C79.382 103.534 78.6445 104.841 77.4807 105.415L87.3787 100.712C88.6692 100.157 89.4873 98.8303 89.4873 96.8078V55.2473C89.4385 53.4396 88.8785 51.6657 87.8511 50.064L77.8494 55.0873C78.8095 56.6418 79.3331 58.3515 79.382 60.0919V101.652Z" fill="black"/>
<path d="M64.3909 83.7789C62.628 81.4083 60.8535 79.0753 59.0905 76.6859C58.8109 76.2333 58.42 75.8327 57.9422 75.509C57.4644 75.1853 56.91 74.9454 56.3136 74.8045C55.4609 74.6634 54.6082 74.5035 53.7325 74.2965C53.4206 74.1903 53.1583 74.0058 52.9835 73.7697C50.0987 69.7389 47.8053 65.4448 46.1506 60.9761C46.1154 60.8806 46.1054 60.78 46.1213 60.6811C46.1372 60.5822 46.1786 60.4871 46.2428 60.4023C46.7843 59.9601 47.395 59.5556 47.9481 59.1605C48.5012 58.7654 48.7893 57.8529 48.386 56.6676C47.5333 54.1559 46.7152 51.6443 45.8625 49.142C45.6975 48.431 45.3061 47.768 44.7276 47.2198C44.1491 46.6715 43.4039 46.2573 42.567 46.0188C40.7089 45.5971 38.7362 45.6562 36.9209 46.1881C36.218 46.4045 35.8493 46.9219 35.8378 47.8156C36.1374 49.5371 36.3333 51.2397 36.7366 52.9895C39.5788 65.6075 46.4156 77.2096 57.2469 87.7957C57.5297 88.1467 57.9096 88.4386 58.3559 88.6478C58.8022 88.8569 59.3025 88.9775 59.8165 88.9998C61.6097 88.965 63.3324 88.423 64.6905 87.4664C65.7161 86.7139 65.6123 85.3781 64.3909 83.7789Z" fill="#CCE6FF"/>
<path d="M64.2527 70.957C64.0117 68.2512 63.0982 65.6138 61.5679 63.2056C60.4254 61.3243 58.9715 59.5802 57.2469 58.0223C56.7976 57.6084 56.4173 57.4767 56.1869 57.7871C55.9564 58.0976 56.1869 58.5397 56.6247 58.9442L57.0741 59.3675C60.259 62.3689 62.2661 66.082 62.8354 70.0257C62.8298 70.3134 62.8646 70.6006 62.9391 70.8818C63.0839 71.2053 63.3163 71.4979 63.619 71.7378C63.861 71.8789 64.1375 71.7378 64.3334 71.7378C64.2643 71.3521 64.2758 71.1546 64.2527 70.957Z" fill="#CCE6FF"/>
<path d="M53.8132 63.2339C55.2602 64.5332 56.1394 66.1871 56.3136 67.9374C56.3895 68.2035 56.5097 68.4599 56.6708 68.6994C57.3737 69.1697 57.7194 69.0098 57.7194 68.4172C57.473 66.173 56.3362 64.0558 54.4815 62.3872C54.0437 62.0203 53.6865 61.9075 53.4791 62.2179C53.4044 62.3951 53.3964 62.5865 53.4559 62.7676C53.5155 62.9486 53.6399 63.111 53.8132 63.2339Z" fill="#CCE6FF"/>
<g opacity="0.9">
<path d="M64.3909 83.7789C62.628 81.4083 60.8535 79.0753 59.0905 76.6859C58.8109 76.2333 58.42 75.8327 57.9422 75.509C57.4644 75.1853 56.91 74.9454 56.3136 74.8045C55.4609 74.6634 54.6082 74.5035 53.7325 74.2965C53.4206 74.1903 53.1583 74.0058 52.9835 73.7697C50.0987 69.7389 47.8053 65.4448 46.1506 60.9761C46.1154 60.8806 46.1054 60.78 46.1213 60.6811C46.1372 60.5822 46.1786 60.4871 46.2428 60.4023C46.7843 59.9601 47.395 59.5556 47.9481 59.1605C48.5012 58.7654 48.7893 57.8529 48.386 56.6676C47.5333 54.1559 46.7152 51.6443 45.8625 49.142C45.6975 48.431 45.3061 47.768 44.7276 47.2198C44.1491 46.6715 43.4039 46.2573 42.567 46.0188C40.7089 45.5971 38.7362 45.6562 36.9209 46.1881C36.218 46.4045 35.8493 46.9219 35.8378 47.8156C36.1374 49.5371 36.3333 51.2397 36.7366 52.9895C39.5788 65.6075 46.4156 77.2096 57.2469 87.7957C57.5297 88.1467 57.9096 88.4386 58.3559 88.6478C58.8022 88.8569 59.3025 88.9775 59.8165 88.9998C61.6097 88.965 63.3324 88.423 64.6905 87.4664C65.7161 86.7139 65.6123 85.3781 64.3909 83.7789Z" fill="white"/>
<path d="M64.2527 70.957C64.0116 68.2512 63.0981 65.6138 61.5679 63.2056C60.4254 61.3243 58.9714 59.5802 57.2469 58.0223C56.7975 57.6084 56.4173 57.4767 56.1868 57.7871C55.9564 58.0976 56.1868 58.5397 56.6247 58.9442L57.074 59.3675C60.2589 62.3689 62.2661 66.082 62.8354 70.0257C62.8297 70.3134 62.8645 70.6006 62.9391 70.8818C63.0838 71.2053 63.3162 71.4979 63.6189 71.7378C63.8609 71.8789 64.1374 71.7378 64.3333 71.7378C64.2642 71.3521 64.2757 71.1546 64.2527 70.957Z" fill="white"/>
<path d="M53.8132 63.2339C55.2601 64.5332 56.1394 66.1871 56.3136 67.9374C56.3895 68.2035 56.5097 68.4599 56.6708 68.6994C57.3737 69.1697 57.7194 69.0098 57.7194 68.4172C57.473 66.173 56.3361 64.0558 54.4815 62.3872C54.0436 62.0203 53.6864 61.9075 53.479 62.2179C53.4044 62.3951 53.3964 62.5865 53.4559 62.7676C53.5154 62.9486 53.6398 63.111 53.8132 63.2339Z" fill="white"/>
</g>
<path d="M318.754 21.203L329.55 26.217V23.0938C329.55 22.8774 329.55 22.6517 329.55 22.4353C329.55 22.219 329.55 22.012 329.55 21.805V21.6922C329.942 17.5624 333.779 15.9726 338.457 18.1833C340.575 19.2468 342.391 20.6677 343.781 22.3507C344.83 16.7064 350.441 14.7121 357.228 17.9011C364.764 21.457 370.871 30.1303 370.871 37.2044V43.8835C370.86 44.4177 371.021 44.9449 371.339 45.4122C371.656 45.8794 372.119 46.2703 372.68 46.5457L379.04 49.5842C380.413 50.2486 381.551 51.1926 382.343 52.3238C383.134 53.455 383.553 54.7346 383.557 56.0374C383.557 56.5779 383.383 57.1089 383.052 57.577C382.721 58.045 382.244 58.4336 381.671 58.7035C381.097 58.9734 380.447 59.1151 379.785 59.1145C379.122 59.1138 378.472 58.9707 377.9 58.6996L318.915 30.8641C317.35 30.1222 316.051 29.0589 315.145 27.7799C314.239 26.501 313.759 25.0508 313.753 23.5736C313.752 23.0954 313.906 22.6255 314.198 22.211C314.49 21.7965 314.91 21.4519 315.417 21.2118C315.923 20.9717 316.498 20.8445 317.084 20.8429C317.669 20.8414 318.245 20.9655 318.754 21.203Z" fill="#E6E6E6"/>
<path d="M401.06 19.8953L408.907 23.5734V21.2781C408.907 21.1182 408.907 20.9583 408.907 20.7983C408.907 20.6384 408.907 20.4879 408.907 20.3374V20.2809C409.195 17.2801 411.984 16.123 415.383 17.7316C416.922 18.5016 418.242 19.5311 419.254 20.7513C420.026 16.6686 424.105 15.1917 429.037 17.5153C434.522 20.1022 438.958 26.3861 438.958 31.5506V36.4141C438.962 36.7953 439.088 37.1692 439.322 37.499C439.556 37.8288 439.891 38.1033 440.295 38.2955L444.904 40.5062C445.907 40.9877 446.738 41.6753 447.314 42.5005C447.89 43.3258 448.191 44.2598 448.188 45.2097C448.187 45.5988 448.062 45.9809 447.825 46.3186C447.589 46.6562 447.248 46.9376 446.838 47.1351C446.427 47.3326 445.961 47.4394 445.484 47.4449C445.008 47.4504 444.538 47.3544 444.12 47.1664L401.175 26.9223C400.037 26.3849 399.092 25.6127 398.435 24.6832C397.778 23.7537 397.431 22.6994 397.43 21.6262C397.43 21.2788 397.541 20.9373 397.752 20.6359C397.963 20.3344 398.268 20.0836 398.635 19.9084C399.003 19.7332 399.42 19.6397 399.846 19.6374C400.271 19.6351 400.69 19.724 401.06 19.8953Z" fill="#E6E6E6"/>
</svg>
