<svg width="135" height="135" viewBox="0 0 135 135" fill="none" xmlns="http://www.w3.org/2000/svg">
<path d="M61.9716 112.212L83.5605 111.325L95.3497 125.653L66.2358 128.19L61.9716 112.212Z" fill="white" stroke="#263238" stroke-linecap="round" stroke-linejoin="round"/>
<path d="M66.3318 122.078L89.6689 120.452L91.2076 122.39L66.9804 124.231L66.3318 122.078Z" stroke="#263238" stroke-width="0.5" stroke-linecap="round" stroke-linejoin="round"/>
<path d="M65.6309 119.751L87.9964 118.344L88.7091 119.242L65.9305 120.743L65.6309 119.751Z" stroke="#263238" stroke-width="0.5" stroke-linecap="round" stroke-linejoin="round"/>
<path d="M65.0636 117.869L86.6351 116.627L87.2954 117.459L65.337 118.78L65.0636 117.869Z" stroke="#263238" stroke-width="0.5" stroke-linecap="round" stroke-linejoin="round"/>
<path d="M63.6063 113.032L83.1068 112.183L86.0272 115.862L64.8106 117.029L63.6063 113.032Z" stroke="#263238" stroke-width="0.5" stroke-linecap="round" stroke-linejoin="round"/>
<path d="M64.5836 116.275L85.4773 115.17L86.0271 115.862L64.8105 117.029L64.5836 116.275Z" fill="#D1D1D1" stroke="#263238" stroke-width="0.5" stroke-linecap="round" stroke-linejoin="round"/>
<path d="M78.9559 121.159L78.2607 119.929L88.7091 119.242L89.669 120.452" stroke="#263238" stroke-width="0.5" stroke-linecap="round" stroke-linejoin="round"/>
<path d="M66.5558 122.82L90.2012 121.121L90.6492 121.683L66.7449 123.445L66.5558 122.82Z" fill="#D1D1D1" stroke="#263238" stroke-width="0.5" stroke-linecap="round" stroke-linejoin="round"/>
<path d="M75.3868 123.53L75.0581 122.829" stroke="#263238" stroke-width="0.5" stroke-linecap="round" stroke-linejoin="round"/>
<path d="M71.9545 123.239L73.6503 123.114L73.8306 123.524L72.1232 123.655L71.9545 123.239Z" fill="#D1D1D1" stroke="#263238" stroke-width="0.5" stroke-linecap="round" stroke-linejoin="round"/>
<path d="M78.5749 121.939L78.1938 121.246" stroke="#263238" stroke-width="0.5" stroke-linecap="round" stroke-linejoin="round"/>
<path d="M73.5572 122.299L73.243 121.59" stroke="#263238" stroke-width="0.5" stroke-linecap="round" stroke-linejoin="round"/>
<path d="M84.7444 119.501L85.6083 120.726" stroke="#263238" stroke-width="0.5" stroke-linecap="round" stroke-linejoin="round"/>
<path d="M82.1847 119.67L82.9875 120.909" stroke="#263238" stroke-width="0.5" stroke-linecap="round" stroke-linejoin="round"/>
<path d="M79.3457 119.85L78.8076 118.94" stroke="#263238" stroke-width="0.5" stroke-linecap="round" stroke-linejoin="round"/>
<path d="M73.8918 120.223L72.5886 117.451" stroke="#263238" stroke-width="0.5" stroke-linecap="round" stroke-linejoin="round"/>
<path d="M87.9963 118.343L87.2953 117.459L72.9871 118.32" stroke="#263238" stroke-width="0.5" stroke-linecap="round" stroke-linejoin="round"/>
<path d="M82.653 118.675L82.0654 117.802" stroke="#263238" stroke-width="0.5" stroke-linecap="round" stroke-linejoin="round"/>
<path d="M84.9567 114.548L64.3684 115.598" stroke="#263238" stroke-width="0.5" stroke-linecap="round" stroke-linejoin="round"/>
<path d="M84.4883 113.96L64.1735 114.958" stroke="#263238" stroke-width="0.5" stroke-linecap="round" stroke-linejoin="round"/>
<path d="M84.0375 113.39L63.9873 114.338" stroke="#263238" stroke-width="0.5" stroke-linecap="round" stroke-linejoin="round"/>
<path d="M80.9106 114.292L81.5709 114.26L81.7716 114.539L81.1055 114.571L80.9106 114.292Z" fill="#D1D1D1" stroke="#263238" stroke-width="0.5" stroke-linecap="round" stroke-linejoin="round"/>
<path d="M77.0536 114.484L77.7313 114.449L77.9088 114.734L77.2281 114.769L77.0536 114.484Z" fill="#D1D1D1" stroke="#263238" stroke-width="0.5" stroke-linecap="round" stroke-linejoin="round"/>
<path d="M79.3457 113.785L80.006 113.753L80.1951 114.027L79.5319 114.059L79.3457 113.785Z" fill="#D1D1D1" stroke="#263238" stroke-width="0.5" stroke-linecap="round" stroke-linejoin="round"/>
<path d="M75.6836 113.96L76.3584 113.928L76.5242 114.207L75.8465 114.239L75.6836 113.96Z" fill="#D1D1D1" stroke="#263238" stroke-width="0.5" stroke-linecap="round" stroke-linejoin="round"/>
<path d="M72.1057 114.132L72.7951 114.1L72.9376 114.382L72.2453 114.414L72.1057 114.132Z" fill="#D1D1D1" stroke="#263238" stroke-width="0.5" stroke-linecap="round" stroke-linejoin="round"/>
<path d="M68.3971 114.309L69.0981 114.277L69.2203 114.562L68.5134 114.597L68.3971 114.309Z" fill="#D1D1D1" stroke="#263238" stroke-width="0.5" stroke-linecap="round" stroke-linejoin="round"/>
<path d="M80.5935 114.146L80.1892 113.567" stroke="#263238" stroke-width="0.5" stroke-linecap="round" stroke-linejoin="round"/>
<path d="M77.0012 114.321L76.6405 113.733" stroke="#263238" stroke-width="0.5" stroke-linecap="round" stroke-linejoin="round"/>
<path d="M73.3304 114.501L73.0192 113.905" stroke="#263238" stroke-width="0.5" stroke-linecap="round" stroke-linejoin="round"/>
<path d="M69.5781 114.687L69.3163 114.079" stroke="#263238" stroke-width="0.5" stroke-linecap="round" stroke-linejoin="round"/>
<path d="M83.5896 112.826L63.8041 113.724" stroke="#263238" stroke-width="0.5" stroke-linecap="round" stroke-linejoin="round"/>
<path d="M81.3324 113.096L81.9752 113.067L82.1701 113.329L81.5273 113.361L81.3324 113.096Z" fill="#D1D1D1" stroke="#263238" stroke-width="0.5" stroke-linecap="round" stroke-linejoin="round"/>
<path d="M75.3403 113.372L76.0035 113.34L76.1664 113.611L75.4974 113.643L75.3403 113.372Z" fill="#D1D1D1" stroke="#263238" stroke-width="0.5" stroke-linecap="round" stroke-linejoin="round"/>
<path d="M71.8091 113.532L72.4868 113.503L72.6293 113.777L71.9458 113.809L71.8091 113.532Z" fill="#D1D1D1" stroke="#263238" stroke-width="0.5" stroke-linecap="round" stroke-linejoin="round"/>
<path d="M67.1521 113.748L67.8502 113.716L67.9607 113.995L67.2597 114.027L67.1521 113.748Z" fill="#D1D1D1" stroke="#263238" stroke-width="0.5" stroke-linecap="round" stroke-linejoin="round"/>
<path d="M82.5657 113.442L82.1498 112.89" stroke="#263238" stroke-width="0.5" stroke-linecap="round" stroke-linejoin="round"/>
<path d="M76.6347 113.724L76.2915 113.157" stroke="#263238" stroke-width="0.5" stroke-linecap="round" stroke-linejoin="round"/>
<path d="M73.0132 113.893L72.7136 113.32" stroke="#263238" stroke-width="0.5" stroke-linecap="round" stroke-linejoin="round"/>
<path d="M68.3127 114.117L68.0742 113.532" stroke="#263238" stroke-width="0.5" stroke-linecap="round" stroke-linejoin="round"/>
<path d="M83.0282 125.025L82.9323 124.865L83.6187 124.81L83.2057 124.138L83.5344 124.112L84.5088 125.688L83.3075 125.79L83.2115 125.624L84.0841 125.551L83.7263 124.97L83.0282 125.025Z" fill="#263238"/>
<path d="M82.8333 125.432C82.9816 125.679 82.8333 125.86 82.3795 125.9C81.9257 125.941 81.5825 125.799 81.4429 125.549L80.9775 124.722C80.8437 124.487 80.9775 124.312 81.44 124.277C81.9025 124.242 82.2108 124.376 82.3475 124.612L82.8333 125.432ZM82.0159 124.629C81.9633 124.552 81.889 124.493 81.8026 124.458C81.7161 124.424 81.6213 124.415 81.5301 124.434C81.2887 124.452 81.2247 124.545 81.3062 124.688L81.7861 125.528C81.8386 125.609 81.9141 125.671 82.0029 125.708C82.0916 125.745 82.1895 125.754 82.2835 125.735C82.5249 125.714 82.5919 125.615 82.5075 125.47L82.0159 124.629Z" fill="#263238"/>
<path d="M80.6547 126.014C80.1689 126.055 79.8955 125.938 79.7675 125.694L79.6948 125.563C79.6017 125.386 79.6599 125.272 79.8984 125.199C79.7872 125.206 79.6763 125.183 79.5774 125.132C79.4785 125.081 79.3954 125.003 79.337 124.909L79.2061 124.664C79.1732 124.588 79.1173 124.524 79.0461 124.481L79.3865 124.452C79.4557 124.498 79.5102 124.562 79.5435 124.638L79.6773 124.885C79.7762 125.066 79.9682 125.109 80.2591 125.086L80.4976 125.069L80.1282 124.397L80.4598 124.368L81.3528 125.967L80.6547 126.014ZM80.3144 125.237C80.0468 125.261 79.91 125.319 80.0031 125.496L80.0875 125.65C80.166 125.799 80.3085 125.866 80.5645 125.845L80.899 125.819L80.5674 125.217L80.3144 125.237Z" fill="#263238"/>
<path d="M77.644 124.583L77.9698 124.557L79.1333 125.793L78.4701 124.513L78.761 124.49L79.6045 126.101L79.1217 126.142L77.9582 124.885L78.1181 126.229L77.6295 126.27L76.8412 124.644L77.1612 124.618L77.8011 125.915L77.644 124.583Z" fill="#263238"/>
<path d="M91.3909 122.733L81.8007 123.472" stroke="#263238" stroke-width="0.5" stroke-miterlimit="10"/>
<path d="M79.6976 123.635L73.6823 124.097" stroke="#263238" stroke-width="0.5" stroke-miterlimit="10"/>
<path d="M72.0098 124.228L67.0532 124.609" stroke="#263238" stroke-width="0.5" stroke-miterlimit="10"/>
<path d="M82.0596 66.48C79.9955 67.091 77.9847 67.8693 76.0471 68.8071C72.8475 70.3603 66.5471 72.6874 63.5394 73.8509C60.5317 75.0144 58.6934 78.0191 58.1116 79.4735C57.5299 80.9279 55.008 87.1323 55.008 87.1323C55.008 87.1323 49.6762 95.4718 48.3178 97.5079C46.9594 99.5441 45.1181 102.357 45.0222 104.975C44.9262 107.593 46.3776 109.047 49.7722 109.047C53.1667 109.047 54.6211 107.884 56.2675 106.138C57.9138 104.393 63.2485 95.8587 64.0252 94.89C64.8018 93.9214 66.934 90.236 66.934 90.236C66.934 90.236 68.0015 99.835 68.0015 102.84V109.92H98.5436C98.5436 109.92 99.998 99.2532 100.289 98.3806C100.58 97.5079 102.808 91.2046 102.808 91.2046C102.808 91.2046 110.856 104.198 112.2 105.943C113.544 107.689 117.381 111.365 121.139 109.893C124.897 108.422 124.126 104.39 122.09 99.5441C120.054 94.6981 116.479 86.4546 116.479 86.0619C116.479 85.6692 115.025 79.9535 109.111 75.4914C103.198 71.0294 97.3801 69.9648 96.0217 69.287C94.6633 68.6093 90.3001 66.48 82.0596 66.48Z" fill="#FFE48A" stroke="#263238" stroke-linecap="round" stroke-linejoin="round"/>
<path d="M63.0566 83.9327L66.838 89.8491C66.838 89.8491 63.7343 86.6495 61.7942 86.1637" stroke="#263238" stroke-linecap="round" stroke-linejoin="round"/>
<path d="M66.838 89.8491L64.6069 89.0725C64.6069 89.0725 62.5708 87.909 60.9215 88.3947" stroke="#263238" stroke-linecap="round" stroke-linejoin="round"/>
<path d="M78.4353 75.6921C78.6535 77.2891 79.1567 79.2728 80.3144 80.6371" stroke="#263238" stroke-linecap="round" stroke-linejoin="round"/>
<path d="M78.2782 73.0742C78.2782 73.0742 78.2578 73.6298 78.3102 74.4675" stroke="#263238" stroke-linecap="round" stroke-linejoin="round"/>
<path d="M79.3398 81.8005C79.613 82.0796 79.9045 82.34 80.2125 82.5801" stroke="#263238" stroke-linecap="round" stroke-linejoin="round"/>
<path d="M76.6289 77.4374C77.1584 78.873 77.9395 80.2027 78.9356 81.3642" stroke="#263238" stroke-linecap="round" stroke-linejoin="round"/>
<path d="M95.7803 99.1019C95.12 100.175 94.4946 101.042 93.9856 101.484" stroke="#263238" stroke-linecap="round" stroke-linejoin="round"/>
<path d="M100.676 89.4594C100.676 89.4594 98.4215 94.5555 96.3126 98.1857" stroke="#263238" stroke-linecap="round" stroke-linejoin="round"/>
<path d="M90.7626 102.293C90.4718 102.645 90.2478 102.939 90.1082 103.131" stroke="#263238" stroke-linecap="round" stroke-linejoin="round"/>
<path d="M94.4713 97.8948C94.4713 97.8948 92.6854 99.9716 91.3677 101.58" stroke="#263238" stroke-linecap="round" stroke-linejoin="round"/>
<path d="M102.808 91.2046C102.808 91.2046 107.075 84.4184 107.27 83.8367" stroke="#263238" stroke-linecap="round" stroke-linejoin="round"/>
<path d="M106.072 88.5896C107.34 87.5628 109.245 86.2626 111.147 85.8728" stroke="#263238" stroke-linecap="round" stroke-linejoin="round"/>
<path d="M104.553 89.9451C104.553 89.9451 104.899 89.5874 105.481 89.0725" stroke="#263238" stroke-linecap="round" stroke-linejoin="round"/>
<path d="M109.888 84.8053C108.661 85.445 107.493 86.1916 106.397 87.0363" stroke="#263238" stroke-linecap="round" stroke-linejoin="round"/>
<path d="M111.633 99.1572C112.461 98.7642 113.373 98.5849 114.288 98.6358C115.203 98.6866 116.09 98.9659 116.869 99.4481" stroke="#263238" stroke-linecap="round" stroke-linejoin="round"/>
<path d="M112.506 97.8948C112.506 97.8948 115.897 97.217 118.419 98.7674" stroke="#263238" stroke-linecap="round" stroke-linejoin="round"/>
<path d="M48.8995 99.0583C49.4842 98.5283 50.1776 98.1324 50.9313 97.8983C51.6849 97.6641 52.4806 97.5974 53.2627 97.7028" stroke="#263238" stroke-linecap="round" stroke-linejoin="round"/>
<path d="M54.9032 97.9297C55.1415 98.0997 55.3707 98.2823 55.5897 98.4765" stroke="#263238" stroke-linecap="round" stroke-linejoin="round"/>
<path d="M52.2941 96.8302C52.8495 96.8995 53.3883 97.0669 53.8852 97.3247" stroke="#263238" stroke-linecap="round" stroke-linejoin="round"/>
<path d="M81.3818 69.0019C81.3818 69.0019 80.5092 72.6874 80.8001 75.4012C81.091 78.1151 84.0957 82.2863 86.6176 83.2549C89.1395 84.2236 93.7907 81.4137 95.4399 79.7644C97.0892 78.1151 97.1852 72.8793 97.1852 72.8793C97.1852 72.8793 94.672 67.4516 89.3315 65.8983C83.991 64.345 81.3818 69.0019 81.3818 69.0019Z" fill="#ABABAB" stroke="#263238" stroke-linecap="round" stroke-linejoin="round"/>
<path d="M101.432 68.2428C101.432 68.2428 101.938 69.7583 100.964 71.6751C99.9892 73.592 98.1072 75.2122 97.6011 75.0464C97.095 74.8806 99.1748 67.9432 99.1748 67.9432C99.1748 67.9432 100.556 67.1665 101.432 68.2428Z" fill="#ABABAB" stroke="#263238" stroke-linecap="round" stroke-linejoin="round"/>
<path d="M80.0409 62.7045C80.0409 62.7045 79.0839 63.9814 79.4009 66.1106C79.718 68.2399 80.9979 70.3662 81.5302 70.3662C82.0625 70.3662 82.2748 63.1321 82.2748 63.1321C82.2748 63.1321 81.2102 61.9598 80.0409 62.7045Z" fill="#ABABAB" stroke="#263238" stroke-linecap="round" stroke-linejoin="round"/>
<path d="M81.6378 65.4707C81.6378 65.4707 80.8932 71.9631 81.7425 74.6246C82.5919 77.2861 84.2964 81.4341 86.9579 82.4987C89.6195 83.5633 95.6843 78.9878 96.6413 77.1785C97.5982 75.3693 100.26 67.7075 100.26 67.7075C100.96 66.7758 101.414 65.6832 101.582 64.5301C101.75 63.3769 101.625 62.2 101.22 61.1075C99.8351 57.2767 92.3857 54.9351 89.2937 55.0427C86.2017 55.1504 83.1213 57.7043 82.9089 59.7259C82.6966 61.7475 81.6378 65.4707 81.6378 65.4707Z" fill="#ABABAB" stroke="#263238" stroke-linecap="round" stroke-linejoin="round"/>
<path d="M88.5549 69.4091C88.5549 69.4091 86.2133 66.5353 84.0841 67.4952" stroke="#263238" stroke-width="2" stroke-linecap="round" stroke-linejoin="round"/>
<path d="M92.2781 70.6861C92.2781 70.6861 95.4777 69.9415 96.9612 71.326" stroke="#263238" stroke-width="2" stroke-linecap="round" stroke-linejoin="round"/>
<path d="M84.4041 70.0491C84.4041 70.0491 85.0876 72.0852 87.8626 71.8496" stroke="#263238" stroke-linecap="round" stroke-linejoin="round"/>
<path d="M92.0658 72.92C92.0658 72.92 92.7057 74.3046 95.6843 73.7723" stroke="#263238" stroke-linecap="round" stroke-linejoin="round"/>
<path d="M86.8212 74.8573C86.7269 75.2883 86.7888 75.7388 86.9957 76.1284C87.3419 76.6491 88.2087 77.3996 88.8457 77.3996C89.4827 77.3996 90.8121 77.1698 91.1582 76.8178C91.3803 76.5898 91.5755 76.337 91.74 76.0644" stroke="#263238" stroke-linecap="round" stroke-linejoin="round"/>
<path d="M85.3756 76.7654C85.3756 76.7654 86.83 78.4409 88.0371 78.8452C89.2443 79.2495 91.5044 78.5543 92.1414 78.3245" stroke="#263238" stroke-linecap="round" stroke-linejoin="round"/>
<path d="M106.453 58.1464C106.354 57.4483 106.851 56.4506 106.95 55.8543C107.049 55.258 106.252 54.1585 105.557 53.2626C105.019 52.5454 104.737 51.6687 104.757 50.7727C104.757 50.1734 104.062 49.676 103.462 49.2775C102.734 48.7926 102.065 48.2234 101.47 47.5817C101.071 47.0843 99.3784 47.1832 99.0788 47.1832C98.7792 47.1832 97.4848 46.0895 96.6878 45.691C95.8908 45.2925 94.2968 45.9819 94.2968 45.9819C94.2968 45.9819 92.4032 45.086 92.0047 45.086C91.6061 45.086 89.9103 45.7841 89.9103 45.7841C89.3488 46.0249 88.764 46.2072 88.1651 46.328C88.0564 46.2997 87.9454 46.2812 87.8335 46.2728C87.6095 45.9819 85.617 47.1774 85.617 47.1774L83.8252 47.4683L83.1591 48.5474C82.522 48.6172 81.0298 48.8558 80.9251 49.5859C80.7913 50.5167 80.9251 50.9152 80.5266 51.4446C80.1281 51.974 78.6679 51.8431 79.0722 53.0386C79.4766 54.2341 80.3986 55.1649 79.2031 55.831C78.0076 56.4971 77.3444 57.6897 78.0076 58.3529C78.6708 59.0161 79.2031 59.9469 79.0722 60.4792C78.9413 61.0115 78.8046 62.207 79.3369 62.4717C79.8059 62.7434 80.2506 63.0548 80.6662 63.4026L81.3294 64.8569L81.7279 65.7877C81.7279 65.7877 82.3912 63.6614 82.9235 63.3967C83.4558 63.132 82.9235 64.3275 83.9881 64.3275C85.0527 64.3275 86.1115 59.2779 86.8968 59.1441C87.6822 59.0103 90.0965 63.5305 92.4788 63.5305C94.8611 63.5305 97.8047 61.4391 99.0032 61.4391C100.202 61.4391 99.2679 66.4859 99.2679 67.5476C99.2679 68.6093 99.5326 69.671 99.5326 70.0724C99.5326 70.4738 100.862 68.2108 101.793 67.6785C102.049 67.533 102.357 67.3556 102.68 67.152C102.68 67.1985 102.665 67.2247 102.665 67.2247C102.665 67.2247 105.955 65.1304 106.354 64.4352C106.752 63.74 106.453 63.1379 106.453 62.5416C106.453 61.9453 106.851 61.4449 106.95 60.549C107.049 59.6531 106.551 58.8416 106.453 58.1464Z" fill="#263238" stroke="#263238" stroke-linecap="round" stroke-linejoin="round"/>
<path d="M130.808 109.896H2.65002" stroke="#263238" stroke-linecap="round" stroke-linejoin="round"/>
<path d="M116.875 101.417C116.875 101.417 113.242 100.082 110.63 101.126C108.018 102.171 101.886 104.652 97.7117 105.434C93.7953 106.128 89.8146 106.39 85.841 106.217C82.3156 106.086 80.358 106.609 79.5755 107.261C78.7931 107.913 75.9221 111.566 76.181 111.959C76.4399 112.351 76.7308 112.5 78.0106 112.221C78.5196 112.107 79.9682 110.525 79.9682 110.525L82.5861 109.361C82.5861 109.361 79.8461 112.363 80.2358 112.753C80.6256 113.143 81.2801 112.622 81.8037 112.232C82.3272 111.842 83.3686 110.926 83.3686 110.926L85.7189 109.882C85.7189 109.882 83.2231 111.566 83.2231 112.343C83.2231 113.119 83.8311 112.663 84.8666 112.25C85.3575 111.94 85.8251 111.595 86.2657 111.217L88.2291 110.664C89.497 111.326 90.9094 111.661 92.3392 111.642C93.8339 111.635 95.2776 111.097 96.4115 110.123C96.4115 110.123 105.548 111.429 110.115 111.037C114.682 110.644 120.423 111.168 122.774 109.472C125.124 107.776 122.122 103.337 121.86 102.944" fill="#ABABAB"/>
<path d="M116.875 101.417C116.875 101.417 113.242 100.082 110.63 101.126C108.018 102.171 101.886 104.652 97.7117 105.434C93.7953 106.128 89.8146 106.39 85.841 106.217C82.3156 106.086 80.358 106.609 79.5755 107.261C78.7931 107.913 75.9221 111.566 76.181 111.959C76.4399 112.351 76.7308 112.5 78.0106 112.221C78.5196 112.107 79.9682 110.525 79.9682 110.525L82.5861 109.361C82.5861 109.361 79.8461 112.363 80.2358 112.753C80.6256 113.143 81.2801 112.622 81.8037 112.232C82.3272 111.842 83.3686 110.926 83.3686 110.926L85.7189 109.882C85.7189 109.882 83.2231 111.566 83.2231 112.343C83.2231 113.119 83.8311 112.663 84.8666 112.25C85.3575 111.94 85.8251 111.595 86.2657 111.217L88.2291 110.664C89.497 111.326 90.9094 111.661 92.3392 111.642C93.8339 111.635 95.2776 111.097 96.4115 110.123C96.4115 110.123 105.548 111.429 110.115 111.037C114.682 110.644 120.423 111.168 122.774 109.472C125.124 107.776 122.122 103.337 121.86 102.944" stroke="#263238" stroke-linecap="round" stroke-linejoin="round"/>
<path d="M76.786 112.319C76.786 112.319 77.2718 110.92 77.7575 110.312C78.2433 109.704 80.4918 108.247 81.283 107.822C81.5966 107.641 81.9211 107.479 82.2545 107.337" stroke="#263238" stroke-linecap="round" stroke-linejoin="round"/>
<path d="M82.5715 109.35L84.8666 107.822" stroke="#263238" stroke-linecap="round" stroke-linejoin="round"/>
<path d="M85.7042 109.87L87.8451 108.794" stroke="#263238" stroke-linecap="round" stroke-linejoin="round"/>
<path d="M116.875 101.417C114.935 100.955 112.195 100.501 110.63 101.126C108.303 102.054 103.218 104.111 99.1836 105.109C99.7552 105.738 100.086 106.548 100.117 107.398C100.163 108.462 100.017 109.526 99.6868 110.539C102.761 110.885 107.299 111.287 110.109 111.045C114.676 110.653 120.418 111.176 122.768 109.48C125.118 107.785 122.116 103.346 121.855 102.953" fill="#FFE48A"/>
<path d="M116.875 101.417C114.935 100.955 112.195 100.501 110.63 101.126C108.303 102.054 103.218 104.111 99.1836 105.109C99.7552 105.738 100.086 106.548 100.117 107.398C100.163 108.462 100.017 109.526 99.6868 110.539C102.761 110.885 107.299 111.287 110.109 111.045C114.676 110.653 120.418 111.176 122.768 109.48C125.118 107.785 122.116 103.346 121.855 102.953" stroke="#263238" stroke-linecap="round" stroke-linejoin="round"/>
<path d="M47.9687 101.025C48.213 100.364 50.0048 98.7849 52.4162 99.2067C54.8276 99.6284 57.5647 102.307 59.1297 104.367C60.6946 106.426 61.9424 106.985 61.9424 106.985L60.0983 112.619C60.0983 112.619 58.9639 112.346 56.8346 111.805C54.7054 111.264 49.9408 110.56 47.7505 109.879C45.5602 109.198 44.6265 106.842 45.1035 104.643C45.3468 103.421 45.7631 102.24 46.3398 101.135" fill="#FFE48A"/>
<path d="M47.9687 101.025C48.213 100.364 50.0048 98.7849 52.4162 99.2067C54.8276 99.6284 57.5647 102.307 59.1297 104.367C60.6946 106.426 61.9424 106.985 61.9424 106.985L60.0983 112.619C60.0983 112.619 58.9639 112.346 56.8346 111.805C54.7054 111.264 49.9408 110.56 47.7505 109.879C45.5602 109.198 44.6265 106.842 45.1035 104.643C45.3468 103.421 45.7631 102.24 46.3398 101.135" stroke="#263238" stroke-linecap="round" stroke-linejoin="round"/>
<path d="M59.1297 104.367C58.9639 104.152 58.7865 103.93 58.6003 103.704C57.2361 104.248 55.5054 105.251 54.5891 107.02C53.6729 108.788 53.6671 110.248 53.8445 111.179C55.008 111.4 56.0813 111.61 56.8289 111.799C58.9581 112.34 60.0925 112.613 60.0925 112.613L61.9367 106.979C61.9367 106.979 60.6917 106.429 59.1297 104.367Z" fill="#ABABAB" stroke="#263238" stroke-linecap="round" stroke-linejoin="round"/>
<path d="M58.3763 109.87C58.2542 110.743 57.9866 111.741 59.249 112.293C60.5114 112.846 61.768 114.21 62.5621 114.53C63.5226 114.898 64.5267 115.141 65.5494 115.251C66.358 115.304 67.3557 115.568 68.941 115.126C70.5263 114.684 70.4827 114.277 70.4827 114.277C70.4827 114.277 71.4716 114.315 71.9603 114.073C72.449 113.832 72.1058 113.227 71.5124 112.988C70.919 112.75 70.1918 112.43 70.1918 112.43C70.1918 112.43 71.0935 111.598 70.8666 111.391L70.6426 111.185C70.6426 111.185 71.684 111.307 71.7742 110.976C71.8643 110.644 71.2099 109.178 70.9481 107.945C70.6863 106.711 70.1365 106.877 69.133 106.679C68.1295 106.481 66.7623 106.735 64.9589 106.351C63.1555 105.967 60.5434 106.612 59.5108 106.886" fill="#ABABAB"/>
<path d="M58.3763 109.87C58.2542 110.743 57.9866 111.741 59.249 112.293C60.5114 112.846 61.768 114.21 62.5621 114.53C63.5226 114.898 64.5267 115.141 65.5494 115.251C66.358 115.304 67.3557 115.568 68.941 115.126C70.5263 114.684 70.4827 114.277 70.4827 114.277C70.4827 114.277 71.4716 114.315 71.9603 114.073C72.449 113.832 72.1058 113.227 71.5124 112.988C70.919 112.75 70.1918 112.43 70.1918 112.43C70.1918 112.43 71.0935 111.598 70.8666 111.391L70.6426 111.185C70.6426 111.185 71.684 111.307 71.7742 110.976C71.8643 110.644 71.2099 109.178 70.9481 107.945C70.6863 106.711 70.1365 106.877 69.133 106.679C68.1295 106.481 66.7623 106.735 64.9589 106.351C63.1555 105.967 60.5434 106.612 59.5108 106.886" stroke="#263238" stroke-linecap="round" stroke-linejoin="round"/>
<path d="M65.4185 101.478L67.0649 107.296L68.3796 107.921L66.4307 101.185C66.4103 101.113 66.3749 101.047 66.3269 100.99C66.2788 100.933 66.2192 100.888 66.1521 100.856C66.085 100.824 66.0118 100.806 65.9374 100.805C65.8631 100.804 65.7893 100.818 65.721 100.847C65.602 100.897 65.5054 100.989 65.4497 101.105C65.3939 101.222 65.3828 101.354 65.4185 101.478Z" fill="#263238"/>
<path d="M66.3522 106.851C66.3522 106.851 69.2319 108.387 69.4297 108.465C69.5664 108.521 70.8492 110.664 71.2564 111.694C71.4455 112.165 71.2331 112.436 70.791 112.68L70.1947 112.439L66.614 110.184L65.3021 109.559" fill="#ABABAB"/>
<path d="M66.3522 106.851C66.3522 106.851 69.2319 108.387 69.4297 108.465C69.5664 108.521 70.8492 110.664 71.2564 111.694C71.4455 112.165 71.2331 112.436 70.791 112.68L70.1947 112.439L66.614 110.184L65.3021 109.559" stroke="#263238" stroke-linecap="round" stroke-linejoin="round"/>
<path d="M64.3423 111.869C64.3423 111.869 67.1463 113.535 67.7368 113.841C68.3273 114.146 70.4827 114.286 70.4827 114.286" stroke="#263238" stroke-linecap="round" stroke-linejoin="round"/>
<path d="M63.2921 113.506C63.2921 113.506 65.6453 114.803 66.1078 114.961C66.5703 115.118 67.5622 115.391 67.5622 115.391" stroke="#263238" stroke-linecap="round" stroke-linejoin="round"/>
<path d="M45.0717 124.318L55.8109 114.44L32.1509 112.913L45.0717 124.318Z" fill="#CCCCCC" stroke="#263238" stroke-linecap="round" stroke-linejoin="round"/>
<path d="M44.6178 122.329L49.4522 117.747L43.8528 117.41L44.6178 122.329Z" fill="#263238" stroke="#263238" stroke-linecap="round" stroke-linejoin="round"/>
<path d="M11.6905 96.5771L47.1107 98.145L45.0716 124.318L9.34021 122.593L11.6905 96.5771Z" fill="#A6A6A6" stroke="#263238" stroke-linecap="round" stroke-linejoin="round"/>
<path d="M9.49731 120.851C11.5916 120.543 15.1258 119.719 21.0946 117.788C35.304 113.189 37.0929 100.335 47.1107 98.145L11.6905 96.5771L9.49731 120.851Z" fill="#263238" stroke="#263238" stroke-linecap="round" stroke-linejoin="round"/>
<path d="M27.9913 111.935C29.4918 111.935 30.7081 111 30.7081 109.847C30.7081 108.694 29.4918 107.758 27.9913 107.758C26.4909 107.758 25.2745 108.694 25.2745 109.847C25.2745 111 26.4909 111.935 27.9913 111.935Z" fill="white" stroke="#263238" stroke-linecap="round" stroke-linejoin="round"/>
</svg>
