<svg width="92" height="92" viewBox="0 0 92 92" fill="none" xmlns="http://www.w3.org/2000/svg">
<path d="M9.40803 34.3506L9.72222 34.8736C10.0765 35.4619 10.5917 35.9365 11.207 36.2415L11.7568 36.5116L11.2319 36.8277C10.6436 37.1821 10.169 37.6972 9.86399 38.3125L9.59386 38.8681L9.27775 38.3451C8.92713 37.7533 8.41282 37.2756 7.79683 36.9695L7.2489 36.6975L7.77 36.3775C8.35757 36.0249 8.83217 35.5118 9.1379 34.8985L9.40803 34.3506Z" fill="#EBEBEB"/>
<path d="M74.7212 17.2883L75.0373 17.8113C75.3904 18.3998 75.9051 18.8746 76.5201 19.1792L77.07 19.4493L76.545 19.7654C75.9569 20.1193 75.4828 20.6346 75.1791 21.2502L74.907 21.7981L74.5909 21.2732C74.2375 20.6847 73.722 20.2104 73.1062 19.9072L72.5525 19.6351L73.0774 19.3209C73.6656 18.9671 74.1397 18.4517 74.4434 17.8362L74.7212 17.2883Z" fill="#EBEBEB"/>
<path d="M79.0844 55.25L79.2875 55.5891C79.5163 55.9685 79.8486 56.2749 80.2454 56.4723L80.5998 56.6466L80.2607 56.8497C79.8817 57.0792 79.5755 57.4113 79.3775 57.8076L79.2032 58.162L79.0001 57.8344C78.7714 57.4549 78.439 57.1485 78.0422 56.9512L77.6877 56.7769L78.0249 56.5719C78.4055 56.3445 78.7123 56.0118 78.9081 55.614L79.0844 55.25Z" fill="#EBEBEB"/>
<path d="M10.3241 80.2781L10.5272 80.6172C10.7555 80.997 11.088 81.3035 11.4851 81.5004L11.8395 81.6747L11.5004 81.8778C11.1205 82.1061 10.814 82.4385 10.6172 82.8357L10.4409 83.1901L10.2379 82.851C10.0095 82.4712 9.67707 82.1647 9.27996 81.9678L8.92554 81.7935L9.26464 81.5904C9.64525 81.363 9.95197 81.0303 10.1478 80.6325L10.3241 80.2781Z" fill="#EBEBEB"/>
<path d="M81.6878 59.4413L81.9828 59.9318C82.3128 60.4799 82.7928 60.922 83.3661 61.2058L83.8776 61.4587L83.389 61.7518C82.8403 62.0824 82.3976 62.563 82.1131 63.137L81.8621 63.6485L81.5671 63.1599C81.2376 62.6103 80.7567 62.1673 80.182 61.884L79.6724 61.6311L80.1609 61.338C80.7095 61.0079 81.1517 60.5271 81.4349 59.9529L81.6878 59.4413Z" fill="#EBEBEB"/>
<path d="M70.2046 80.14L70.4077 80.4772C70.6351 80.8578 70.9678 81.1645 71.3656 81.3604L71.72 81.5366L71.3809 81.7397C71.0014 81.9686 70.6951 82.3009 70.4977 82.6976L70.3234 83.0521L70.1184 82.713C69.8896 82.3334 69.5573 82.027 69.1605 81.8298L68.806 81.6535L69.1432 81.4504C69.5238 81.223 69.8305 80.8903 70.0264 80.4925L70.2046 80.14Z" fill="#EBEBEB"/>
<path d="M13.5607 38.8072L13.7255 39.0792C13.9079 39.3839 14.1739 39.6299 14.4918 39.7881L14.7753 39.9279L14.5033 40.0927C14.1982 40.2747 13.9521 40.5407 13.7944 40.859L13.6546 41.1426L13.4898 40.8705C13.3073 40.5659 13.0414 40.3199 12.7235 40.1617L12.4399 40.018L12.712 39.8532C13.0162 39.6703 13.2621 39.4045 13.4208 39.0869L13.5607 38.8072Z" fill="#EBEBEB"/>
<path d="M70.0935 23.4637L70.1874 23.6189C70.2923 23.7949 70.446 23.9367 70.63 24.027L70.7928 24.1075L70.6376 24.2013C70.4616 24.3062 70.3198 24.46 70.2296 24.6439L70.1491 24.8067L70.0552 24.6496C69.9497 24.4746 69.7961 24.3336 69.6127 24.2435L69.4498 24.163L69.6069 24.0691C69.782 23.9636 69.923 23.81 70.0131 23.6266L70.0935 23.4637Z" fill="#EBEBEB"/>
<path d="M86.1436 37.478L86.2375 37.6351C86.343 37.8102 86.4966 37.9511 86.68 38.0413L86.8429 38.1217L86.6877 38.2156C86.5121 38.321 86.3704 38.4746 86.2796 38.6582L86.1992 38.821L86.1053 38.6658C85.9999 38.4902 85.8463 38.3486 85.6627 38.2578L85.4999 38.1773L85.657 38.0834C85.832 37.9779 85.973 37.8243 86.0631 37.6409L86.1436 37.478Z" fill="#EBEBEB"/>
<path d="M22.859 21.2655L22.9529 21.4207C23.0578 21.5967 23.2115 21.7385 23.3955 21.8288L23.5583 21.9092L23.4031 22.0031C23.2271 22.108 23.0853 22.2617 22.9951 22.4456L22.9146 22.6085L22.8207 22.4514C22.7152 22.2764 22.5616 22.1354 22.3782 22.0452L22.2153 21.9648L22.3724 21.8709C22.5466 21.7669 22.6876 21.6154 22.7786 21.4341L22.859 21.2655Z" fill="#EBEBEB"/>
<path d="M47.3185 43.1373V43.1401H47.3269L47.3185 43.1373Z" fill="#EBEBEB"/>
<path d="M47.2985 43.1373L47.321 43.1402L47.3041 43.1317L47.2985 43.1373Z" fill="#EBEBEB"/>
<path d="M47.2859 43.1257L47.269 43.1454H47.3113L47.2859 43.1257Z" fill="#EBEBEB"/>
<path d="M47.2576 43.1255L47.2632 43.1199L47.2548 43.1171L47.2576 43.1255Z" fill="#EBEBEB"/>
<path d="M47.2543 43.087L47.2515 43.0899L47.2599 43.0955L47.2543 43.087Z" fill="#EBEBEB"/>
<path d="M47.3133 43.1205L47.3076 43.1261L47.3133 43.1317V43.1205Z" fill="#EBEBEB"/>
<path d="M47.2615 43.1364L47.2592 43.1204L47.1699 43.0929L47.2501 43.1456L47.2615 43.1364Z" fill="#EBEBEB"/>
<path d="M47.2515 43.1153L47.2487 43.135L47.2627 43.1266L47.2515 43.1153Z" fill="#EBEBEB"/>
<path d="M47.3102 43.1153L47.2961 43.1209L47.3046 43.1266L47.3102 43.1153Z" fill="#EBEBEB"/>
<path d="M47.3018 43.1315L47.2961 43.1287L47.299 43.1372L47.3018 43.1315Z" fill="#EBEBEB"/>
<path d="M41.085 0.262474L44.179 21.8001L44.2671 21.7867L47.2788 42.8913L50.2636 21.779H50.3115L53.2849 0.590078C49.2509 -0.0602452 45.1487 -0.173625 41.085 0.252895V0.262474Z" fill="#EBEBEB"/>
<path d="M75.2772 10.615C72.1429 8.00637 68.6755 5.82622 64.9663 4.13184L56.1727 23.5065L56.2206 23.5295L47.3274 43.0708L75.2772 10.615Z" fill="#EBEBEB"/>
<path d="M26.6512 37.0856L47.1198 43.0822H47.0393L47.2309 43.1415H47.2443L47.2558 43.1281L47.2731 43.1415H47.2635L47.2788 43.153H47.2903H47.2999L47.3823 43.1894L47.3152 43.1454L67.9007 49.1725L67.8892 49.2166L90.7525 55.9181C91.4809 52.6358 91.8477 49.2836 91.8465 45.9214C91.8465 44.9635 91.8139 44.0056 91.7545 43.0687H68.7839V43.1071L47.3267 43.13V43.1109L47.4206 43.0841L47.344 43.1339L47.5355 43.0764H47.4436L89.2601 30.6907C87.8772 26.762 85.9648 23.0404 83.5759 19.6287L47.4244 43.0822H47.3497L47.3804 43.0477L47.3267 43.0822L47.3478 42.9672L47.3076 43.0534V43.0822L47.2827 43.1013V43.0822H47.2635V43.0534L47.2309 42.9806L47.2443 43.0745L47.2003 43.0458L47.2213 43.0707H47.1505L9.05828 18.5482C6.43022 22.0796 4.32421 25.971 2.80505 30.1025L26.6512 37.0856ZM47.2712 43.1205V43.1339H47.2616L47.1945 43.0898L47.2712 43.1205Z" fill="#EBEBEB"/>
<path d="M33.1833 26.8555L47.2282 43.0633L38.3216 23.5411L29.0279 3.21625C25.1071 4.77093 21.4196 6.85905 18.0695 9.42157L33.1833 26.8555Z" fill="#EBEBEB"/>
<path d="M65.3733 54.7868L65.3598 54.806L47.3684 43.2211L61.3979 59.404C61.3864 59.4135 61.3769 59.425 61.3635 59.4346L78.056 78.7326C81.2338 75.6195 83.9441 72.0626 86.1024 68.1726L65.3733 54.7868Z" fill="#EBEBEB"/>
<path d="M47.3132 43.1839L47.3076 43.1811L47.3132 43.1867V43.1839Z" fill="#EBEBEB"/>
<path d="M47.2656 43.1433L47.2627 43.1517L47.2487 43.1461L47.2543 43.1686L47.2571 43.1658L47.2543 43.1686L47.2768 43.163L47.2656 43.1545L47.274 43.1461L47.2796 43.1489L47.2768 43.1433L47.2796 43.1376H47.2487L47.2656 43.1433Z" fill="#EBEBEB"/>
<path d="M47.2437 43.1612L47.2476 43.1416L47.2417 43.1376L47.1555 43.1886L47.2437 43.1612Z" fill="#EBEBEB"/>
<path d="M47.1923 43.2279L29.2545 54.8722L29.2124 54.8052L6.50232 69.4957C8.89036 73.4779 11.8652 77.0773 15.3266 80.1725L35.9273 56.3014L47.1923 43.2279Z" fill="#EBEBEB"/>
<path d="M26.6643 49.2299L47.2325 43.1376L0.0842964 43.1874C0.0306535 44.0955 5.57645e-07 45.0094 5.57645e-07 45.929C-0.000565824 49.5656 0.430311 53.1895 1.2836 56.7246L26.6682 49.2338L26.6643 49.2299Z" fill="#EBEBEB"/>
<path d="M47.2225 43.3008L26.9857 87.7784C31.2379 89.7053 35.7609 90.9672 40.3964 91.5199L47.2225 43.3008Z" fill="#EBEBEB"/>
<path d="M47.3161 43.1487L47.3076 43.1544L47.3133 43.1628L47.3161 43.1487Z" fill="#EBEBEB"/>
<path d="M47.339 43.2978L54.1612 91.1147C58.6853 90.295 63.0594 88.7959 67.1351 86.6681L47.339 43.2978Z" fill="#EBEBEB"/>
<path d="M47.2603 43.2185L47.2832 43.3794L47.3043 43.2242L47.2813 43.1725L47.2603 43.2185Z" fill="#EBEBEB"/>
<path d="M47.3097 43.1541L47.3041 43.1569L47.3097 43.1597V43.1541Z" fill="#EBEBEB"/>
<path d="M37.4565 10.7283C36.8358 10.9199 36.2189 11.236 35.8357 11.7648C35.4526 12.2935 35.3395 13.0024 35.3568 13.6691C35.374 14.3358 35.4947 14.9967 35.5005 15.6634C35.5005 16.5658 35.3089 17.4547 35.2457 18.3456C35.1824 19.2364 35.305 20.2097 35.8664 20.9128L40.9644 10.5999C39.8052 10.323 38.5924 10.3674 37.4565 10.7283Z" fill="#263238"/>
<path d="M52.0281 25.2037C52.6392 23.332 53.2408 21.4449 53.5186 19.4946C53.7964 17.5443 53.7408 15.5135 53.055 13.6667C52.9515 13.387 52.0645 11.5095 51.7675 11.5382C51.5549 11.5593 52.1009 13.3104 51.9936 13.4943C50.9686 15.2549 50.6889 17.37 50.8441 19.4007C51.0204 21.3728 51.4156 23.3191 52.0223 25.2037" fill="#263238"/>
<path d="M40.94 37.0926C40.9266 35.7018 40.9784 33.625 40.9688 33.625C40.9592 33.625 36.1946 33.1403 35.8861 28.4121C35.7367 26.1265 35.8114 21.4002 35.9283 17.1202C35.9896 14.9017 36.8838 12.7876 38.4329 11.1983C39.9821 9.60909 42.0727 8.66117 44.2889 8.54313L44.7468 8.52014C49.6857 8.54696 52.4215 12.756 52.2587 17.6931L52.002 36.8991L48.883 38.9701C46.2105 42.1542 40.9535 41.25 40.94 37.0926Z" fill="#FFBE9D"/>
<path d="M40.9397 33.6245C40.9397 33.6245 43.9322 33.6417 47.0052 31.4769C47.0052 31.4769 45.6852 34.9981 40.9416 34.8219L40.9397 33.6245Z" fill="#EB996E"/>
<path d="M37.7285 20.7408C37.7365 20.917 37.8127 21.0831 37.9411 21.204C38.0695 21.3249 38.24 21.391 38.4163 21.3883C38.5028 21.3906 38.5888 21.3756 38.6694 21.3441C38.75 21.3126 38.8234 21.2652 38.8854 21.2049C38.9473 21.1445 38.9966 21.0724 39.0302 20.9926C39.0638 20.9129 39.0811 20.8273 39.0811 20.7408C39.0736 20.5648 38.9978 20.3986 38.8697 20.2777C38.7416 20.1568 38.5714 20.0906 38.3952 20.0932C38.3087 20.0909 38.2225 20.106 38.1418 20.1375C38.0612 20.169 37.9876 20.2163 37.9255 20.2766C37.8634 20.3369 37.8139 20.4091 37.7801 20.4888C37.7463 20.5685 37.7287 20.6542 37.7285 20.7408Z" fill="#263238"/>
<path d="M37.0161 19.0277C37.1043 19.1101 37.5909 18.7039 38.3227 18.6675C39.0546 18.6311 39.6025 18.9664 39.6772 18.8725C39.7136 18.8323 39.6197 18.6809 39.3783 18.52C39.0516 18.3191 38.6711 18.2235 38.2882 18.246C37.9101 18.2654 37.5479 18.4043 37.2537 18.6426C37.0391 18.8265 36.9721 18.9894 37.0161 19.0277Z" fill="#263238"/>
<path d="M44.0438 20.7284C44.1338 20.8127 44.6185 20.4066 45.3523 20.3702C46.086 20.3338 46.632 20.6691 46.7068 20.5752C46.7432 20.533 46.6512 20.3836 46.4079 20.2227C46.0819 20.0202 45.7008 19.9244 45.3178 19.9487C44.9395 19.9673 44.5771 20.1063 44.2833 20.3453C44.0687 20.5273 44.0074 20.692 44.0438 20.7284Z" fill="#263238"/>
<path d="M41.8424 24.6701C41.8424 24.6298 41.3883 24.5743 40.6507 24.5206C40.4591 24.5111 40.2848 24.4823 40.2484 24.3578C40.212 24.2333 40.2637 24.0225 40.3423 23.8003C40.4936 23.3424 40.6507 22.8616 40.8174 22.3577C41.4726 20.3039 41.9362 18.618 41.8539 18.5931C41.7715 18.5682 41.1718 20.212 40.5128 22.2657L40.0607 23.716C40.0032 23.9306 39.894 24.1758 40.0032 24.4498C40.0336 24.5138 40.0782 24.57 40.1337 24.6142C40.1891 24.6583 40.2539 24.6893 40.3231 24.7046C40.4275 24.7276 40.5344 24.7366 40.6411 24.7314C41.3845 24.7333 41.8424 24.7122 41.8424 24.6701Z" fill="#263238"/>
<path d="M43.7062 17.3845C43.7867 17.5761 44.5089 17.4477 45.3672 17.5071C46.2255 17.5665 46.9286 17.7638 47.0321 17.5799C47.0781 17.4937 46.9497 17.3136 46.6604 17.1354C46.2767 16.9205 45.8493 16.7954 45.4103 16.7695C44.9712 16.7436 44.5321 16.8176 44.1258 16.986C43.8135 17.1297 43.6698 17.2925 43.7062 17.3845Z" fill="#263238"/>
<path d="M37.1781 16.5659C37.3103 16.7268 37.8065 16.5409 38.41 16.5141C39.0135 16.4873 39.5269 16.5908 39.6399 16.4145C39.6878 16.3283 39.6035 16.1654 39.3756 16.016C39.071 15.834 38.7178 15.7504 38.364 15.7765C38.0097 15.7926 37.6694 15.9192 37.3908 16.1386C37.1839 16.3149 37.1187 16.4873 37.1781 16.5659Z" fill="#263238"/>
<path d="M52.028 21.215C52.1065 21.1767 55.2293 20.0809 55.2983 23.3224C55.3672 26.564 52.0969 25.9624 52.0893 25.8705C52.0816 25.7785 52.028 21.215 52.028 21.215Z" fill="#FFBE9D"/>
<path d="M53.0532 24.6216C53.0667 24.6216 53.1107 24.6599 53.2065 24.7021C53.3417 24.7566 53.4928 24.7566 53.628 24.7021C53.969 24.5699 54.2449 24.0201 54.2487 23.4357C54.251 23.1573 54.1915 22.8818 54.0744 22.6292C54.0411 22.5289 53.9843 22.4381 53.9086 22.3644C53.8329 22.2908 53.7406 22.2363 53.6395 22.2058C53.5744 22.19 53.5059 22.1975 53.4457 22.2269C53.3856 22.2562 53.3375 22.3057 53.31 22.3667C53.2678 22.4587 53.2908 22.5238 53.2736 22.5296C53.2563 22.5353 53.2027 22.4759 53.2257 22.338C53.2414 22.2575 53.2848 22.185 53.3483 22.133C53.4361 22.0639 53.5474 22.0316 53.6586 22.0429C53.7925 22.0665 53.918 22.1239 54.0233 22.2098C54.1287 22.2956 54.2102 22.4071 54.2602 22.5334C54.404 22.8109 54.4776 23.1194 54.4748 23.4319C54.4748 24.0852 54.1453 24.704 53.6797 24.8496C53.5934 24.8766 53.5021 24.8839 53.4126 24.871C53.3231 24.858 53.2376 24.8252 53.1624 24.7749C53.0609 24.7002 53.0418 24.6274 53.0532 24.6216Z" fill="#EB996E"/>
<path d="M37.9278 11.7205C37.401 11.437 38.9547 9.71849 40.2364 9.11884C42.1733 8.21074 45.1428 7.63025 46.9417 8.11686C49.1124 8.70311 50.9228 9.75872 52.0321 11.7129C53.1413 13.667 53.5781 15.9583 53.5436 18.2056C53.5322 18.8914 53.4689 19.6079 53.1107 20.1923C52.6662 20.9145 51.8041 21.3762 51.8539 22.3648C51.8679 22.5435 51.8463 22.7233 51.7904 22.8936C51.7345 23.0639 51.6454 23.2215 51.5282 23.3572C50.9439 23.9971 50.2101 23.4128 49.8691 22.8227C49.1411 21.5602 49.0434 20.0467 48.9629 18.5926C48.9074 17.5599 48.8518 16.5043 49.1315 15.5062C49.2829 14.964 49.5319 14.4506 49.6526 13.9007C49.7733 13.3509 49.7503 12.7302 49.4036 12.2857C49.323 12.1902 49.2339 12.1024 49.1373 12.0232C48.6803 11.6342 48.128 11.3738 47.5371 11.2687C46.9463 11.1637 46.3381 11.2178 45.775 11.4255C43.9569 12.0941 40.8533 13.0961 40.0276 12.4868C38.8455 11.6094 38.5581 11.0327 38.5581 11.0327L37.9278 11.7205Z" fill="#263238"/>
<path d="M40.9414 26.9627C40.9223 27.0183 41.0621 27.1294 41.3361 27.1946C41.6973 27.264 42.0708 27.2288 42.4126 27.093C42.7544 26.9572 43.0502 26.7266 43.2653 26.4282C43.4224 26.1945 43.4569 26.0182 43.3956 25.9895C43.2845 25.9282 42.9186 26.4244 42.2461 26.6754C41.5737 26.9263 40.9855 26.8421 40.9414 26.9627Z" fill="#263238"/>
<path d="M53.2431 21.0064C53.678 18.558 54.3734 17.1997 54.5842 15.4103C54.9577 12.3335 53.0649 9.12264 50.1912 7.96166C49.2984 7.59957 47.7409 7.54784 47.1833 7.39841C46.4534 7.20683 46.0549 6.46349 45.3193 6.30065C44.6713 6.16394 44.0002 6.18296 43.3611 6.35615C42.722 6.52934 42.1331 6.85175 41.6428 7.29687C40.4627 6.04584 38.4281 5.60329 36.9318 6.45008C35.4356 7.29687 34.7957 9.46174 35.7689 10.8967C36.267 11.6343 37.0908 12.1017 37.9472 12.3431C38.6661 12.5336 39.4011 12.6573 40.1427 12.7129C40.5118 12.7426 40.883 12.733 41.2501 12.6841C41.9781 12.5864 43.369 12.3814 44.7541 12.0692C45.827 11.8278 47.578 11.7416 48.3482 12.3431C48.7965 12.6937 49.4268 13.2244 49.08 15.7916" fill="#263238"/>
<path d="M38.1012 6.05621C38.1012 6.06579 37.9613 6.13476 37.7295 6.30144C37.4045 6.54175 37.1331 6.8471 36.9325 7.19804C36.6435 7.72387 36.5218 8.32543 36.5839 8.92227C36.6227 9.47648 36.8011 10.0118 37.1026 10.4785C37.4041 10.9451 37.8188 11.3278 38.3081 11.591C38.6204 11.7555 38.9476 11.8902 39.2852 11.9933C39.86 12.1687 40.4482 12.2969 41.0439 12.3765C41.4449 12.4359 41.8494 12.4686 42.2547 12.4742C42.542 12.4742 42.6991 12.4493 42.7011 12.4589C42.6644 12.4714 42.6265 12.4798 42.588 12.4838C42.4777 12.5012 42.3663 12.5108 42.2547 12.5125C41.8468 12.5217 41.4389 12.5 41.0343 12.4474C40.4329 12.3769 39.8386 12.2545 39.2583 12.0815C38.9136 11.9778 38.5794 11.8418 38.2602 11.6753C37.9183 11.4899 37.6101 11.2483 37.3483 10.9607C36.8441 10.3979 36.5439 9.68203 36.4957 8.92802C36.4359 8.31428 36.5699 7.69722 36.8789 7.16356C37.0887 6.80846 37.3738 6.50371 37.7142 6.27078C37.8067 6.2091 37.9026 6.15281 38.0016 6.10219C38.0329 6.0832 38.0664 6.06778 38.1012 6.05621Z" fill="#FAFAFA"/>
<path d="M54.4845 13.0942C54.4845 13.0942 54.4691 13.1133 54.4366 13.1421C54.3875 13.185 54.3357 13.2247 54.2814 13.2608C54.0839 13.3989 53.8686 13.5098 53.6415 13.5904C53.3048 13.7153 52.9488 13.7802 52.5897 13.7819C52.1483 13.7823 51.7122 13.6862 51.3119 13.5003C50.8866 13.3087 50.5187 13.0635 50.1739 12.8662C49.8722 12.6836 49.5509 12.5358 49.216 12.4256C48.9061 12.3308 48.5812 12.2945 48.2581 12.3183C48.2795 12.309 48.302 12.3025 48.3251 12.2991C48.3883 12.2862 48.4523 12.2779 48.5167 12.2742C48.758 12.2602 48.9999 12.2888 49.2313 12.3585C49.5739 12.4601 49.9028 12.6036 50.2103 12.7857C50.559 12.9773 50.9287 13.2206 51.3425 13.4084C51.7306 13.5883 52.1524 13.6842 52.5801 13.69C52.9296 13.693 53.2771 13.6386 53.6089 13.5291C53.9163 13.4177 54.21 13.2718 54.4845 13.0942Z" fill="#455A64"/>
<path d="M54.6318 14.5129C54.573 14.5628 54.5087 14.6058 54.4402 14.6413C54.2489 14.7443 54.0489 14.8302 53.8425 14.898C53.1538 15.1176 52.4188 15.1487 51.714 14.988C51.0173 14.8072 50.3699 14.4727 49.8193 14.0091C49.6028 13.8405 49.4361 13.6968 49.3211 13.5952C49.2595 13.5455 49.2024 13.4904 49.1506 13.4305C49.2192 13.4681 49.2834 13.5131 49.3422 13.5646L49.8576 13.9478C50.4114 14.3865 51.05 14.7061 51.7332 14.8865C52.4222 15.0413 53.1392 15.0195 53.8176 14.8233C54.0949 14.7362 54.3668 14.6326 54.6318 14.5129Z" fill="#455A64"/>
<path d="M42.6479 6.93672C42.3647 7.11055 42.1196 7.33995 41.9275 7.61109C41.7258 7.90833 41.5947 8.24779 41.5444 8.60348C41.4906 9.03998 41.5486 9.48298 41.7129 9.89091C41.8752 10.3003 42.1197 10.6719 42.4314 10.9829C42.6871 11.2371 42.975 11.4567 43.2877 11.6362C43.5836 11.7952 43.8873 11.9391 44.1978 12.0673C44.1084 12.054 44.021 12.0302 43.9372 11.9964C43.7041 11.9152 43.4779 11.8153 43.2609 11.6975C42.9367 11.5229 42.6382 11.3044 42.3739 11.0481C42.05 10.7302 41.7956 10.3485 41.6267 9.92731C41.4563 9.50219 41.3989 9.04016 41.4601 8.58624C41.5144 8.218 41.6556 7.86797 41.872 7.56511C42.0177 7.3675 42.1982 7.19806 42.4046 7.06508C42.4612 7.02834 42.5208 6.99631 42.5827 6.96929C42.6249 6.94247 42.6459 6.93289 42.6479 6.93672Z" fill="#455A64"/>
<path d="M47.0457 9.82467C46.9795 9.94146 46.9451 10.0736 46.9461 10.2078C46.9484 10.3612 47.0001 10.5096 47.0936 10.6312C47.1575 10.7081 47.2366 10.7709 47.326 10.8157C47.4153 10.8605 47.513 10.8864 47.6128 10.8918C47.7334 10.9002 47.8544 10.8821 47.9672 10.8387C48.0801 10.7954 48.1821 10.7278 48.2661 10.6408C48.3625 10.5389 48.437 10.4183 48.4851 10.2866C48.5332 10.1548 48.5539 10.0145 48.5458 9.87448C48.5257 9.56302 48.3977 9.2683 48.1837 9.0411C47.9526 8.79816 47.651 8.63397 47.3216 8.57173C46.993 8.50467 46.6517 8.5408 46.3445 8.67518C46.0604 8.80601 45.8158 9.00957 45.6356 9.26525C45.4738 9.49853 45.3658 9.76486 45.3195 10.045C45.2828 10.2898 45.2965 10.5395 45.3598 10.7787C45.4502 11.1296 45.6289 11.4514 45.879 11.7137C46.0571 11.9052 46.1797 11.9742 46.174 11.9819C46.1418 11.9688 46.1115 11.9514 46.0839 11.9302C46.0014 11.8722 45.9233 11.8081 45.8502 11.7386C45.5839 11.4792 45.3909 11.154 45.2908 10.796C45.2202 10.547 45.2026 10.2859 45.2391 10.0297C45.2812 9.73505 45.3914 9.45431 45.5609 9.20969C45.7482 8.93907 46.005 8.72397 46.3043 8.58705C46.63 8.44397 46.992 8.40515 47.3407 8.47593C47.6919 8.54316 48.0126 8.72028 48.2565 8.98171C48.4854 9.22565 48.621 9.54241 48.6396 9.8764C48.6462 10.0273 48.6217 10.1779 48.5676 10.319C48.5136 10.46 48.4312 10.5885 48.3255 10.6964C48.2332 10.7909 48.121 10.8636 47.997 10.909C47.873 10.9544 47.7404 10.9714 47.6089 10.9588C47.5002 10.9518 47.3943 10.9217 47.2982 10.8705C47.202 10.8193 47.1179 10.7482 47.0514 10.6619C46.9551 10.5298 46.9052 10.3694 46.9097 10.2059C46.9106 10.1036 46.9362 10.003 46.9844 9.9128C46.9994 9.87998 47.0201 9.85013 47.0457 9.82467Z" fill="#455A64"/>
<path d="M44.7974 25.941C44.7974 25.941 44.7801 25.9525 44.7399 25.962H44.7303V25.9506C44.6749 25.8433 44.6108 25.7408 44.5387 25.644C44.2625 25.2976 43.8629 25.0717 43.4237 25.0137C43.3229 25.0101 43.2224 24.9999 43.1229 24.9831C43.2201 24.9439 43.3255 24.9301 43.4295 24.9428C43.6842 24.9545 43.9317 25.0317 44.1479 25.167C44.3278 25.2771 44.483 25.4232 44.6039 25.5961C44.6763 25.7006 44.7307 25.8166 44.7648 25.9391L44.7475 25.9295C44.7724 25.9314 44.7974 25.9352 44.7974 25.941Z" fill="#EB996E"/>
<path d="M40.7853 34.0399L45.6611 36.1167L52.0542 32.7142L52.1155 37.3064L54.5486 38.454L52.1155 46.6805L47.073 56.3438L41.6359 55.6484L36.7947 44.4007L40.7853 34.6913V34.0399Z" fill="#F5F5F5"/>
<path d="M45.6614 36.1162C45.6636 36.1315 45.6636 36.1469 45.6614 36.1622V36.302C45.6614 36.4323 45.6614 36.6105 45.648 36.8346C45.6327 37.2983 45.6078 37.9688 45.5657 38.7964C45.4871 40.4517 45.3511 42.7373 45.1825 45.2604C45.0139 47.7835 44.8817 50.0614 44.7783 51.7224C44.7304 52.5424 44.692 53.2091 44.6652 53.6804C44.6518 53.9046 44.6403 54.0827 44.6327 54.213C44.6327 54.2686 44.6327 54.3145 44.6327 54.3509C44.6345 54.3668 44.6345 54.3829 44.6327 54.3988C44.6311 54.3829 44.6311 54.3669 44.6327 54.3509C44.6327 54.3145 44.6327 54.2686 44.6327 54.213C44.6327 54.0827 44.6326 53.9045 44.6461 53.6785C44.6595 53.2149 44.6863 52.5462 44.7265 51.7186C44.8051 50.0633 44.943 47.7778 45.1097 45.2527C45.2764 42.7277 45.4105 40.4536 45.5158 38.7926C45.5618 37.9707 45.6001 37.304 45.6289 36.8327C45.6423 36.6086 45.6519 36.4304 45.6595 36.3001C45.6595 36.2446 45.6595 36.1986 45.671 36.1622C45.6658 36.1474 45.6626 36.1319 45.6614 36.1162Z" fill="#263238"/>
<path d="M21.0161 45.4282C20.8475 45.5508 16.8262 46.2577 15.4162 46.683C14.0061 47.1083 5.01521 50.4112 6.62067 56.2429C8.22612 62.0747 26.6065 56.3445 26.6065 56.3445L27.7215 45.8516L28.4016 38.4546C28.4016 38.4546 26.2156 39.2209 23.591 44.3936L21.0161 45.4282Z" fill="#263238"/>
<path d="M22.0755 52.5051C22.0669 52.5401 22.0547 52.5741 22.0391 52.6066C22.0012 52.7023 21.9563 52.7952 21.905 52.8844C21.7145 53.2125 21.4856 53.5168 21.223 53.7906C20.8418 54.2071 20.3961 54.5597 19.903 54.8347C19.2801 55.1213 18.6403 55.3695 17.9871 55.5781C17.3409 55.7966 16.7193 56.0824 16.1326 56.4306C15.6568 56.7204 15.197 57.0357 14.7552 57.3751C14.372 57.6644 14.075 57.9058 13.8662 58.0705L13.6229 58.2621C13.5957 58.2855 13.5662 58.306 13.5348 58.3234C13.5348 58.3234 13.5578 58.2947 13.6095 58.2468L13.8413 58.0437C14.0329 57.8694 14.3375 57.6184 14.713 57.3214C15.1513 56.972 15.61 56.649 16.0867 56.354C16.6758 55.9987 17.3014 55.7077 17.9527 55.4861C18.605 55.2796 19.2446 55.0353 19.8685 54.7543C20.355 54.4877 20.7971 54.1471 21.1789 53.7446C21.4431 53.4784 21.6776 53.1841 21.8782 52.8672C22.0104 52.6392 22.0659 52.5013 22.0755 52.5051Z" fill="#455A64"/>
<path d="M17.7753 51.5606C17.7753 51.5702 17.7044 51.5817 17.5837 51.6392C17.4258 51.7233 17.2959 51.8518 17.2102 52.0089C17.1474 52.1224 17.1145 52.2499 17.1145 52.3796C17.1145 52.5093 17.1474 52.6368 17.2102 52.7503C17.2814 52.8934 17.3943 53.0114 17.534 53.0889C17.6737 53.1664 17.8337 53.1996 17.9927 53.1843C18.1517 53.1689 18.3023 53.1057 18.4246 53.0029C18.547 52.9001 18.6352 52.7626 18.6777 52.6086C18.7173 52.4849 18.7244 52.3531 18.6982 52.2259C18.6721 52.0987 18.6135 51.9804 18.5282 51.8825C18.4146 51.7443 18.2626 51.643 18.0914 51.5913C17.9688 51.5568 17.8999 51.5587 17.8999 51.5491C17.9672 51.5327 18.0375 51.5327 18.1049 51.5491C18.2628 51.5837 18.4085 51.6601 18.5268 51.7703C18.6451 51.8805 18.7316 52.0205 18.7773 52.1756C18.8213 52.3244 18.8213 52.4827 18.7773 52.6315C18.731 52.8042 18.633 52.9585 18.4966 53.074C18.3601 53.1894 18.1916 53.2604 18.0137 53.2775C17.8358 53.2946 17.6569 53.2569 17.501 53.1695C17.3451 53.0822 17.2195 52.9493 17.1412 52.7886C17.0676 52.6526 17.0344 52.4984 17.0454 52.3442C17.057 52.2089 17.099 52.0779 17.168 51.961C17.2638 51.7953 17.4111 51.6654 17.5876 51.5913C17.647 51.5669 17.7112 51.5564 17.7753 51.5606Z" fill="#455A64"/>
<path d="M15.5827 52.4432C15.5827 52.4528 15.5138 52.4643 15.4007 52.5218C15.2389 52.604 15.1055 52.7328 15.0176 52.8915C14.9549 53.005 14.9219 53.1326 14.9219 53.2622C14.9219 53.3919 14.9549 53.5195 15.0176 53.633C15.0888 53.776 15.2017 53.894 15.3414 53.9715C15.4811 54.049 15.6411 54.0823 15.8001 54.0669C15.9591 54.0515 16.1098 53.9883 16.2321 53.8855C16.3544 53.7827 16.4426 53.6452 16.4851 53.4912C16.5248 53.3675 16.5318 53.2357 16.5057 53.1085C16.4795 52.9813 16.4209 52.863 16.3357 52.7651C16.2226 52.6255 16.0705 52.5228 15.8989 52.47C15.7762 52.4356 15.7073 52.4375 15.7073 52.4279C15.7746 52.4116 15.8449 52.4116 15.9123 52.4279C16.0992 52.4664 16.2682 52.5653 16.3931 52.7095C16.4821 52.8086 16.5476 52.9265 16.5847 53.0544C16.6287 53.2032 16.6287 53.3615 16.5847 53.5103C16.5384 53.683 16.4404 53.8373 16.304 53.9527C16.1675 54.0682 15.9991 54.1392 15.8211 54.1563C15.6432 54.1734 15.4643 54.1357 15.3084 54.0483C15.1525 53.961 15.027 53.8281 14.9486 53.6674C14.8747 53.5316 14.842 53.3771 14.8547 53.223C14.8657 53.0878 14.907 52.9569 14.9754 52.8398C15.0718 52.6745 15.2189 52.5448 15.395 52.47C15.4547 52.447 15.5189 52.4378 15.5827 52.4432Z" fill="#455A64"/>
<path d="M31.8286 90.4162L56.1097 90.4258L54.0196 86.6689L30.8401 81.4176L31.8286 90.4162Z" fill="#263238"/>
<path d="M54.995 66.5381C54.9835 66.3024 60.2788 43.1421 60.2788 43.1421L51.7726 38.5825L44.7837 54.7481C41.6762 49.5908 39.8811 38.1802 39.7393 37.8219L34.7295 43.7801L30.0165 69.452L26.9857 80.8243C27.2003 81.242 38.3887 90.0509 38.3887 90.0509L43.523 85.8055L49.5081 90.1103L57.2595 84.9855L54.995 66.5438C55.7613 65.0878 54.9988 66.607 54.995 66.5381Z" fill="#455A64"/>
<path d="M44.7832 54.7484C44.7862 54.7752 44.7862 54.8021 44.7832 54.8289C44.7832 54.8863 44.7717 54.963 44.7641 55.0626C44.7449 55.2753 44.7162 55.578 44.6798 55.9649C44.6032 56.7485 44.5016 57.8808 44.3848 59.2831C44.2679 60.6855 44.1434 62.3484 44.0246 64.2125C43.9058 66.0766 43.8023 68.1112 43.718 70.255C43.5533 74.5464 43.5092 78.4336 43.5111 81.246C43.5111 82.6542 43.5111 83.7921 43.5246 84.5776C43.5246 84.9608 43.5246 85.2712 43.5246 85.4838V85.7194C43.5246 85.7731 43.5246 85.7999 43.5246 85.7999C43.5225 85.7731 43.5225 85.7462 43.5246 85.7194C43.5246 85.662 43.5246 85.5853 43.5246 85.4838C43.5246 85.2731 43.5111 84.9685 43.5016 84.5795C43.4805 83.7921 43.4652 82.6542 43.4556 81.246C43.4364 78.4336 43.469 74.5407 43.6338 70.2512C43.718 68.1055 43.8253 66.0632 43.9479 64.2068C44.0706 62.3504 44.2008 60.6798 44.3311 59.2774C44.4614 57.875 44.5706 56.7428 44.6587 55.9611C44.7028 55.578 44.7373 55.2714 44.7603 55.0607C44.7737 54.9611 44.7832 54.8844 44.789 54.827C44.7947 54.7695 44.7832 54.7484 44.7832 54.7484Z" fill="#263238"/>
<path d="M40.7863 34.6916L37.79 37.1822C37.79 37.1822 35.6941 37.6477 34.8799 37.8814C34.0656 38.1152 28.3929 38.4562 28.3929 38.4562L26.6035 56.212L25.592 74.8605L22.3792 90.553L32.397 90.4993L31.9697 72.3259L35.6941 54.2846L40.7863 34.6916Z" fill="#263238"/>
<path d="M32.395 90.4981C32.395 90.4981 32.395 90.4694 32.395 90.41C32.395 90.3506 32.395 90.2644 32.3854 90.1533C32.3854 89.9234 32.3682 89.5881 32.3548 89.1551C32.3299 88.2796 32.2954 87.0056 32.2532 85.4021C32.1728 82.1854 32.0616 77.643 31.9256 72.3266C31.6402 69.2613 31.3509 65.8818 31.1114 62.3529C30.983 60.4581 30.87 58.6055 30.8164 56.8123C30.7972 55.9157 30.7761 55.0325 30.8279 54.1685C30.8796 53.3045 30.9524 52.4634 31.0539 51.6435C31.2455 50.0035 31.4984 48.4555 31.7589 47.0091C32.0195 45.5627 32.2858 44.2197 32.554 42.9974V42.9801H32.5693L35.1634 41.6544L35.1499 41.6946L34.6806 40.6562V40.6409L34.694 40.6275L36.9757 38.0776L37.583 37.4051C37.6501 37.3304 37.7018 37.2748 37.7401 37.2346C37.7784 37.1944 37.7957 37.1771 37.7957 37.1771L37.7459 37.2384L37.5945 37.4147L36.991 38.1025L34.7265 40.6697V40.6409C34.8721 40.957 35.0254 41.2904 35.1998 41.6755L35.2132 41.7023L35.1863 41.7138L32.5981 43.0549L32.6172 43.0299C32.3528 44.2522 32.0885 45.5952 31.8317 47.0417C31.575 48.4881 31.3298 50.0342 31.1363 51.6722C30.6669 54.9463 30.9715 58.5787 31.2034 62.3644C31.4467 65.8914 31.7302 69.2613 32.0099 72.3266C32.1287 77.643 32.2283 82.1854 32.2992 85.4021C32.3318 87.0075 32.3567 88.2758 32.3758 89.1571C32.3758 89.59 32.3873 89.9234 32.3912 90.1552C32.3912 90.2663 32.3912 90.3468 32.3912 90.4119C32.3912 90.4771 32.395 90.4981 32.395 90.4981Z" fill="#455A64"/>
<path d="M63.1442 78.4949L65.7497 39.3011L56.3737 36.6056C56.3737 36.6056 52.27 34.1974 52.0746 34.1974C52.0746 34.1974 51.0899 53.7004 50.5017 60.1605C49.9136 66.6207 53.5823 90.4304 53.5823 90.4304L66.8111 90.5243L63.1442 78.4949Z" fill="#263238"/>
<path d="M55.4534 77.5779C56.0281 77.1315 61.4479 70.1694 61.4479 70.1694V60.3681L65.7509 39.2942C65.7509 39.2942 68.1246 43.0032 69.0078 47.3808C69.8909 51.7585 71.9006 69.0698 71.9006 69.0698C71.4701 71.3199 70.7468 73.504 69.7492 75.5663C68.1169 78.9056 58.6049 88.4022 58.6049 88.4022C58.6049 88.4022 54.0931 86.9443 53.1314 83.2985C52.1696 79.6527 55.4534 77.5779 55.4534 77.5779Z" fill="#263238"/>
<path d="M61.0358 51.5496C61.0358 51.5496 61.0357 51.6645 61.0492 51.8868C61.0626 52.109 61.0645 52.4385 61.076 52.8677C61.099 53.7317 61.1296 54.998 61.1699 56.6169C61.2465 59.8585 61.3614 64.512 61.4898 70.1694V70.1828L61.4802 70.1943C60.5951 71.3323 59.6544 72.5335 58.664 73.7826L57.1313 75.6888L56.3343 76.6582C56.0661 76.9931 55.7795 77.3129 55.476 77.6161C54.5436 78.2555 53.8126 79.1474 53.3687 80.1872C53.3418 80.2542 53.3112 80.3194 53.2863 80.3788L53.225 80.5857C53.1765 80.7216 53.1394 80.8613 53.1139 81.0033C53.0889 81.1451 53.0602 81.2888 53.0372 81.4305L53.0142 81.8673C53.0117 82.161 53.0322 82.4543 53.0755 82.7448L53.1617 83.1797C53.1939 83.3247 53.2336 83.4679 53.2805 83.6088C53.6953 84.7547 54.421 85.7624 55.3764 86.5189C56.3457 87.3118 57.4442 87.9319 58.6237 88.3524L58.572 88.3639L59.7215 87.2048C61.1494 85.7475 62.5294 84.2947 63.8616 82.8463C65.1912 81.3999 66.469 79.9726 67.6434 78.5108L68.0821 77.9667C68.2201 77.7752 68.3599 77.597 68.4979 77.4131C68.7814 77.051 69.0285 76.6678 69.2833 76.2942C69.7395 75.5334 70.128 74.734 70.4443 73.9052C71.0728 72.3429 71.5488 70.7236 71.8659 69.0697V69.0812C71.0995 62.5578 70.4309 57.1284 69.9156 53.3351C69.6588 51.4385 69.4443 49.9499 69.2776 48.9383C69.201 48.4306 69.1301 48.0436 69.086 47.7888C69.0649 47.6605 69.0477 47.5628 69.0343 47.4938C69.0209 47.4248 69.0209 47.3942 69.0209 47.3942C69.0209 47.3942 69.0209 47.4267 69.0419 47.4919L69.0994 47.7869C69.1511 48.0475 69.2259 48.4325 69.3082 48.9364C69.4826 49.9479 69.7048 51.4365 69.9692 53.3313C70.4999 57.1246 71.1877 62.5521 71.9559 69.0754V69.0869C71.6386 70.7478 71.1619 72.3742 70.5324 73.9435C70.2158 74.7808 69.826 75.5886 69.3676 76.3575C69.1109 76.731 68.8638 77.1238 68.5783 77.482C68.4385 77.6736 68.3005 77.8518 68.1607 78.0376L67.7219 78.5817C66.5476 80.0377 65.2678 81.4765 63.9382 82.9249C62.6086 84.3732 61.2235 85.8273 59.7962 87.2872L58.6467 88.4463L58.6237 88.4692L58.5969 88.4577C57.4022 88.0341 56.2899 87.4066 55.3094 86.6032C54.3405 85.8338 53.6042 84.8104 53.1828 83.6471C53.1356 83.5037 53.096 83.3579 53.064 83.2103C53.0334 83.0628 53.0046 82.9153 52.9759 82.7678C52.9485 82.6198 52.9325 82.4699 52.928 82.3195C52.9104 82.1714 52.9053 82.0221 52.9127 81.8731L52.9376 81.4286C52.9606 81.2811 52.9893 81.1355 53.0161 80.9899C53.0435 80.8456 53.0812 80.7034 53.1292 80.5646L53.1924 80.3539C53.2192 80.2849 53.248 80.2197 53.2767 80.1508C53.7281 79.0935 54.4718 78.1869 55.4205 77.5376C55.719 77.2396 56.001 76.9256 56.2654 76.5969L57.0643 75.6295L58.5969 73.727C59.5893 72.4779 60.5319 71.2786 61.4189 70.1426L61.4093 70.1694C61.2906 64.512 61.1948 59.8585 61.1258 56.615C61.0951 54.9961 61.0702 53.7298 61.0549 52.8657C61.0549 52.4366 61.0415 52.109 61.0377 51.8848C61.0338 51.6607 61.0358 51.5496 61.0358 51.5496Z" fill="#455A64"/>
<path d="M68.9308 72.5193C68.8527 72.437 68.7798 72.35 68.7124 72.2588C68.5168 72.0214 68.3056 71.7974 68.0801 71.5882C67.3399 70.8914 66.4451 70.38 65.469 70.096C64.4929 69.8119 63.4634 69.7633 62.4649 69.954C62.1625 70.0088 61.8642 70.0844 61.5721 70.1801C61.467 70.222 61.3595 70.2579 61.2502 70.2874C61.2502 70.2874 61.2751 70.2701 61.3269 70.2452C61.3786 70.2203 61.4572 70.1839 61.5606 70.1475C61.8505 70.0367 62.1491 69.9501 62.4534 69.8889C63.4627 69.6764 64.5089 69.7159 65.4993 70.0039C66.4898 70.2919 67.3939 70.8196 68.1319 71.5403C68.3548 71.7564 68.5598 71.9903 68.7449 72.2396C68.812 72.3258 68.856 72.3986 68.8886 72.4465C68.9212 72.4944 68.9346 72.5174 68.9308 72.5193Z" fill="#455A64"/>
<path d="M67.4096 67.469C67.4096 67.4901 67.0265 67.4441 66.4364 67.469C66.0861 67.4902 65.7377 67.537 65.3942 67.6089C64.9751 67.7029 64.5644 67.831 64.1662 67.992C63.7671 68.1576 63.3826 68.3563 63.0167 68.5859C62.7216 68.7756 62.4412 68.9869 62.1775 69.2182C61.7273 69.6147 61.4936 69.9079 61.4783 69.8945C61.523 69.8194 61.5757 69.7494 61.6354 69.6856C61.6992 69.6045 61.7677 69.5271 61.8404 69.4538C61.9227 69.3676 62.0147 69.2622 62.1296 69.1664C62.3903 68.9249 62.6703 68.7052 62.9669 68.5093C63.3309 68.2721 63.7156 68.0682 64.1163 67.9001C64.5201 67.7362 64.9374 67.608 65.3635 67.5169C65.7122 67.4478 66.0659 67.4074 66.4211 67.3962C66.5724 67.3866 66.7104 67.3962 66.8311 67.3962C66.9336 67.3963 67.036 67.4033 67.1376 67.4173C67.23 67.4239 67.3213 67.4412 67.4096 67.469Z" fill="#455A64"/>
<path d="M51.4976 67.9882C51.4976 67.9882 51.4976 67.9575 51.5225 67.9L51.6087 67.6433L51.9459 66.6663C52.2447 65.8137 52.6739 64.5876 53.2046 63.076C53.2678 62.8844 53.3329 62.6928 53.3961 62.4917L53.5877 61.8767C53.7142 61.4571 53.8349 61.0165 53.9709 60.5644C54.2238 59.6544 54.4939 58.6811 54.7794 57.6581C55.3349 55.6082 55.9461 53.3552 56.586 50.991L59.065 41.7281L59.0842 41.774L56.3657 40.0498L56.3178 40.0192L56.3657 39.9904L58.0899 38.9712V39.0114C57.5535 38.2547 57.132 37.657 56.8331 37.2431C56.6913 37.0401 56.5821 36.883 56.5036 36.7738L56.4212 36.6512C56.4113 36.6377 56.4023 36.6237 56.3944 36.609C56.4073 36.6199 56.4183 36.6329 56.427 36.6473L56.517 36.7642C56.5956 36.8734 56.7086 37.0267 56.858 37.2259C57.155 37.6359 57.5879 38.2279 58.1359 38.9789L58.1531 39.0019L58.1263 39.0191L56.4135 40.0498V39.9904L59.1398 41.7147L59.1666 41.7319V41.7626C58.4673 44.4179 57.6224 47.6077 56.7028 51.0294C56.0649 53.3954 55.4537 55.6484 54.8866 57.6945C54.5993 58.7175 54.3253 59.6888 54.0705 60.5969C53.9383 61.051 53.8157 61.4897 53.6873 61.9093C53.6241 62.12 53.5609 62.325 53.4958 62.5262C53.4306 62.7273 53.3617 62.9208 53.3042 63.1124L52.0167 66.6912C51.8635 67.1088 51.7447 67.4364 51.6623 67.6625L51.5665 67.9134C51.511 67.9613 51.4976 67.9882 51.4976 67.9882Z" fill="#455A64"/>
<path d="M65.3185 39.9589C65.3185 39.9589 65.3032 39.9876 65.2668 40.0374L65.1001 40.2539C65.0254 40.3459 64.9373 40.4589 64.8395 40.5968C64.7418 40.7348 64.6211 40.8823 64.5043 41.0566C64.2591 41.4015 63.9889 41.823 63.7073 42.3057C63.4072 42.8307 63.1335 43.3704 62.8873 43.9227C62.6306 44.5128 62.4199 45.0894 62.2494 45.6201C62.0789 46.1508 61.9582 46.6393 61.8662 47.0531C61.8164 47.2581 61.7857 47.4363 61.7532 47.6106C61.7206 47.785 61.6957 47.9172 61.6765 48.034C61.6574 48.1509 61.644 48.2256 61.6306 48.3022C61.6274 48.3345 61.6197 48.3661 61.6076 48.3961C61.603 48.3644 61.603 48.3321 61.6076 48.3003C61.6076 48.2256 61.6229 48.1375 61.6344 48.0283C61.6459 47.9191 61.665 47.7677 61.6938 47.6011C61.7225 47.4344 61.7474 47.2447 61.7934 47.0378C61.8719 46.6221 61.9946 46.1297 62.1536 45.5933C62.5085 44.428 63.0005 43.309 63.6192 42.2598C63.8712 41.8317 64.1449 41.4167 64.4391 41.0164C64.5618 40.8421 64.6825 40.6945 64.7878 40.5623C64.8932 40.4302 64.9794 40.319 65.0618 40.229L65.2438 40.0259C65.2659 40.0007 65.291 39.9781 65.3185 39.9589Z" fill="#455A64"/>
<path d="M36.0183 81.2075C36.0183 81.2075 35.8439 81.8321 36.2271 82.1099C36.549 82.3436 40.6086 84.0544 41.8864 84.5889C42.1382 84.6945 42.4085 84.7492 42.6815 84.7499H46.7488L46.7679 84.7614C47.3654 85.114 48.0575 85.2727 48.7489 85.2154L54.3182 84.7499C54.3182 84.7499 57.1919 85.7212 58.0693 83.4988C58.9468 81.2765 58.6939 79.8875 57.826 79.194C57.2092 78.737 56.5147 78.3955 55.7761 78.1863L50.9329 80.468L44.6931 80.8244L37.0298 80.0044L35.7501 80.3875C35.7501 80.3875 35.4972 80.8244 36.0183 81.2075Z" fill="#F5F5F5"/>
<path d="M44.337 84.3687C44.2833 84.3583 44.2302 84.3449 44.178 84.3284C44.0764 84.2997 43.9251 84.2537 43.7335 84.1886C43.1911 84.0061 42.6607 83.7898 42.1453 83.541C41.8177 83.382 41.4652 83.2019 41.0993 82.9797C40.908 82.863 40.7323 82.7227 40.5762 82.5621C40.4057 82.3874 40.2944 82.1636 40.2582 81.9222C40.2384 81.7919 40.2541 81.6588 40.3037 81.5367C40.3532 81.4146 40.4348 81.3082 40.5398 81.2287C40.7778 81.1002 41.0547 81.064 41.3177 81.1271L42.9059 81.3992L44.4941 81.677C45.0075 81.7632 45.4999 81.8685 45.9712 81.9203C46.9176 82.0429 47.7759 81.8896 48.4886 81.7881C49.0528 81.6899 49.6232 81.6304 50.1956 81.6099C50.3509 81.6065 50.5063 81.6116 50.6611 81.6252C50.7159 81.6259 50.7705 81.6323 50.8239 81.6444C50.8239 81.6444 50.7665 81.6444 50.6611 81.6444C50.5557 81.6444 50.3986 81.6444 50.1956 81.6444C49.6266 81.6801 49.0604 81.7504 48.5001 81.8551C47.7893 81.9643 46.9233 82.1272 45.9616 82.0084C45.4826 81.9509 44.9903 81.8551 44.4768 81.7689L42.8886 81.495L41.3023 81.2191C41.0634 81.1605 40.8114 81.1912 40.5935 81.3053C40.5023 81.3743 40.4314 81.4665 40.3883 81.5724C40.3451 81.6783 40.3313 81.7938 40.3483 81.9069C40.3814 82.1301 40.4839 82.3372 40.6414 82.4988C40.791 82.6553 40.9596 82.7924 41.1433 82.9069C41.5016 83.1272 41.8541 83.3111 42.1759 83.4817C42.6871 83.7346 43.2115 83.9597 43.7469 84.156L44.1837 84.3131C44.2365 84.3267 44.2878 84.3453 44.337 84.3687Z" fill="#263238"/>
<path d="M37.0252 80.8261C37.0252 80.8433 36.9314 80.8261 36.7896 80.8568C36.6059 80.8842 36.4333 80.9619 36.291 81.0812C36.1487 81.2006 36.0421 81.3569 35.983 81.533C35.9371 81.6691 35.9294 81.761 35.9122 81.761C35.8949 81.761 35.8834 81.6652 35.9122 81.5139C35.9569 81.3146 36.0659 81.1356 36.2224 81.0044C36.3789 80.8732 36.5741 80.7971 36.7781 80.7878C36.9371 80.7878 37.0291 80.8261 37.0252 80.8261Z" fill="#263238"/>
<path d="M55.8733 80.1664C55.7784 80.1965 55.6809 80.2183 55.5821 80.2315C55.3165 80.2788 55.0551 80.3474 54.8005 80.4365C54.4238 80.5613 54.1004 80.8097 53.8828 81.1415C53.7534 81.3323 53.6865 81.5586 53.6912 81.7891C53.7136 82.0347 53.8098 82.2678 53.9671 82.4577C54.1236 82.6547 54.2967 82.838 54.4844 83.0056C54.5247 83.0424 54.5723 83.0701 54.6242 83.087C54.6761 83.1038 54.731 83.1094 54.7852 83.1033C54.8954 83.0825 55.0023 83.047 55.1032 82.998L56.2163 82.5305L56.9692 82.2221C57.0604 82.1818 57.1546 82.1485 57.2508 82.1224C57.166 82.1751 57.0769 82.2206 56.9845 82.2585L56.2431 82.5956L55.1396 83.0823C55.0311 83.1362 54.9157 83.1749 54.7967 83.1972C54.7298 83.2056 54.6619 83.1997 54.5975 83.1799C54.5331 83.1601 54.4736 83.1268 54.4231 83.0823C54.2287 82.9106 54.0498 82.7221 53.8886 82.519C53.7178 82.3131 53.6148 82.0595 53.5935 81.7929C53.5872 81.5438 53.6582 81.2989 53.7966 81.0917C54.0278 80.7461 54.3718 80.4915 54.7698 80.3714C55.0294 80.2852 55.2971 80.2255 55.5687 80.1932C55.6693 80.1751 55.7712 80.1661 55.8733 80.1664Z" fill="#263238"/>
<path d="M57.2342 83.1621C57.2189 83.1506 57.3837 82.959 57.5542 82.5874C57.7788 82.1159 57.8771 81.5942 57.8394 81.0733C57.8018 80.5524 57.6296 80.0502 57.3396 79.6159C57.1193 79.2807 56.9277 79.114 56.9411 79.1006C56.9545 79.0872 56.9967 79.1332 57.081 79.2098C57.1977 79.3215 57.3035 79.444 57.3971 79.5757C57.7125 80.0124 57.9002 80.5283 57.9391 81.0656C57.978 81.6029 57.8666 82.1404 57.6174 82.618C57.543 82.7616 57.4558 82.8982 57.3568 83.0261C57.284 83.1238 57.24 83.1659 57.2342 83.1621Z" fill="#263238"/>
<path d="M56.7179 83.3008C56.5512 83.3808 56.3774 83.4449 56.1987 83.4924L54.9266 83.9196L53.6641 84.3506C53.4921 84.4194 53.3146 84.4732 53.1334 84.5116C53.2946 84.4206 53.4639 84.3449 53.6392 84.2855C53.9572 84.1571 54.4055 83.9924 54.8941 83.8257C55.3826 83.659 55.8424 83.5192 56.1719 83.4272C56.3497 83.3685 56.5324 83.3262 56.7179 83.3008Z" fill="#263238"/>
<path d="M51.574 83.8094C51.5002 83.8383 51.4239 83.8601 51.346 83.8745C51.1966 83.9109 50.9801 83.9588 50.71 84.0125C50.1716 84.1198 49.4245 84.2481 48.593 84.3516C47.7615 84.455 47.0048 84.5125 46.4568 84.5431C46.1829 84.5566 45.9606 84.5642 45.8074 84.5642C45.7285 84.5737 45.6487 84.5737 45.5698 84.5642C45.6472 84.5464 45.7261 84.5361 45.8055 84.5336L46.453 84.4799C46.999 84.4359 47.7519 84.3669 48.5815 84.2634C49.411 84.16 50.1582 84.045 50.6985 83.955L51.3384 83.8477C51.4152 83.8262 51.4943 83.8134 51.574 83.8094Z" fill="#263238"/>
<path d="M33.7512 66.061C38.3837 65.4307 43.0832 65.5973 47.7558 65.7659C50.6621 65.8713 53.6221 65.9863 56.3636 66.9576L42.7613 69.1378L33.7512 66.061Z" fill="#455A64"/>
<path d="M33.7512 66.0612L42.7747 69.092H42.7556L56.0877 66.952L56.3559 66.9099V67.0057C54.9076 66.5168 53.4068 66.1998 51.8844 66.0612C50.4112 65.906 48.982 65.8581 47.6217 65.8064C44.8994 65.7029 42.449 65.632 40.3953 65.6531C38.3415 65.6742 36.6786 65.7757 35.5348 65.8773C34.9601 65.9309 34.5195 65.9769 34.2263 66.0114L33.7608 66.0612L34.2129 65.996C34.5175 65.9481 34.9601 65.9002 35.531 65.8389C36.6805 65.7259 38.3358 65.6071 40.3953 65.5841C42.4548 65.5611 44.9032 65.6167 47.6236 65.7163C48.9858 65.7642 50.4169 65.8102 51.894 65.9635C53.4248 66.1023 54.934 66.4206 56.3904 66.9118L56.582 66.9769L56.3904 67.0076L56.1222 67.0517L42.7862 69.1706H42.7766L33.7512 66.0612Z" fill="#263238"/>
<path d="M39.9635 60.361C39.9635 60.361 41.661 58.5639 43.3833 58.2976C45.1056 58.0313 49.0119 57.357 50.9029 60.361C52.0495 62.1873 52.9622 64.1504 53.6195 66.2042L50.5216 69.576L46.4218 69.0913L44.8738 67.4246L39.1072 66.9226L39.9635 60.361Z" fill="#FFC501"/>
<path d="M33.7101 67.2574L36.5838 80.4364C36.5838 80.4364 47.9005 82.6472 53.2936 80.4364L55.6807 67.5659L33.7101 67.2574Z" fill="#455A64"/>
<path d="M33.7101 67.2566H34.1239L35.3289 67.2681L39.8714 67.3198L55.6807 67.5114H55.7362L55.7267 67.5669C55.1194 70.843 54.4603 74.416 53.7783 78.1422C53.6352 78.9201 53.4928 79.6864 53.3511 80.4412V80.468H53.3262C51.8471 81.06 50.2896 81.2669 48.7895 81.378C47.325 81.4732 45.8561 81.4802 44.3908 81.3991C42.9731 81.3263 41.609 81.196 40.3043 81.037C38.9997 80.878 37.7582 80.6883 36.5857 80.4623H36.5608V80.4374C35.6949 76.4237 34.9841 73.1228 34.4879 70.8238C34.2427 69.6743 34.0511 68.7854 33.9132 68.1742C33.8499 67.8715 33.802 67.6416 33.7676 67.4826L33.7197 67.2489C33.7197 67.2489 33.7407 67.3313 33.7771 67.4903C33.8135 67.6493 33.8653 67.883 33.9342 68.1877C34.0703 68.8007 34.2676 69.6973 34.5224 70.843C35.0282 73.1419 35.7523 76.4218 36.6298 80.422L36.5972 80.3914C37.7659 80.6079 39.0092 80.7937 40.312 80.9508C41.6148 81.1079 42.9769 81.2363 44.3927 81.3072C45.8522 81.3897 47.3154 81.3833 48.7742 81.288C50.2685 81.1769 51.8203 80.9681 53.2802 80.3837L53.2514 80.422C53.3913 79.6557 53.535 78.8894 53.6787 78.1135C54.3703 74.393 55.0331 70.82 55.6405 67.5516L55.6864 67.6072L39.9135 67.36L35.3577 67.2834L34.1411 67.2604H33.825L33.7101 67.2566Z" fill="#263238"/>
<g opacity="0.3">
<path d="M55.0079 71.035C48.1685 72.7477 41.17 72.8607 34.4799 70.6288L34.1581 69.1383C34.1581 69.1383 45.7488 72.4258 55.3547 69.1383L55.0079 71.035Z" fill="black"/>
</g>
<path d="M29.4986 68.052C29.7566 68.1629 30.0471 68.1712 30.3109 68.075C30.9316 67.8585 32.3608 67.439 33.4011 67.7627C34.7671 68.1861 40.8096 70.5522 46.3846 69.8242C51.9596 69.0962 55.3545 68.2321 58.0347 68.3068C60.828 68.3854 60.6402 68.2474 60.3337 67.9447C60.0272 67.642 57.8431 65.5193 49.9116 67.096C49.9116 67.096 44.693 67.7034 41.9591 67.2876C39.2252 66.8719 33.7077 64.7971 30.8838 66.2569C29.1097 67.1708 28.9775 67.8164 29.4986 68.052Z" fill="#455A64"/>
<path d="M29.4991 68.0525L29.4033 68.0046C29.3585 67.9763 29.3201 67.9391 29.2904 67.8952C29.2607 67.8514 29.2404 67.8018 29.2309 67.7498C29.2269 67.6626 29.241 67.5755 29.2724 67.4941C29.3037 67.4127 29.3515 67.3386 29.4129 67.2765C29.5666 67.0974 29.7423 66.9384 29.9359 66.8033C30.1762 66.6304 30.4278 66.4736 30.6888 66.334C30.9966 66.1552 31.3263 66.0174 31.6697 65.924C32.5209 65.7162 33.4008 65.6514 34.2733 65.7324C35.3437 65.8197 36.4065 65.9836 37.4536 66.2229C38.603 66.4642 39.8081 66.7976 41.107 67.0773C42.4059 67.357 43.816 67.4145 45.2988 67.3723C46.7817 67.3302 48.3181 67.2229 49.9102 67.0486C51.5389 66.7158 53.1933 66.5235 54.8549 66.4738C55.7305 66.4628 56.6054 66.5269 57.47 66.6654C57.908 66.7392 58.3392 66.8487 58.7593 66.993C59.1923 67.132 59.6032 67.332 59.9797 67.5869L60.1502 67.7153C60.2039 67.7613 60.2594 67.8053 60.3112 67.8551C60.3629 67.9049 60.4108 67.9509 60.4606 68.0046C60.4889 68.0323 60.5123 68.0647 60.5296 68.1003C60.543 68.1235 60.5484 68.1504 60.5449 68.177C60.5408 68.2063 60.5257 68.233 60.5027 68.2517C60.4378 68.2961 60.3626 68.3232 60.2843 68.3302C60.2134 68.3437 60.1445 68.3494 60.0736 68.3571C59.9356 68.3686 59.7958 68.3724 59.6579 68.3762C59.1061 68.3858 58.5582 68.3762 58.016 68.3571C56.949 68.3511 55.8832 68.4279 54.8281 68.587C52.7475 68.8763 50.7512 69.2441 48.8392 69.5238C47.8813 69.6637 46.9522 69.8073 46.0402 69.907L45.3601 69.9721L44.6877 69.9951C44.2413 70.0219 43.8045 69.9951 43.3734 69.9951C41.7801 69.9141 40.1972 69.6916 38.6433 69.3303C37.3591 69.0414 36.0904 68.6871 34.8423 68.2689C34.2905 68.0908 33.7829 67.9011 33.3096 67.7593C32.8704 67.6556 32.4158 67.6335 31.9686 67.6942C31.348 67.7824 30.7369 67.9274 30.1428 68.1272C29.9806 68.1583 29.8135 68.1518 29.6543 68.108C29.6005 68.0939 29.5485 68.074 29.4991 68.0486L29.5393 68.062C29.5782 68.0765 29.6178 68.0887 29.6581 68.0984C29.8157 68.137 29.9799 68.1403 30.139 68.108C30.7315 67.8987 31.343 67.7473 31.9647 67.6559C32.4172 67.5914 32.8777 67.6108 33.3231 67.7134C33.802 67.8551 34.3097 68.041 34.8557 68.2153C35.9592 68.5736 37.2275 68.9491 38.6548 69.2613C40.2086 69.6158 41.7909 69.8312 43.383 69.905C43.8121 69.905 44.247 69.9357 44.6896 69.905L45.3601 69.8782L46.0364 69.8131C46.9445 69.7173 47.8756 69.5717 48.8316 69.4299C50.7474 69.1483 52.736 68.7786 54.8204 68.4873C55.8804 68.3259 56.9515 68.2477 58.0237 68.2536C58.5658 68.267 59.1138 68.2824 59.6617 68.2728C59.7996 68.2728 59.9357 68.2728 60.0717 68.2536C60.1387 68.2536 60.2077 68.2402 60.2633 68.2287C60.3234 68.2225 60.3815 68.2036 60.4338 68.1731C60.4472 68.1597 60.4338 68.1636 60.4338 68.1387C60.4198 68.1123 60.4017 68.0884 60.3801 68.0678C60.3361 68.0199 60.2843 67.9701 60.2364 67.9222C60.1885 67.8743 60.133 67.8341 60.0832 67.7881L59.9165 67.6655C59.547 67.4187 59.1445 67.2252 58.721 67.0907C58.3028 66.9466 57.8735 66.837 57.4374 66.7631C56.5792 66.6254 55.7107 66.5613 54.8415 66.5715C53.1857 66.6234 51.5373 66.8157 49.914 67.1463C48.3181 67.3187 46.774 67.4298 45.2931 67.4643C44.5536 67.4815 43.8294 67.4815 43.1244 67.4413C42.4369 67.4042 41.7537 67.3093 41.0821 67.1578C39.7794 66.8685 38.5705 66.539 37.4306 66.2937C36.3875 66.052 35.3286 65.8849 34.2618 65.7937C33.3958 65.7096 32.5218 65.7698 31.6755 65.9719C31.334 66.0613 31.0061 66.196 30.7003 66.3723C30.4389 66.5095 30.1867 66.6637 29.9455 66.834C29.7524 66.9653 29.5767 67.1204 29.4225 67.2957C29.3617 67.3551 29.3134 67.426 29.2805 67.5043C29.2476 67.5826 29.2307 67.6667 29.2309 67.7517C29.2389 67.8023 29.2576 67.8507 29.2857 67.8936C29.3138 67.9365 29.3506 67.973 29.3937 68.0007L29.4991 68.0525Z" fill="#263238"/>
<path d="M35.5988 60.838C35.5988 60.838 34.8478 62.2346 34.6409 62.6427C34.434 63.0507 34.3612 64.7271 34.4034 65.4129C34.4455 66.0988 34.4474 67.1372 34.5547 67.3479C34.6107 67.4537 34.69 67.5453 34.7866 67.616C34.8831 67.6867 34.9945 67.7346 35.1122 67.756H35.3843C35.5247 68.0259 35.7633 68.2316 36.051 68.3307C36.5012 68.4591 36.9533 68.2867 37.4476 68.007C37.9419 67.7272 39.555 67.1276 39.8749 66.2022C40.1949 65.2769 40.4497 63.0009 40.4497 63.0009C40.4497 63.0009 40.7715 61.2767 40.2773 60.746C39.955 60.3837 39.6759 59.9851 39.4458 59.5582C39.6848 59.2073 39.8725 58.8241 40.0033 58.4202C40.3041 57.6021 40.4554 55.8626 40.2409 55.1116C40.0263 54.3606 40.0493 53.5004 39.6163 53.4774C39.1833 53.4544 37.1028 55.2016 36.7809 56.3511C36.5836 57.1371 36.5042 57.9481 36.5452 58.7574C36.5452 58.7574 35.0624 57.4048 34.526 57.0178C33.9895 56.6308 32.1791 55.8109 31.8093 55.6768C31.5986 55.5982 30.9127 55.376 30.8093 55.353C30.6702 55.3227 30.5248 55.3436 30.3999 55.4118C30.275 55.4801 30.1788 55.591 30.129 55.7243C30.0792 55.8577 30.0791 56.0045 30.1287 56.1379C30.1784 56.2713 30.2744 56.3824 30.3993 56.4507L30.4223 56.4622C31.1886 56.8454 33.9876 59.062 34.3095 59.4701C34.6313 59.8781 35.5988 60.838 35.5988 60.838Z" fill="#FFC501"/>
<path d="M39.6539 53.7516C39.5758 53.8207 39.4932 53.8847 39.4068 53.9431C39.2478 54.0658 39.0236 54.2458 38.7458 54.4834C38.4293 54.7613 38.1287 55.0568 37.8454 55.3685C37.6764 55.5501 37.519 55.742 37.3741 55.9433C37.2194 56.1539 37.1188 56.3993 37.081 56.6579C37.0586 56.9195 37.0873 57.183 37.1653 57.4338C37.2323 57.6809 37.3147 57.9185 37.3952 58.1407C37.541 58.5369 37.7092 58.9246 37.899 59.3017C38.058 59.6235 38.2056 59.8764 38.3071 60.0508C38.364 60.1384 38.4146 60.2299 38.4585 60.3247C38.4385 60.306 38.4211 60.2848 38.4067 60.2615C38.3742 60.2194 38.3301 60.1561 38.2726 60.0699C38.1615 59.9013 38.0063 59.6523 37.8358 59.3323C37.6368 58.9567 37.4615 58.5689 37.3109 58.1713C37.2247 57.9472 37.1423 57.7096 37.0695 57.4567C36.9883 57.1935 36.9584 56.9171 36.9814 56.6425C37.0214 56.3684 37.1287 56.1084 37.2936 55.8858C37.4415 55.683 37.6034 55.4909 37.7783 55.311C38.0663 54.9991 38.3742 54.706 38.6998 54.4336C38.9796 54.2018 39.2171 54.0294 39.3857 53.9144C39.4681 53.8588 39.5351 53.8167 39.5773 53.7899C39.6194 53.7631 39.652 53.7477 39.6539 53.7516Z" fill="#263238"/>
<path d="M39.56 57.069C39.5433 57.2293 39.4923 57.3841 39.4105 57.523C39.2841 57.7931 39.0408 58.1227 38.807 58.4982C38.5999 58.8109 38.4741 59.1705 38.4411 59.5442C38.4434 59.6995 38.4613 59.8542 38.4948 60.0059C38.4948 60.0059 38.4641 59.9695 38.4335 59.8929C38.3928 59.7811 38.3714 59.6632 38.3702 59.5442C38.3831 59.152 38.5051 58.7711 38.7227 58.4445C38.9622 58.0614 39.2094 57.7453 39.3492 57.4866C39.4891 57.228 39.5446 57.069 39.56 57.069Z" fill="#263238"/>
<path d="M38.0892 56.8422C38.1089 56.9972 38.1147 57.1536 38.1064 57.3096C38.1064 57.597 38.1256 57.9936 38.1696 58.4285C38.2137 58.8634 38.2846 59.2561 38.3401 59.5377C38.3806 59.6883 38.4075 59.8422 38.4206 59.9975C38.3523 59.8563 38.302 59.7069 38.2712 59.553C38.1793 59.1874 38.1152 58.8153 38.0796 58.44C38.04 58.0639 38.0278 57.6855 38.0432 57.3077C38.0398 57.1512 38.0553 56.9949 38.0892 56.8422Z" fill="#263238"/>
<path d="M36.8954 60.3574C36.8235 60.2335 36.77 60.1 36.7364 59.9608C36.6343 59.6324 36.5644 59.2949 36.5276 58.9531C36.4901 58.6114 36.4844 58.267 36.5103 57.9243C36.5122 57.7816 36.5361 57.6401 36.5812 57.5047C36.6119 57.5047 36.5372 58.1522 36.6272 58.9435C36.7172 59.7347 36.9165 60.3478 36.8954 60.3574Z" fill="#263238"/>
<path d="M35.7674 65.5624C35.7425 65.5624 35.7674 65.4206 35.8612 65.2846C35.9551 65.1486 36.0528 65.0643 36.0758 65.0815C36.0988 65.0988 36.0279 65.208 35.9455 65.3382C35.8632 65.4685 35.7884 65.5739 35.7674 65.5624Z" fill="#263238"/>
<path d="M35.2114 67.1517C35.2092 67.1448 35.2054 67.1385 35.2004 67.1332C35.1955 67.1279 35.1894 67.1237 35.1827 67.121C35.1761 67.1179 35.1689 67.1163 35.1616 67.1163C35.1543 67.1163 35.1471 67.1179 35.1405 67.121C34.9588 67.2169 34.7891 67.334 34.6348 67.4697C34.8263 67.6823 34.9509 67.7877 35.3858 67.7475C35.3821 67.5368 35.3219 67.331 35.2114 67.1517Z" fill="#263238"/>
<path d="M37.4475 67.6326C37.4322 67.6326 37.3958 67.5234 37.2943 67.3624C37.1658 67.1523 36.9853 66.9789 36.7701 66.8591C36.555 66.7392 36.3125 66.677 36.0662 66.6785C35.8746 66.6785 35.7597 66.7053 35.7559 66.69C35.8488 66.6339 35.9558 66.6054 36.0643 66.6076C36.3262 66.5877 36.5883 66.6452 36.8178 66.7729C37.0474 66.9007 37.2344 67.093 37.3556 67.326C37.4138 67.4178 37.4456 67.5239 37.4475 67.6326Z" fill="#263238"/>
<path d="M37.3893 62.8546C37.2619 62.9112 37.1307 62.9586 36.9965 62.9963C36.8594 63.0446 36.7303 63.1131 36.6133 63.1994C36.4705 63.3034 36.3608 63.4464 36.2972 63.6113C36.2406 63.7784 36.2406 63.9595 36.2972 64.1267C36.3412 64.2634 36.4058 64.3926 36.4888 64.5098C36.5795 64.6154 36.6615 64.7282 36.734 64.847C36.6182 64.7659 36.5166 64.6662 36.4333 64.552C36.3333 64.4316 36.2549 64.2948 36.2014 64.1477C36.1365 63.9617 36.1365 63.7591 36.2014 63.573C36.271 63.3893 36.3945 63.231 36.5559 63.1189C36.6846 63.0319 36.8271 62.9671 36.9773 62.9273C37.11 62.8817 37.249 62.8571 37.3893 62.8546Z" fill="#263238"/>
<path d="M37.1805 63.7615C37.172 63.8566 37.1359 63.9472 37.0768 64.0222C37.0177 64.0972 36.9381 64.1534 36.8476 64.184C36.7571 64.2145 36.6597 64.2181 36.5672 64.1942C36.4747 64.1704 36.3912 64.1202 36.3267 64.0497C36.2623 63.9792 36.2197 63.8915 36.2043 63.7973C36.1888 63.703 36.201 63.6063 36.2396 63.5189C36.2781 63.4315 36.3411 63.3572 36.4211 63.3051C36.5011 63.2529 36.5946 63.2251 36.6901 63.2251C36.8261 63.2316 36.9541 63.2916 37.046 63.3921C37.1379 63.4926 37.1862 63.6254 37.1805 63.7615Z" fill="#263238"/>
<g opacity="0.3">
<path d="M35.8785 66.6596C36.0678 66.5816 36.2683 66.5344 36.4724 66.5198C36.6774 66.495 36.8853 66.512 37.0836 66.5696C37.2845 66.6322 37.4538 66.7693 37.5568 66.9527C37.6526 67.1347 37.4572 67.6041 37.4572 67.6041C37.2915 67.278 37.0488 66.9973 36.7502 66.7861C36.5126 66.6457 36.232 66.5967 35.9609 66.6481" fill="black"/>
</g>
<path d="M39.9009 65.2195C39.9143 65.2444 39.1345 65.708 38.1651 66.256C37.1957 66.8039 36.3949 67.2292 36.3815 67.2139C36.3681 67.1985 37.1478 66.7253 38.1172 66.1774C39.0867 65.6295 39.8875 65.1965 39.9009 65.2195Z" fill="#263238"/>
<path d="M37.8747 64.1855C37.622 64.6669 37.3405 65.1326 37.0317 65.5802C36.7499 66.0455 36.4402 66.4933 36.1045 66.9213C36.3569 66.4391 36.6384 65.9727 36.9475 65.5246C37.2284 65.0594 37.5381 64.6122 37.8747 64.1855Z" fill="#263238"/>
<g opacity="0.3">
<path d="M38.3633 60.1587C38.4112 60.2123 38.4686 60.2621 38.5338 60.2334C38.5656 60.2165 38.5929 60.1922 38.6132 60.1625C38.6336 60.1328 38.6464 60.0986 38.6506 60.0629C38.6545 59.9908 38.6545 59.9185 38.6506 59.8464C38.666 59.446 38.984 59.1318 39.2388 58.8214C39.805 58.1334 40.1337 57.2808 40.1758 56.3907C40.2179 55.5007 39.9712 54.6209 39.4725 53.8824C38.9198 54.27 38.4064 54.7108 37.9399 55.1986C37.4034 55.8174 36.9666 56.3481 37.0126 56.8424C37.0586 57.3367 37.7004 59.3674 38.3633 60.1587Z" fill="black"/>
</g>
<g opacity="0.3">
<path d="M36.5879 58.7373V58.7603C36.6086 59.2646 36.6989 59.7636 36.8561 60.2431C36.2102 59.4379 35.6712 58.5525 35.2526 57.6089L36.5936 58.7373" fill="black"/>
</g>
<path d="M34.1145 58.1277C34.0915 58.1431 33.99 58.0434 33.9057 57.8921C33.8214 57.7407 33.7869 57.6009 33.8137 57.5913C33.8406 57.5817 33.9114 57.6967 33.9938 57.8423C34.0762 57.9879 34.1375 58.1105 34.1145 58.1277Z" fill="#263238"/>
<path d="M34.3644 58.1656C34.3433 58.1828 34.2341 58.0813 34.1575 57.9203C34.0808 57.7594 34.0655 57.6119 34.0923 57.6061C34.1191 57.6004 34.1728 57.7268 34.2456 57.8763C34.3184 58.0257 34.3854 58.1483 34.3644 58.1656Z" fill="#263238"/>
<path d="M34.7616 58.505C34.7348 58.5165 34.6371 58.3402 34.5413 58.1218C34.4682 57.9889 34.4245 57.8419 34.413 57.6907C34.4398 57.6907 34.5375 57.8555 34.6333 58.0835C34.7052 58.2134 34.7489 58.357 34.7616 58.505Z" fill="#263238"/>
<path d="M42.4559 62.4976C42.2952 63.0591 42.313 63.6567 42.507 64.2076C42.7009 64.7585 43.0613 65.2355 43.5383 65.5725C43.1375 65.9009 42.8215 66.3208 42.6171 66.797C42.4127 67.2731 42.3259 67.7915 42.3639 68.3083C42.3716 68.5017 42.4226 68.6909 42.5133 68.8619C42.5591 68.9471 42.6248 69.0198 42.7049 69.0739C42.785 69.128 42.8771 69.1617 42.9731 69.1723C43.3448 69.1953 43.5939 68.7891 43.6552 68.4194C43.7702 68.4101 43.8811 68.372 43.9776 68.3087C44.074 68.2453 44.153 68.1587 44.2072 68.0568C44.2614 67.9549 44.2891 67.8409 44.2877 67.7255C44.2863 67.6101 44.2559 67.4969 44.1992 67.3963C44.751 66.7277 45.8085 66.7181 46.435 66.1185C46.7591 65.7777 46.9612 65.3391 47.0097 64.8713C47.102 64.2862 47.0214 63.687 46.7779 63.1471C46.5339 62.6098 46.1078 62.1762 45.5748 61.9229" fill="#FFC501"/>
<path d="M45.5781 61.9331C45.759 62.0013 45.9273 62.0991 46.0762 62.2224C46.497 62.556 46.8042 63.0118 46.9555 63.5271C47.062 63.8846 47.1036 64.2584 47.0782 64.6306C47.0599 65.0653 46.932 65.4884 46.7065 65.8605C46.5758 66.0598 46.4048 66.2295 46.2045 66.3586C45.9956 66.4888 45.7742 66.5979 45.5436 66.6843C45.0876 66.8759 44.5761 67.0292 44.2389 67.4277V67.374C44.298 67.4803 44.33 67.5995 44.332 67.721C44.334 67.8426 44.306 67.9628 44.2505 68.071C44.195 68.1791 44.1137 68.272 44.0138 68.3412C43.9138 68.4104 43.7984 68.454 43.6776 68.468H43.6546L43.7006 68.4277C43.6631 68.6909 43.531 68.9313 43.3289 69.104C43.2212 69.191 43.0836 69.2323 42.9457 69.219C42.8133 69.2048 42.6897 69.146 42.5952 69.0523C42.4233 68.8679 42.3233 68.6279 42.3135 68.376C42.2634 67.8416 42.3462 67.3032 42.5544 66.8085C42.7627 66.3138 43.0899 65.8783 43.5071 65.5406V65.6038C43.1057 65.324 42.7868 64.9416 42.5837 64.4965C42.426 64.1616 42.3355 63.799 42.3174 63.4294C42.3054 63.1955 42.324 62.961 42.3729 62.732C42.3921 62.6534 42.4112 62.5941 42.4227 62.5557C42.428 62.5351 42.4357 62.5152 42.4457 62.4964C42.3717 62.8008 42.3432 63.1146 42.3614 63.4274C42.3886 63.7893 42.4835 64.1428 42.6411 64.4696C42.8448 64.9001 43.1588 65.2689 43.5511 65.5387L43.5952 65.5693L43.5531 65.6019C43.15 65.9336 42.8345 66.359 42.6341 66.841C42.4337 67.323 42.3545 67.8468 42.4036 68.3664C42.4122 68.5944 42.5019 68.8118 42.6565 68.9795C42.7355 69.0582 42.8387 69.1082 42.9496 69.1213C43.0615 69.13 43.1725 69.0957 43.2599 69.0255C43.4406 68.8669 43.5583 68.6486 43.5914 68.4105V68.3741H43.6297H43.6489C43.7532 68.3617 43.8529 68.3238 43.9392 68.2639C44.0255 68.2039 44.0957 68.1237 44.1438 68.0303C44.1918 67.9368 44.2162 67.833 44.2148 67.7279C44.2133 67.6229 44.1861 67.5198 44.1355 67.4277L44.1182 67.397L44.1393 67.3721C44.3175 67.1695 44.5361 67.0064 44.7811 66.8932C45.0167 66.7782 45.2562 66.7016 45.4861 66.602C45.7109 66.5182 45.9271 66.413 46.1317 66.2878C46.3228 66.1669 46.486 66.0069 46.6107 65.8184C46.8303 65.4594 46.9562 65.0509 46.9766 64.6306C47.0065 64.2669 46.9701 63.9008 46.8693 63.5501C46.727 63.0434 46.4345 62.5919 46.0302 62.255C45.8882 62.136 45.737 62.0283 45.5781 61.9331Z" fill="#263238"/>
<path d="M39.4954 66.78C39.9954 66.4122 40.4188 66.1459 40.8154 65.7071L40.5663 65.7244C40.853 65.389 41.0594 64.9925 41.1698 64.5653" fill="#FFC501"/>
<path d="M41.1698 64.5653C41.1629 64.6929 41.133 64.8181 41.0817 64.9351C40.9714 65.235 40.8093 65.5131 40.6027 65.7569L40.5625 65.6765L40.8115 65.6573L40.9399 65.6477L40.8537 65.7397L40.8058 65.7914C40.5349 66.0704 40.2328 66.3173 39.9053 66.5271C39.7777 66.6252 39.6403 66.7099 39.4954 66.78C39.6054 66.663 39.7288 66.5595 39.8632 66.4715C40.1737 66.2468 40.4647 65.9962 40.733 65.7225L40.779 65.6726L40.8192 65.7569L40.5701 65.7742H40.4533L40.5299 65.6861C40.8012 65.3487 41.0172 64.9704 41.1698 64.5653Z" fill="#263238"/>
<path d="M51.3894 61.3573C51.7719 61.0324 52.2446 60.8323 52.7441 60.7837C53.2436 60.7352 53.746 60.8406 54.1839 61.0858C54.6217 61.331 54.9741 61.7043 55.1938 62.1556C55.4134 62.6068 55.4898 63.1144 55.4126 63.6103L55.8839 63.1984C55.9509 63.4293 55.9509 63.6745 55.8839 63.9053L56.2096 63.7693C56.2024 64.1788 56.0868 64.5791 55.8747 64.9295C55.6627 65.2799 55.3616 65.568 55.0022 65.7643C54.6427 65.9607 54.2377 66.0584 53.8283 66.0475C53.4189 66.0366 53.0196 65.9176 52.6711 65.7024" fill="#FFC501"/>
<path d="M51.8295 62.1075C51.9094 62.1225 51.9872 62.1469 52.0613 62.1803C52.2675 62.2657 52.4609 62.3791 52.636 62.5175C52.8992 62.7238 53.1226 62.9763 53.2951 63.2628C53.5113 63.614 53.6425 64.0109 53.6782 64.4219L53.6878 64.5387L53.5978 64.464L53.5422 64.4199L53.1418 64.0943L53.2165 64.031C53.525 64.6003 53.6123 65.2635 53.4617 65.8932C53.42 66.0767 53.3556 66.2543 53.2702 66.422C53.2438 66.4852 53.2068 66.5435 53.161 66.5944C53.2609 66.3646 53.3391 66.126 53.3947 65.8817C53.521 65.2686 53.426 64.6305 53.1265 64.0808L53.002 63.8586L53.1935 64.0195L53.5958 64.3433L53.6514 64.3893L53.569 64.4314C53.5364 64.036 53.4153 63.653 53.2146 63.3107C53.0511 63.0308 52.8397 62.7818 52.59 62.575C52.3559 62.3896 52.1006 62.2327 51.8295 62.1075Z" fill="#263238"/>
<path d="M52.2948 61.9878C52.2699 62.0031 52.1377 61.8077 51.9116 61.6468C51.6855 61.4859 51.448 61.4322 51.4537 61.4016C51.6398 61.3877 51.8239 61.4468 51.9672 61.5663C52.2162 61.7407 52.3197 61.9782 52.2948 61.9878Z" fill="#263238"/>
<path d="M46.664 62.2596C46.6391 62.2788 46.4513 62.0278 46.1295 61.8305C45.8076 61.6331 45.503 61.5737 45.5087 61.5431C45.7464 61.5511 45.9777 61.6216 46.1795 61.7473C46.3813 61.8731 46.5464 62.0498 46.6582 62.2596H46.664Z" fill="#263238"/>
<path d="M46.4979 61.7389C46.4769 61.758 46.3428 61.6374 46.1569 61.5262C45.9711 61.4151 45.8025 61.3557 45.8082 61.3347C45.814 61.3136 45.9998 61.3347 46.2087 61.4477C46.4175 61.5607 46.5209 61.7216 46.4979 61.7389Z" fill="#263238"/>
<path d="M50.9651 64.7992C50.99 64.7992 50.9249 65.0176 50.7295 65.1823C50.5341 65.3471 50.3195 65.4027 50.3137 65.3739C50.308 65.3452 50.4862 65.2666 50.6624 65.1057C50.8387 64.9448 50.9402 64.7877 50.9651 64.7992Z" fill="#263238"/>
<path d="M50.8705 64.3239C50.8954 64.3334 50.8475 64.502 50.7114 64.661C50.5754 64.8201 50.4164 64.8967 50.403 64.8737C50.3896 64.8507 50.5103 64.7453 50.6348 64.5978C50.7593 64.4503 50.8456 64.3124 50.8705 64.3239Z" fill="#263238"/>
<path d="M54.3418 62.0358C54.3188 62.055 54.1943 61.9419 54.0142 61.8442C53.8341 61.7465 53.6713 61.7121 53.6751 61.6833C53.6789 61.6546 53.8667 61.6507 54.0583 61.7561C54.2499 61.8615 54.3629 62.0205 54.3418 62.0358Z" fill="#263238"/>
<g opacity="0.3">
<path d="M39.5849 66.7437C40.2372 66.6949 40.8442 66.3914 41.2746 65.8988C41.1746 65.9451 41.0646 65.9655 40.9547 65.9582C41.1618 65.7939 41.2955 65.5541 41.3263 65.2915C41.3405 64.984 41.3056 64.6761 41.2229 64.3796C41.1094 64.8674 40.8918 65.3248 40.5849 65.7206C40.6767 65.7211 40.7683 65.714 40.8589 65.6996C40.4806 66.1062 40.0402 66.4502 39.5542 66.7188" fill="black"/>
</g>
<g opacity="0.3">
<path d="M44.2529 67.4657C44.8276 67.1496 45.5231 67.1764 46.1285 66.9369C46.5647 66.7501 46.937 66.4402 47.2 66.0452C47.463 65.6502 47.6053 65.1872 47.6094 64.7126C47.5992 64.2386 47.4664 63.7752 47.224 63.3676C46.9816 62.9601 46.6378 62.6222 46.2262 62.3868C46.6811 62.885 46.9656 63.5151 47.0385 64.1858C47.0998 64.8793 46.8335 65.7989 46.2721 66.2089C45.9322 66.4488 45.5617 66.6421 45.1706 66.7836C44.7874 66.9273 44.3659 67.0595 44.2126 67.4446" fill="black"/>
</g>
<path d="M36.3992 64.0309C36.3782 64.0481 36.3207 64.0079 36.29 63.9332C36.2594 63.8584 36.2709 63.7914 36.29 63.7876C36.3092 63.7837 36.3475 63.8335 36.3743 63.8948C36.4012 63.9562 36.4222 64.0155 36.3992 64.0309Z" fill="white"/>
<g opacity="0.3">
<path d="M53.4601 65.7011C53.6233 65.4277 53.6857 65.1057 53.6364 64.7911L53.9103 65.0976C53.9969 64.8476 54.0306 64.5823 54.0095 64.3185C53.9884 64.0547 53.9129 63.7981 53.7877 63.565C53.5335 63.0986 53.17 62.7009 52.7283 62.4059L53.1478 62.4557C52.9663 62.1505 52.7418 61.8731 52.4811 61.6319C52.3497 61.5122 52.1942 61.4218 52.025 61.367C51.8559 61.3121 51.677 61.294 51.5002 61.3139C51.8278 61.4633 52.9103 62.2316 51.8278 62.1109C51.8278 62.1109 52.7225 62.4519 52.9773 62.9404C53.2321 63.429 53.4965 63.8983 53.5521 64.4444L53.1689 64.0803C53.4391 64.5427 53.5279 65.0889 53.418 65.613" fill="black"/>
</g>
<path d="M45.4079 39.2682C44.8257 40.0506 44.1127 40.7266 43.3005 41.2664C43.1303 41.4002 42.9257 41.4832 42.7104 41.5059C42.4173 41.5059 42.1644 41.3143 41.9575 41.0997C41.3336 40.4502 40.8916 39.6481 40.6757 38.7738C40.4598 37.8995 40.4777 36.9838 40.7275 36.1186C40.745 36.0171 40.7848 35.9208 40.8441 35.8366C40.9034 35.7525 40.9808 35.6826 41.0705 35.632C41.2087 35.595 41.3549 35.6003 41.49 35.6473C42.832 35.9855 44.0892 36.5987 45.1818 37.4482L45.4079 39.2682Z" fill="#FFC501"/>
<path d="M45.4058 39.269C45.3939 39.2284 45.3862 39.1866 45.3828 39.1445C45.3694 39.0563 45.3521 38.9375 45.3292 38.7881C45.2851 38.4701 45.2238 38.0218 45.1471 37.4585L45.1586 37.4777C44.4049 36.902 43.5743 36.4345 42.6911 36.0887C42.4324 35.9872 42.1585 35.8971 41.8749 35.809C41.7332 35.7669 41.5876 35.7305 41.442 35.6922C41.3751 35.6679 41.3042 35.657 41.2331 35.6603C41.1621 35.6636 41.0924 35.6809 41.0281 35.7113C40.9114 35.8015 40.8284 35.9284 40.7925 36.0715C40.7484 36.2209 40.7044 36.3761 40.6737 36.5332C40.6068 36.8533 40.5728 37.1794 40.5722 37.5064C40.5696 38.5963 40.9101 39.6593 41.5454 40.5449C41.6201 40.6445 41.6968 40.7365 41.7734 40.8342C41.85 40.9319 41.9343 41.0143 42.0167 41.0986C42.1652 41.2668 42.3586 41.3891 42.5742 41.4511C42.78 41.4819 42.9897 41.4311 43.1585 41.3093C43.3329 41.202 43.4957 41.0871 43.649 40.976C44.1318 40.621 44.5761 40.2165 44.9747 39.769C45.1184 39.6119 45.2219 39.4836 45.2947 39.3993C45.3253 39.359 45.3521 39.3284 45.3751 39.3016C45.3838 39.2894 45.3941 39.2784 45.4058 39.269C45.4058 39.269 45.4058 39.2805 45.3847 39.3054L45.31 39.4108C45.2429 39.5008 45.1433 39.633 45.0054 39.7939C44.6142 40.2531 44.1735 40.6675 43.6911 41.0296C43.5379 41.1446 43.3769 41.2614 43.1988 41.3745C43.013 41.5073 42.7831 41.5636 42.557 41.5316C42.325 41.4666 42.1159 41.3378 41.9535 41.1599C41.8692 41.0737 41.7887 40.9817 41.7044 40.8917C41.6201 40.8016 41.5473 40.7001 41.4707 40.5966C40.8192 39.6975 40.4697 38.6149 40.4726 37.5045C40.4738 37.1711 40.5085 36.8386 40.576 36.5121C40.6086 36.3512 40.6526 36.1941 40.6986 36.0389C40.7422 35.8737 40.8409 35.7284 40.9783 35.627C41.0529 35.5896 41.1344 35.5677 41.2177 35.5628C41.3011 35.5578 41.3845 35.5699 41.463 35.5983C41.6125 35.6366 41.7581 35.6749 41.9018 35.719C42.1872 35.8033 42.4631 35.8991 42.7236 36.0025C43.6128 36.3553 44.446 36.8354 45.197 37.4279H45.2065V37.4413L45.3598 38.7824C45.3751 38.9318 45.3866 39.0487 45.3962 39.1368C45.403 39.1805 45.4062 39.2247 45.4058 39.269Z" fill="#FFC501"/>
<path d="M46.914 37.3736C46.3155 37.3337 45.7148 37.3388 45.117 37.3889C44.9844 37.9254 44.9693 38.4841 45.0729 39.0269C45.0805 39.1593 45.1356 39.2845 45.2281 39.3794C45.3038 39.4333 45.3924 39.4663 45.4848 39.4752C46.0173 39.5649 46.5632 39.5314 47.0807 39.3775L46.914 37.3736Z" fill="#FFC501"/>
<path d="M46.9114 37.3739C46.9219 37.4179 46.929 37.4628 46.9325 37.508C46.944 37.6172 46.9593 37.7494 46.9785 37.9122C47.0149 38.2609 47.0666 38.7666 47.1222 39.374V39.4104H47.0877C46.8027 39.4969 46.5079 39.5471 46.2103 39.5598C46.048 39.5674 45.8854 39.5636 45.7236 39.5483C45.6413 39.5483 45.5589 39.5291 45.4746 39.5157C45.3841 39.5045 45.2968 39.4752 45.2179 39.4295C45.131 39.3657 45.0703 39.2724 45.0474 39.1671C45.0248 39.0743 45.0081 38.9803 44.9975 38.8854C44.9743 38.7062 44.9602 38.5259 44.9554 38.3452C44.9398 38.0147 44.9786 37.684 45.0703 37.3662V37.3394H45.0991C45.5345 37.3064 45.9714 37.3 46.4076 37.3202C46.5647 37.3202 46.6873 37.3375 46.7716 37.3451C46.815 37.3474 46.8581 37.3544 46.9 37.3662C46.8566 37.3695 46.813 37.3695 46.7697 37.3662H46.4057C46.0934 37.3662 45.6393 37.3662 45.1067 37.4217L45.1431 37.3911C45.059 37.703 45.0248 38.0263 45.0416 38.349C45.0484 38.5266 45.0644 38.7037 45.0895 38.8797C45.1144 39.0579 45.1278 39.2628 45.2658 39.3548C45.4112 39.4174 45.5673 39.4518 45.7256 39.4563C45.8828 39.4719 46.0409 39.477 46.1988 39.4717C46.4889 39.4616 46.7765 39.4152 47.0551 39.3337L47.0245 39.3797C46.9785 38.7896 46.9459 38.2915 46.9249 37.939C46.9153 37.7723 46.9076 37.6363 46.9019 37.5252C46.8999 37.4746 46.9031 37.4238 46.9114 37.3739Z" fill="#FFC501"/>
<path d="M44.9977 39.021C44.8553 39.0524 44.7104 39.0704 44.5647 39.0747C44.2984 39.0976 43.9286 39.134 43.5244 39.1858C43.1202 39.2375 42.7581 39.2988 42.4879 39.3448C42.3469 39.3803 42.2023 39.4002 42.0569 39.4042C42.1902 39.3441 42.3305 39.3009 42.4745 39.2758C42.8163 39.1935 43.1623 39.1295 43.511 39.0842C43.8592 39.0377 44.2097 39.0095 44.5609 38.9999C44.7068 38.988 44.8536 38.9951 44.9977 39.021Z" fill="#263238"/>
<path d="M44.7903 38.6643C44.7788 38.6912 44.1791 38.4881 43.4301 38.2812C42.681 38.0743 42.0622 37.9248 42.0679 37.898C42.2076 37.8979 42.3467 37.9159 42.4817 37.9517C42.7327 37.9995 43.0795 38.08 43.4569 38.1873C43.8343 38.2946 44.1696 38.4076 44.4148 38.4996C44.5466 38.5379 44.6728 38.5933 44.7903 38.6643Z" fill="#263238"/>
<path d="M45.2477 39.4422C45.2477 39.4422 45.1385 39.3713 45.0217 39.1989C44.8707 38.9733 44.7803 38.7127 44.7592 38.4421C44.7387 38.1713 44.7875 37.8996 44.901 37.6528C44.9423 37.5476 45.0079 37.4537 45.0925 37.3788C45.0586 37.4815 45.0183 37.582 44.9718 37.6796C44.884 37.921 44.8474 38.1781 44.8646 38.4345C44.8864 38.6901 44.9621 38.9382 45.0868 39.1625C45.1456 39.2526 45.1993 39.346 45.2477 39.4422Z" fill="#263238"/>
<path d="M50.6371 36.2095C50.5618 35.9452 50.4016 35.7129 50.1812 35.5486C49.867 35.357 49.4608 35.4509 49.1179 35.5869C48.1183 35.982 47.2629 36.6724 46.6656 37.5659L46.8362 39.2135C47.2943 39.83 47.8549 40.3633 48.4933 40.7903C49.0585 41.1428 49.8344 41.2424 50.3728 40.8535C50.8824 40.4837 51.0433 39.8017 51.0835 39.1752C51.148 38.1661 50.9957 37.155 50.6371 36.2095Z" fill="#FFC501"/>
<path d="M50.6376 36.2091C50.6626 36.2574 50.6843 36.3073 50.7027 36.3585C50.741 36.4562 50.7947 36.6056 50.8521 36.7991C51.0139 37.3495 51.1072 37.9176 51.1299 38.4908C51.1496 38.8873 51.1278 39.2847 51.0648 39.6767C51.0282 39.8966 50.9638 40.111 50.8732 40.3147C50.7715 40.5326 50.6199 40.7236 50.4306 40.8722C50.2176 41.0182 49.9726 41.111 49.7162 41.1427C49.4598 41.1744 49.1996 41.144 48.9574 41.0542C48.83 41.0122 48.7063 40.9596 48.5876 40.8971C48.47 40.8299 48.3562 40.7564 48.2466 40.6767C48.0255 40.514 47.8143 40.3381 47.6144 40.1499C47.3162 39.8735 47.0448 39.5694 46.804 39.2418V39.2284C46.7465 38.6536 46.691 38.1019 46.6373 37.5789V37.5635L46.6469 37.5482C47.036 36.9709 47.5346 36.4756 48.1144 36.0903C48.3576 35.928 48.6139 35.7863 48.8808 35.6669C49.1077 35.5569 49.3489 35.4789 49.5973 35.4351C49.8031 35.3982 50.0153 35.4326 50.1988 35.5328C50.3299 35.6154 50.4369 35.731 50.5092 35.868C50.5543 35.9507 50.5934 36.0365 50.6261 36.1248C50.6385 36.1551 50.6481 36.1865 50.6548 36.2186C50.6452 36.2186 50.605 36.0922 50.4824 35.8834C50.4085 35.7554 50.3038 35.6481 50.1778 35.5711C50.0008 35.4801 49.7979 35.4523 49.603 35.4925C49.3612 35.5388 49.1271 35.6187 48.9076 35.7301C48.0191 36.1386 47.2616 36.786 46.7197 37.5999V37.5693C46.7753 38.0923 46.8327 38.6441 46.8941 39.2169L46.8845 39.1939C47.122 39.5161 47.3895 39.815 47.6834 40.0867C47.8794 40.2724 48.0867 40.4458 48.3041 40.6059C48.51 40.7637 48.7404 40.8866 48.9861 40.9699C49.2138 41.0551 49.4585 41.085 49.7 41.057C49.9415 41.029 50.1729 40.944 50.3751 40.8089C50.7137 40.5186 50.9327 40.1132 50.9901 39.6709C51.0558 39.2851 51.0814 38.8934 51.0667 38.5023C51.0506 37.934 50.9683 37.3695 50.8215 36.8202C50.7697 36.6286 50.7219 36.4754 50.6912 36.3738C50.6676 36.3209 50.6496 36.2657 50.6376 36.2091Z" fill="#FFC501"/>
<path d="M46.9326 39.4269C46.7509 39.1215 46.6549 38.7727 46.6548 38.4173C46.6259 38.0622 46.692 37.7057 46.8464 37.3846C46.7935 37.7244 46.7659 38.0677 46.764 38.4115C46.793 38.754 46.8493 39.0935 46.9326 39.4269Z" fill="#263238"/>
<path d="M48.7261 37.5099C48.7261 37.5386 48.2912 37.6459 47.7816 37.8681C47.272 38.0904 46.8888 38.3337 46.8716 38.3088C47.4005 37.8704 48.0442 37.5931 48.7261 37.5099Z" fill="#263238"/>
<path d="M48.9175 39.0219C48.9079 39.0507 48.4156 38.9051 47.7968 38.7882C47.1779 38.6714 46.6664 38.6215 46.6683 38.5966C47.4397 38.5846 48.2053 38.7313 48.9175 39.0277V39.0219Z" fill="#263238"/>
<g opacity="0.2">
<path d="M44.8752 38.7411C44.3105 38.5072 43.7257 38.325 43.128 38.197C43.0406 38.1646 42.9466 38.1539 42.8542 38.1659C42.7617 38.1779 42.6736 38.2123 42.5973 38.2659C42.5441 38.3387 42.5097 38.4235 42.4973 38.5128C42.485 38.602 42.495 38.693 42.5264 38.7775C42.5464 38.9104 42.6097 39.033 42.7065 39.1261C42.854 39.214 43.0295 39.2421 43.197 39.2047L45.0036 39.0342L44.8752 38.7411Z" fill="black"/>
</g>
<g opacity="0.2">
<path d="M46.7185 38.5719L48.9083 39.0049C48.9639 39.0164 49.0386 39.0164 49.0578 38.9646C49.0769 38.9129 49.0424 38.8842 49.0137 38.8535C48.799 38.6435 48.5259 38.5033 48.2301 38.4512C47.936 38.401 47.6375 38.3804 47.3393 38.3899C47.5646 38.2965 47.7829 38.187 47.9926 38.0623C48.0519 38.0259 48.1209 37.9684 48.1056 37.8994C48.0903 37.8305 47.9638 37.8132 47.8795 37.8324C47.4327 37.9388 47.0041 38.1105 46.6074 38.342" fill="black"/>
</g>
<path d="M27.4459 48.9924L41.5655 53.4678C41.5655 53.4678 42.3759 53.2226 42.0329 52.0693L27.0244 47.2318L27.4459 48.9924Z" fill="#455A64"/>
<path d="M27.447 48.9925C27.447 48.9925 27.4336 48.9561 27.4144 48.8814L27.3301 48.5481L27.0045 47.2357L26.9949 47.1993L27.0332 47.2108C29.6272 48.0289 35.1428 49.7953 41.511 51.849L42.0494 52.0214H42.0743V52.0464C42.1647 52.3195 42.1812 52.6116 42.1222 52.8931C42.0866 53.032 42.0183 53.1603 41.923 53.2673C41.8277 53.3743 41.7081 53.4569 41.5742 53.5081H41.5608H41.5436L31.4855 50.2991L28.5103 49.3412L27.7229 49.0864L27.5179 49.0175L27.4508 48.9925C27.4755 48.9972 27.4999 49.0036 27.5236 49.0117L27.7363 49.0749L28.5467 49.3221L31.5392 50.2551L41.5819 53.4277H41.5532C41.6709 53.3808 41.7758 53.3067 41.8594 53.2114C41.943 53.1162 42.0028 53.0025 42.034 52.8797C42.0887 52.6164 42.0722 52.3433 41.9861 52.0885L42.0187 52.1211L41.4804 51.9486C35.1122 49.8949 29.6023 48.1074 27.0198 47.2587L27.0485 47.2319C27.1788 47.8067 27.2784 48.2396 27.3493 48.5404C27.38 48.6879 27.4049 48.7991 27.424 48.8795C27.4432 48.96 27.447 48.9925 27.447 48.9925Z" fill="#263238"/>
<path d="M39.3208 52.7536L41.5642 53.4682C41.5642 53.4682 42.3746 53.223 42.0317 52.0697L39.7902 51.3378L39.3208 52.7536Z" fill="#E0E0E0"/>
<path d="M39.3224 52.7533C39.3224 52.7533 39.353 52.6231 39.4258 52.3702C39.4986 52.1173 39.6059 51.7629 39.7438 51.3184L39.7553 51.282L39.7937 51.2935L42.0486 52.0157H42.0735V52.0406C42.0735 52.0617 42.0831 52.0847 42.0888 52.1077C42.1732 52.3777 42.1785 52.6662 42.1041 52.9392C42.064 53.0669 41.9952 53.1838 41.9029 53.2808C41.8105 53.3778 41.6972 53.4523 41.5715 53.4986H41.56H41.5447C40.8761 53.2821 40.3109 53.0905 39.9201 52.9564L39.468 52.7993C39.4153 52.7837 39.3641 52.7639 39.3147 52.7399C39.3751 52.7509 39.4347 52.7663 39.4929 52.7859L39.9622 52.9219C40.3626 53.0407 40.9202 53.2074 41.5715 53.4105H41.5447C41.6554 53.3673 41.7549 53.2998 41.8358 53.2129C41.9167 53.126 41.977 53.022 42.0122 52.9085C42.0779 52.6563 42.0713 52.3908 41.993 52.1422L41.9777 52.0771L42.0103 52.1096L39.7611 51.3682L39.8109 51.3433C39.6691 51.7667 39.5465 52.1096 39.4603 52.3587C39.4201 52.4717 39.3856 52.5656 39.3588 52.6441C39.35 52.6816 39.3378 52.7181 39.3224 52.7533Z" fill="#263238"/>
<path d="M18.6942 47.1365C18.6942 47.1365 23.6389 43.4582 23.9244 43.4179C24.3073 43.3969 24.691 43.3969 25.0739 43.4179C25.0739 43.4179 26.5031 42.8106 27.3614 43.4007C28.2197 43.9908 30.5091 46.7687 30.5091 46.7687L32.103 50.1214C32.103 50.1214 31.08 50.8973 30.2217 50.1214C29.3634 49.3455 28.2197 47.7496 28.2197 47.7496L26.9571 46.8032L27.8154 50.2018C27.8154 50.2018 29.1239 52.6924 28.7963 53.1848C28.4687 53.6771 27.8154 53.43 27.2426 53.1848C26.6698 52.9395 25.6084 51.0199 25.6084 51.0199C25.6084 51.0199 24.4589 51.5103 23.8094 51.3877C23.8094 51.3877 23.6064 52.4088 22.8285 52.4912C22.0507 52.5736 21.8496 52.4491 21.8496 52.4491L21.1541 51.2249C21.1541 51.2249 20.2958 51.9586 19.6425 51.2651C18.9892 50.5716 17.8762 48.8129 18.6942 47.1365Z" fill="#F5F5F5"/>
<path d="M21.1453 51.2256C21.0152 51.0899 20.906 50.9356 20.8215 50.7677C20.5882 50.3782 20.4206 49.9529 20.3253 49.509C20.2601 49.0513 20.3526 48.5851 20.5878 48.1871C20.6549 48.067 20.7366 47.9557 20.8311 47.8557C20.8981 47.7848 20.9403 47.7522 20.946 47.756C20.9518 47.7599 20.8042 47.9189 20.6491 48.2197C20.443 48.6105 20.3639 49.0558 20.423 49.4937C20.5187 49.9266 20.6734 50.3443 20.8828 50.7351C21.038 51.0397 21.1568 51.216 21.1453 51.2256Z" fill="#263238"/>
<path d="M23.8288 51.5392C23.802 51.5506 23.62 51.0928 23.3422 50.5582C23.0644 50.0237 22.8019 49.6003 22.8249 49.6003C23.2953 50.1704 23.6376 50.8348 23.8288 51.5487V51.5392Z" fill="#263238"/>
<path d="M25.6455 51.0309C25.545 50.8974 25.4601 50.7527 25.3926 50.5998C25.0302 49.8794 24.7482 49.1213 24.5516 48.3392C24.5034 48.1789 24.4732 48.0138 24.4615 47.8468C24.5287 47.9994 24.5819 48.1578 24.6206 48.32C24.7106 48.615 24.839 49.0193 25.0037 49.458C25.1685 49.8967 25.3332 50.2875 25.4559 50.5692C25.5323 50.7173 25.5958 50.8718 25.6455 51.0309Z" fill="#263238"/>
<path d="M25.5235 45.0211C25.4659 44.928 25.414 44.8314 25.3684 44.7318C25.2383 44.5072 25.0635 44.3116 24.8549 44.1571C24.6435 44.0051 24.4027 43.8988 24.148 43.8448C24.0391 43.8307 23.931 43.8109 23.8242 43.7854C23.9333 43.7538 24.0485 43.7498 24.1595 43.7739C24.4323 43.8101 24.6917 43.9141 24.9139 44.0764C25.1362 44.2387 25.3142 44.4542 25.4316 44.7031C25.4882 44.7998 25.5198 44.9091 25.5235 45.0211Z" fill="#263238"/>
<path d="M27.1457 50.5551C26.9983 50.6818 26.8181 50.7642 26.6258 50.7927C26.4336 50.8211 26.2372 50.7946 26.0594 50.7161C26.0594 50.6873 26.3143 50.741 26.6112 50.6931C26.9082 50.6452 27.1342 50.5207 27.1457 50.5551Z" fill="#263238"/>
<path d="M26.8568 45.0211C26.7918 45.2984 26.7654 45.5833 26.7783 45.8679C26.8238 46.1491 26.9069 46.423 27.0254 46.6821C27.0158 46.6821 26.9449 46.617 26.8645 46.4771C26.7632 46.2916 26.7001 46.0878 26.6787 45.8776C26.6573 45.6673 26.6781 45.455 26.74 45.2529C26.7898 45.0996 26.8453 45.0153 26.8568 45.0211Z" fill="#263238"/>
<path d="M18.6917 47.1366C18.6917 47.1366 18.6803 47.173 18.6553 47.2382C18.6133 47.3343 18.5768 47.4328 18.5461 47.5332C18.4277 47.9205 18.3911 48.3283 18.4389 48.7306C18.5228 49.3719 18.75 49.9861 19.1036 50.5276C19.2075 50.6928 19.3213 50.8515 19.4447 51.0027C19.5636 51.1715 19.7139 51.3159 19.8872 51.428C20.0784 51.5309 20.3011 51.5589 20.5118 51.5066C20.7355 51.4494 20.944 51.3441 21.1229 51.1981L21.1536 51.1732L21.1727 51.2077L21.8701 52.4319L21.8567 52.4185C22.043 52.4734 22.2377 52.4941 22.4314 52.4798C22.6378 52.4832 22.8433 52.4541 23.0407 52.3936C23.4238 52.2327 23.6556 51.8035 23.7572 51.3801V51.3418H23.7955C24.0899 51.3743 24.3879 51.3496 24.6729 51.269C24.9789 51.1939 25.2787 51.0952 25.5695 50.974L25.6059 50.9587L25.6251 50.9932C25.9124 51.5111 26.2323 52.0102 26.583 52.4875C26.675 52.6101 26.7746 52.727 26.8723 52.84C26.9708 52.9527 27.0866 53.049 27.2152 53.1255C27.4939 53.2633 27.7916 53.3589 28.0984 53.409C28.2483 53.4298 28.4009 53.4058 28.5371 53.34C28.6015 53.3025 28.6575 53.2523 28.7019 53.1925C28.7484 53.1393 28.7748 53.0715 28.7766 53.0009C28.7595 52.6792 28.6889 52.3626 28.5678 52.0641C28.334 51.4342 28.0601 50.8198 27.7478 50.2249V50.2134C27.4719 49.1252 27.1846 47.9815 26.8895 46.8167L26.855 46.6806L26.9681 46.7649L27.7133 47.3205L28.2344 47.7037C28.7422 48.4113 29.2931 49.0869 29.8839 49.7268C30.0271 49.8823 30.1821 50.0264 30.3476 50.1579C30.5113 50.2798 30.703 50.3589 30.9051 50.3878C31.3149 50.4235 31.7237 50.3084 32.0546 50.064L32.0412 50.1234C31.4894 48.9739 30.9587 47.8435 30.4491 46.7726V46.7822C29.6138 45.7783 28.8034 44.8338 27.9815 44.0062C27.7832 43.7993 27.57 43.6072 27.3436 43.4314C27.1178 43.2739 26.8522 43.1829 26.5773 43.169C26.0566 43.1424 25.5364 43.2314 25.0542 43.4295H25.0388C24.7476 43.4161 24.4641 43.4084 24.1863 43.4104C24.0552 43.3971 23.923 43.4189 23.8031 43.4736C23.6882 43.5425 23.5752 43.6115 23.466 43.6862C23.0272 43.9774 22.623 44.261 22.2437 44.5311L20.3374 45.9565L19.119 46.8416L18.8029 47.0715C18.7301 47.1232 18.6917 47.1462 18.6917 47.1462L18.7952 47.0638C18.868 47.0083 18.9715 46.9278 19.1075 46.8262L20.3144 45.9258C20.8394 45.5427 21.4831 45.0618 22.2303 44.5196C22.6134 44.2476 23.01 43.9602 23.4487 43.6652C23.5579 43.5924 23.671 43.5215 23.7878 43.4506C23.9175 43.3897 24.0608 43.3639 24.2036 43.3759C24.4833 43.3759 24.7687 43.3759 25.0618 43.3912H25.0446C25.2865 43.294 25.5374 43.2209 25.7937 43.1728C26.0595 43.1182 26.3315 43.1001 26.6022 43.1191C26.8882 43.1356 27.1641 43.2311 27.3991 43.395C27.63 43.5705 27.8477 43.7626 28.0505 43.9698C28.8781 44.8012 29.6905 45.7438 30.5296 46.7458C31.0405 47.8186 31.5731 48.9356 32.1274 50.0965L32.1446 50.1329L32.112 50.1559C31.9368 50.2796 31.7427 50.374 31.5373 50.4356C31.3303 50.5021 31.1114 50.523 30.8955 50.497C30.6771 50.4668 30.4696 50.3825 30.292 50.2517C30.1228 50.1163 29.964 49.9683 29.8169 49.8092C29.2231 49.1659 28.6691 48.4871 28.1578 47.7765L28.1693 47.7861L27.6482 47.4029L26.901 46.8454L26.9796 46.7937C27.2746 47.9604 27.5543 49.1042 27.8379 50.1923V50.1808C28.1508 50.7803 28.4254 51.3991 28.6597 52.0334C28.7861 52.3439 28.8581 52.6737 28.8724 53.0086C28.8697 53.0535 28.8613 53.0979 28.8475 53.1408C28.8318 53.1842 28.8085 53.2244 28.7785 53.2596C28.7259 53.3279 28.6609 53.3857 28.5869 53.4301C28.4335 53.5064 28.2605 53.5344 28.0907 53.5105C27.774 53.4573 27.4667 53.3579 27.1788 53.2155C27.0399 53.1346 26.9156 53.031 26.811 52.909C26.7056 52.7921 26.6079 52.6733 26.5159 52.5507C26.1654 52.0686 25.8455 51.5651 25.558 51.043L25.6136 51.0621C25.3173 51.1832 25.0125 51.2824 24.7017 51.3591C24.4056 51.4404 24.0967 51.4645 23.7917 51.43L23.8376 51.3974C23.7868 51.6219 23.6974 51.8358 23.5733 52.0296C23.454 52.2227 23.279 52.375 23.0713 52.4664C22.8662 52.5305 22.652 52.5609 22.4372 52.5565C22.2281 52.5733 22.0178 52.5485 21.8184 52.4837V52.4741L21.1268 51.246L21.1766 51.2556C20.9893 51.4075 20.7708 51.5161 20.5367 51.5736C20.3112 51.6285 20.0734 51.5971 19.87 51.4855C19.6907 51.3691 19.5353 51.2196 19.4121 51.0449C19.2891 50.8901 19.1752 50.7282 19.0711 50.5602C18.7174 50.0109 18.4927 49.3887 18.414 48.7402C18.3697 48.3334 18.4128 47.9219 18.5404 47.5332C18.5722 47.4328 18.6113 47.3348 18.6573 47.2401C18.6745 47.1692 18.6917 47.1366 18.6917 47.1366Z" fill="#263238"/>
<path d="M84.3541 90.62C84.3541 90.62 84.2833 90.62 84.1492 90.62H83.5495H81.2505L72.7769 90.5817L44.8213 90.4744C33.9011 90.4553 24.0174 90.4859 16.8618 90.5357L8.38626 90.597L6.08728 90.6143H5.27881H5.48188L6.08154 90.6028L8.38052 90.5645L16.8542 90.4668C24.0078 90.3997 33.8934 90.3576 44.8136 90.3767C55.7338 90.3959 65.6136 90.461 72.7692 90.5127L81.2429 90.5817L83.5418 90.6066H84.1415L84.3541 90.62Z" fill="#263238"/>
<path d="M34.5687 53.4479L34.628 53.5494C34.6967 53.6626 34.7965 53.7537 34.9154 53.8119L35.0208 53.8655L34.9192 53.9249C34.8061 53.9936 34.715 54.0933 34.6568 54.2123L34.6031 54.3177L34.5437 54.2161C34.4751 54.1029 34.3753 54.0118 34.2564 53.9536L34.151 53.9L34.2525 53.8406C34.3657 53.7719 34.4568 53.6722 34.515 53.5532L34.5687 53.4479Z" fill="#FFC501"/>
<path d="M52.325 47.9861L52.4265 48.1528C52.5385 48.34 52.7022 48.491 52.8978 48.5877L53.0722 48.6739L52.9055 48.7754C52.7187 48.8881 52.5679 49.0515 52.4706 49.2467L52.3844 49.421L52.2848 49.2544C52.1709 49.0679 52.0069 48.9172 51.8115 48.8195L51.6372 48.7333L51.8039 48.6336C51.9934 48.5218 52.1465 48.3574 52.2445 48.1604L52.325 47.9861Z" fill="#FFC501"/>
<path d="M47.7843 50.1121L47.8456 50.2137C47.9135 50.3268 48.0126 50.4179 48.131 50.4761L48.2364 50.5279L48.1349 50.5892C48.0222 50.6577 47.9312 50.7566 47.8724 50.8746L47.8207 50.98L47.7594 50.8804C47.6916 50.7667 47.5925 50.6749 47.4739 50.616L47.3685 50.5643L47.4682 50.5029C47.5823 50.4357 47.6742 50.3364 47.7325 50.2175L47.7843 50.1121Z" fill="#FFC501"/>
<path d="M54.5734 52.509L54.6328 52.6105C54.702 52.7233 54.8016 52.8143 54.9202 52.873L55.0255 52.9247L54.924 52.986C54.8105 53.0534 54.7192 53.1527 54.6615 53.2715L54.6079 53.3768L54.5485 53.2772C54.4799 53.1634 54.3802 53.0717 54.2611 53.0128L54.1558 52.9611L54.2573 52.8998C54.3708 52.8324 54.4621 52.7331 54.5198 52.6143L54.5734 52.509Z" fill="#FFC501"/>
<path d="M42.6991 55.6443L42.7604 55.7459C42.8278 55.8594 42.927 55.9507 43.0458 56.0084L43.1512 56.062L43.0497 56.1214C42.9369 56.1906 42.8459 56.2902 42.7872 56.4088L42.7355 56.5141L42.6742 56.4126C42.6062 56.2995 42.5071 56.2083 42.3887 56.1501L42.2833 56.0965L42.3829 56.0371C42.4962 55.9679 42.5878 55.8684 42.6473 55.7497L42.6991 55.6443Z" fill="#FFC501"/>
<path d="M41.0934 50.0975L41.1279 50.1569C41.1681 50.2225 41.2258 50.2755 41.2946 50.3101L41.3559 50.3408L41.2984 50.3772C41.2311 50.4154 41.1775 50.4736 41.1451 50.5439L41.1145 50.6052L41.0781 50.5458C41.0392 50.4791 40.9811 50.4256 40.9114 50.3925L40.8501 50.3619L40.9095 50.3255C40.9762 50.2866 41.0296 50.2285 41.0628 50.1588L41.0934 50.0975Z" fill="#FFC501"/>
<path d="M41.5174 57.6321L41.5518 57.6896C41.5915 57.7562 41.6493 57.81 41.7185 57.8448L41.7798 57.8735L41.7224 57.9099C41.6556 57.9488 41.6022 58.0069 41.5691 58.0766L41.5384 58.1379L41.502 58.0785C41.4618 58.0129 41.4041 57.9599 41.3354 57.9253L41.274 57.8946L41.3334 57.8601C41.399 57.8199 41.4521 57.7622 41.4867 57.6934L41.5174 57.6321Z" fill="#FFC501"/>
<path d="M46.3493 55.3927L46.3837 55.4521C46.424 55.5177 46.4817 55.5708 46.5504 55.6054L46.6117 55.636L46.5543 55.6705C46.4875 55.7093 46.4341 55.7674 46.401 55.8372L46.3703 55.9004L46.3339 55.841C46.2942 55.775 46.2363 55.7218 46.1673 55.6877L46.106 55.6571L46.1653 55.6207C46.2313 55.5809 46.2845 55.5231 46.3186 55.454L46.3493 55.3927Z" fill="#FFC501"/>
<path d="M52.2443 56.8188L52.2788 56.8782C52.3191 56.9438 52.3768 56.9969 52.4455 57.0315L52.5068 57.0622L52.4493 57.0986C52.3821 57.1367 52.3285 57.195 52.2961 57.2652L52.2654 57.3265L52.2443 57.2595C52.2046 57.1935 52.1468 57.1403 52.0777 57.1062L52.0164 57.0756L52.0757 57.0392C52.1417 56.9994 52.1949 56.9416 52.229 56.8725L52.2443 56.8188Z" fill="#FFC501"/>
<path d="M38.7238 47.6342L38.8483 47.843C38.9886 48.0768 39.1935 48.2651 39.4384 48.3852L39.6549 48.4924L39.4479 48.6189C39.2141 48.7589 39.0252 48.963 38.9039 49.207L38.7966 49.4254L38.672 49.2166C38.5317 48.9828 38.3268 48.7945 38.082 48.6744L37.8655 48.5672L38.0686 48.4465C38.3017 48.3047 38.4902 48.1002 38.6126 47.8564L38.7238 47.6342Z" fill="#FFC501"/>
<path d="M49.5623 51.6867L49.6887 51.8936C49.8287 52.1275 50.0328 52.3163 50.2769 52.4377L50.4953 52.545L50.2864 52.6695C50.053 52.8103 49.8649 53.0151 49.7443 53.2596L49.637 53.478L49.5105 53.2692C49.3704 53.0359 49.1663 52.8477 48.9224 52.727L48.704 52.6178L48.9128 52.4933C49.1467 52.353 49.3349 52.1481 49.455 51.9032L49.5623 51.6867Z" fill="#FFC501"/>
<path d="M49.5819 57.0522L49.6452 57.1576C49.717 57.2752 49.8206 57.3702 49.944 57.4315L50.0532 57.4852L49.9479 57.5484C49.8306 57.6192 49.7362 57.7223 49.6758 57.8453L49.6203 57.9545L49.557 57.8511C49.4863 57.7332 49.3832 57.6382 49.2601 57.5771L49.1509 57.5216L49.2563 57.4583C49.3739 57.388 49.4685 57.2848 49.5283 57.1614L49.5819 57.0522Z" fill="#FFC501"/>
<g opacity="0.8">
<path d="M34.5687 53.4479L34.628 53.5494C34.6967 53.6626 34.7965 53.7537 34.9154 53.8119L35.0208 53.8655L34.9192 53.9249C34.8061 53.9936 34.715 54.0933 34.6568 54.2123L34.6031 54.3177L34.5437 54.2161C34.4751 54.1029 34.3753 54.0118 34.2564 53.9536L34.151 53.9L34.2525 53.8406C34.3657 53.7719 34.4568 53.6722 34.515 53.5532L34.5687 53.4479Z" fill="white"/>
<path d="M52.325 47.9861L52.4265 48.1528C52.5385 48.34 52.7022 48.491 52.8978 48.5877L53.0722 48.6739L52.9055 48.7754C52.7187 48.8881 52.5679 49.0515 52.4706 49.2467L52.3844 49.421L52.2848 49.2544C52.1709 49.0679 52.0069 48.9172 51.8115 48.8195L51.6372 48.7333L51.8039 48.6336C51.9934 48.5218 52.1465 48.3574 52.2445 48.1604L52.325 47.9861Z" fill="white"/>
<path d="M47.7843 50.1121L47.8456 50.2137C47.9135 50.3268 48.0126 50.4179 48.131 50.4761L48.2364 50.5279L48.1349 50.5892C48.0222 50.6577 47.9312 50.7566 47.8724 50.8746L47.8207 50.98L47.7594 50.8804C47.6916 50.7667 47.5925 50.6749 47.4739 50.616L47.3685 50.5643L47.4682 50.5029C47.5823 50.4357 47.6742 50.3364 47.7325 50.2175L47.7843 50.1121Z" fill="white"/>
<path d="M54.5734 52.509L54.6328 52.6105C54.702 52.7233 54.8016 52.8143 54.9202 52.873L55.0255 52.9247L54.924 52.986C54.8105 53.0534 54.7192 53.1527 54.6615 53.2715L54.6079 53.3768L54.5485 53.2772C54.4799 53.1634 54.3802 53.0717 54.2611 53.0128L54.1558 52.9611L54.2573 52.8998C54.3708 52.8324 54.4621 52.7331 54.5198 52.6143L54.5734 52.509Z" fill="white"/>
<path d="M42.6991 55.6443L42.7604 55.7459C42.8278 55.8594 42.927 55.9507 43.0458 56.0084L43.1512 56.062L43.0497 56.1214C42.9369 56.1906 42.8459 56.2902 42.7872 56.4088L42.7355 56.5141L42.6742 56.4126C42.6062 56.2995 42.5071 56.2083 42.3887 56.1501L42.2833 56.0965L42.3829 56.0371C42.4962 55.9679 42.5878 55.8684 42.6473 55.7497L42.6991 55.6443Z" fill="white"/>
<path d="M41.0934 50.0975L41.1279 50.1569C41.1681 50.2225 41.2258 50.2755 41.2946 50.3101L41.3559 50.3408L41.2984 50.3772C41.2311 50.4154 41.1775 50.4736 41.1451 50.5439L41.1145 50.6052L41.0781 50.5458C41.0392 50.4791 40.9811 50.4256 40.9114 50.3925L40.8501 50.3619L40.9095 50.3255C40.9762 50.2866 41.0296 50.2285 41.0628 50.1588L41.0934 50.0975Z" fill="white"/>
<path d="M41.5174 57.6321L41.5518 57.6896C41.5915 57.7562 41.6493 57.81 41.7185 57.8448L41.7798 57.8735L41.7224 57.9099C41.6556 57.9488 41.6022 58.0069 41.5691 58.0766L41.5384 58.1379L41.502 58.0785C41.4618 58.0129 41.4041 57.9599 41.3354 57.9253L41.274 57.8946L41.3334 57.8601C41.399 57.8199 41.4521 57.7622 41.4867 57.6934L41.5174 57.6321Z" fill="white"/>
<path d="M46.3493 55.3927L46.3837 55.4521C46.424 55.5177 46.4817 55.5708 46.5504 55.6054L46.6117 55.636L46.5543 55.6705C46.4875 55.7093 46.4341 55.7674 46.401 55.8372L46.3703 55.9004L46.3339 55.841C46.2942 55.775 46.2363 55.7218 46.1673 55.6877L46.106 55.6571L46.1653 55.6207C46.2313 55.5809 46.2845 55.5231 46.3186 55.454L46.3493 55.3927Z" fill="white"/>
<path d="M52.2443 56.8188L52.2788 56.8782C52.3191 56.9438 52.3768 56.9969 52.4455 57.0315L52.5068 57.0622L52.4493 57.0986C52.3821 57.1367 52.3285 57.195 52.2961 57.2652L52.2654 57.3265L52.2443 57.2595C52.2046 57.1935 52.1468 57.1403 52.0777 57.1062L52.0164 57.0756L52.0757 57.0392C52.1417 56.9994 52.1949 56.9416 52.229 56.8725L52.2443 56.8188Z" fill="white"/>
<path d="M38.7238 47.6342L38.8483 47.843C38.9886 48.0768 39.1935 48.2651 39.4384 48.3852L39.6549 48.4924L39.4479 48.6189C39.2141 48.7589 39.0252 48.963 38.9039 49.207L38.7966 49.4254L38.672 49.2166C38.5317 48.9828 38.3268 48.7945 38.082 48.6744L37.8655 48.5672L38.0686 48.4465C38.3017 48.3047 38.4902 48.1002 38.6126 47.8564L38.7238 47.6342Z" fill="white"/>
<path d="M49.5623 51.6867L49.6887 51.8936C49.8287 52.1275 50.0328 52.3163 50.2769 52.4377L50.4953 52.545L50.2864 52.6695C50.053 52.8103 49.8649 53.0151 49.7443 53.2596L49.637 53.478L49.5105 53.2692C49.3704 53.0359 49.1663 52.8477 48.9224 52.727L48.704 52.6178L48.9128 52.4933C49.1467 52.353 49.3349 52.1481 49.455 51.9032L49.5623 51.6867Z" fill="white"/>
<path d="M49.5819 57.0522L49.6452 57.1576C49.717 57.2752 49.8206 57.3702 49.944 57.4315L50.0532 57.4852L49.9479 57.5484C49.8306 57.6192 49.7362 57.7223 49.6758 57.8453L49.6203 57.9545L49.557 57.8511C49.4863 57.7332 49.3832 57.6382 49.2601 57.5771L49.1509 57.5216L49.2563 57.4583C49.3739 57.388 49.4685 57.2848 49.5283 57.1614L49.5819 57.0522Z" fill="white"/>
</g>
</svg>
